Deck_Slab.ufo
<glyph name="exclam" format="1">
	<unicode hex="0021"/>
	<advance width="220"/>
	<outline>
		<contour>
			<point x="91" y="170" type="line"/>
			<point x="96" y="169"/>
			<point x="104" y="168"/>
			<point x="110" y="168" type="curve" smooth="yes"/>
			<point x="116" y="168"/>
			<point x="124" y="169"/>
			<point x="129" y="170" type="curve"/>
			<point x="138" y="286" type="line"/>
			<point x="139" y="645" type="line"/>
			<point x="131" y="646"/>
			<point x="118" y="647"/>
			<point x="110" y="647" type="curve" smooth="yes"/>
			<point x="102" y="647"/>
			<point x="89" y="646"/>
			<point x="81" y="645" type="curve"/>
			<point x="82" y="286" type="line"/>
		</contour>
		<contour>
			<point x="110" y="-10" type="curve" smooth="yes"/>
			<point x="141" y="-10"/>
			<point x="160" y="9"/>
			<point x="160" y="37" type="curve" smooth="yes"/>
			<point x="160" y="65"/>
			<point x="141" y="84"/>
			<point x="110" y="84" type="curve" smooth="yes"/>
			<point x="79" y="84"/>
			<point x="60" y="65"/>
			<point x="60" y="37" type="curve" smooth="yes"/>
			<point x="60" y="9"/>
			<point x="79" y="-10"/>
		</contour>
	</outline>
</glyph>
<glyph name="numbersign" format="1">
	<unicode hex="0023"/>
	<advance width="581"/>
	<outline>
		<contour>
			<point x="92" y="0" type="line"/>
			<point x="99" y="-1"/>
			<point x="109" y="-2"/>
			<point x="118" y="-2" type="curve" smooth="yes"/>
			<point x="127" y="-2"/>
			<point x="135" y="-1"/>
			<point x="141" y="0" type="curve"/>
			<point x="187" y="176" type="line"/>
			<point x="318" y="176" type="line"/>
			<point x="273" y="0" type="line"/>
			<point x="280" y="-1"/>
			<point x="290" y="-2"/>
			<point x="299" y="-2" type="curve" smooth="yes"/>
			<point x="308" y="-2"/>
			<point x="316" y="-1"/>
			<point x="322" y="0" type="curve"/>
			<point x="367" y="176" type="line"/>
			<point x="511" y="176" type="line"/>
			<point x="515" y="185"/>
			<point x="516" y="192"/>
			<point x="516" y="200" type="curve" smooth="yes"/>
			<point x="516" y="206"/>
			<point x="515" y="214"/>
			<point x="513" y="222" type="curve"/>
			<point x="379" y="222" type="line"/>
			<point x="431" y="423" type="line"/>
			<point x="546" y="423" type="line"/>
			<point x="550" y="432"/>
			<point x="551" y="439"/>
			<point x="551" y="447" type="curve" smooth="yes"/>
			<point x="551" y="453"/>
			<point x="550" y="461"/>
			<point x="548" y="469" type="curve"/>
			<point x="443" y="469" type="line"/>
			<point x="489" y="645" type="line"/>
			<point x="482" y="646"/>
			<point x="472" y="647"/>
			<point x="463" y="647" type="curve" smooth="yes"/>
			<point x="454" y="647"/>
			<point x="446" y="646"/>
			<point x="440" y="645" type="curve"/>
			<point x="394" y="469" type="line"/>
			<point x="263" y="469" type="line"/>
			<point x="308" y="645" type="line"/>
			<point x="301" y="646"/>
			<point x="291" y="647"/>
			<point x="282" y="647" type="curve" smooth="yes"/>
			<point x="273" y="647"/>
			<point x="265" y="646"/>
			<point x="259" y="645" type="curve"/>
			<point x="214" y="469" type="line"/>
			<point x="70" y="469" type="line"/>
			<point x="66" y="460"/>
			<point x="65" y="453"/>
			<point x="65" y="445" type="curve" smooth="yes"/>
			<point x="65" y="439"/>
			<point x="66" y="431"/>
			<point x="68" y="423" type="curve"/>
			<point x="202" y="423" type="line"/>
			<point x="150" y="222" type="line"/>
			<point x="35" y="222" type="line"/>
			<point x="31" y="213"/>
			<point x="30" y="206"/>
			<point x="30" y="198" type="curve" smooth="yes"/>
			<point x="30" y="192"/>
			<point x="31" y="184"/>
			<point x="33" y="176" type="curve"/>
			<point x="138" y="176" type="line"/>
		</contour>
		<contour>
			<point x="251" y="423" type="line"/>
			<point x="382" y="423" type="line"/>
			<point x="330" y="222" type="line"/>
			<point x="199" y="222" type="line"/>
		</contour>
	</outline>
</glyph>
<glyph name="dollar" format="1">
	<unicode hex="0024"/>
	<advance width="518"/>
	<outline>
		<contour>
			<point x="245" y="-140" type="line"/>
			<point x="251" y="-141"/>
			<point x="261" y="-142"/>
			<point x="271" y="-142" type="curve" smooth="yes"/>
			<point x="281" y="-142"/>
			<point x="291" y="-141"/>
			<point x="297" y="-140" type="curve"/>
			<point x="292" y="-7" type="line"/>
			<point x="401" y="6"/>
			<point x="474" y="70"/>
			<point x="474" y="167" type="curve" smooth="yes"/>
			<point x="474" y="261"/>
			<point x="423" y="311"/>
			<point x="287" y="358" type="curve" smooth="yes"/>
			<point x="158" y="402"/>
			<point x="130" y="446"/>
			<point x="130" y="501" type="curve" smooth="yes"/>
			<point x="130" y="570"/>
			<point x="181" y="609"/>
			<point x="264" y="609" type="curve" smooth="yes"/>
			<point x="296" y="609"/>
			<point x="329" y="603"/>
			<point x="370" y="585" type="curve"/>
			<point x="397" y="472" type="line"/>
			<point x="402" y="468"/>
			<point x="410" y="465"/>
			<point x="417" y="465" type="curve" smooth="yes"/>
			<point x="421" y="465"/>
			<point x="430" y="467"/>
			<point x="433" y="469" type="curve"/>
			<point x="431" y="589" type="line"/>
			<point x="427" y="598"/>
			<point x="420" y="610"/>
			<point x="412" y="619" type="curve"/>
			<point x="373" y="637"/>
			<point x="336" y="649"/>
			<point x="292" y="653" type="curve"/>
			<point x="297" y="785" type="line"/>
			<point x="291" y="786"/>
			<point x="281" y="787"/>
			<point x="271" y="787" type="curve" smooth="yes"/>
			<point x="261" y="787"/>
			<point x="251" y="786"/>
			<point x="245" y="785" type="curve"/>
			<point x="249" y="655" type="line"/>
			<point x="140" y="650"/>
			<point x="73" y="589"/>
			<point x="73" y="501" type="curve" smooth="yes"/>
			<point x="73" y="420"/>
			<point x="120" y="358"/>
			<point x="276" y="306" type="curve" smooth="yes"/>
			<point x="377" y="272"/>
			<point x="416" y="235"/>
			<point x="416" y="167" type="curve" smooth="yes"/>
			<point x="416" y="86"/>
			<point x="345" y="37"/>
			<point x="248" y="37" type="curve" smooth="yes"/>
			<point x="201" y="37"/>
			<point x="160" y="44"/>
			<point x="121" y="60" type="curve"/>
			<point x="94" y="178" type="line"/>
			<point x="89" y="182"/>
			<point x="81" y="185"/>
			<point x="74" y="185" type="curve" smooth="yes"/>
			<point x="70" y="185"/>
			<point x="61" y="183"/>
			<point x="58" y="181" type="curve"/>
			<point x="60" y="56" type="line"/>
			<point x="64" y="47"/>
			<point x="71" y="35"/>
			<point x="79" y="26" type="curve"/>
			<point x="121" y="4"/>
			<point x="178" y="-10"/>
			<point x="249" y="-10" type="curve"/>
		</contour>
	</outline>
</glyph>
<glyph name="ampersand" format="1">
	<unicode hex="0026"/>
	<advance width="727"/>
	<outline>
		<contour>
			<point x="279" y="613" type="curve" smooth="yes"/>
			<point x="301" y="613"/>
			<point x="322" y="607"/>
			<point x="342" y="596" type="curve"/>
			<point x="363" y="486" type="line"/>
			<point x="368" y="482"/>
			<point x="376" y="479"/>
			<point x="382" y="479" type="curve" smooth="yes"/>
			<point x="387" y="479"/>
			<point x="396" y="481"/>
			<point x="399" y="483" type="curve"/>
			<point x="405" y="586" type="line"/>
			<point x="397" y="599"/>
			<point x="384" y="614"/>
			<point x="373" y="625" type="curve"/>
			<point x="342" y="644"/>
			<point x="305" y="655"/>
			<point x="270" y="655" type="curve" smooth="yes"/>
			<point x="185" y="655"/>
			<point x="128" y="598"/>
			<point x="128" y="515" type="curve" smooth="yes"/>
			<point x="128" y="473"/>
			<point x="141" y="428"/>
			<point x="165" y="382" type="curve"/>
			<point x="79" y="317"/>
			<point x="43" y="256"/>
			<point x="43" y="180" type="curve" smooth="yes"/>
			<point x="43" y="63"/>
			<point x="126" y="-10"/>
			<point x="261" y="-10" type="curve" smooth="yes"/>
			<point x="344" y="-10"/>
			<point x="416" y="21"/>
			<point x="468" y="74" type="curve"/>
			<point x="553" y="23"/>
			<point x="642" y="-10"/>
			<point x="719" y="-10" type="curve"/>
			<point x="726" y="3"/>
			<point x="727" y="19"/>
			<point x="723" y="34" type="curve"/>
			<point x="655" y="37"/>
			<point x="576" y="67"/>
			<point x="500" y="114" type="curve"/>
			<point x="535" y="167"/>
			<point x="556" y="234"/>
			<point x="556" y="311" type="curve"/>
			<point x="648" y="319" type="line"/>
			<point x="652" y="324"/>
			<point x="655" y="332"/>
			<point x="655" y="339" type="curve" smooth="yes"/>
			<point x="655" y="343"/>
			<point x="653" y="352"/>
			<point x="651" y="355" type="curve"/>
			<point x="414" y="355" type="line"/>
			<point x="412" y="347" type="line" smooth="yes"/>
			<point x="409" y="337"/>
			<point x="407" y="327"/>
			<point x="407" y="323" type="curve" smooth="yes"/>
			<point x="407" y="314"/>
			<point x="412" y="309"/>
			<point x="423" y="309" type="curve" smooth="yes"/>
			<point x="501" y="309" type="line"/>
			<point x="501" y="244"/>
			<point x="484" y="187"/>
			<point x="456" y="142" type="curve"/>
			<point x="308" y="244"/>
			<point x="183" y="400"/>
			<point x="183" y="515" type="curve" smooth="yes"/>
			<point x="183" y="575"/>
			<point x="220" y="613"/>
		</contour>
		<contour>
			<point x="263" y="34" type="curve" smooth="yes"/>
			<point x="164" y="34"/>
			<point x="100" y="91"/>
			<point x="100" y="180" type="curve" smooth="yes"/>
			<point x="100" y="246"/>
			<point x="128" y="300"/>
			<point x="186" y="346" type="curve"/>
			<point x="241" y="257"/>
			<point x="329" y="169"/>
			<point x="425" y="102" type="curve"/>
			<point x="384" y="59"/>
			<point x="327" y="34"/>
		</contour>
	</outline>
</glyph>
<glyph name="quotesingle" format="1">
	<unicode hex="0027"/>
	<advance width="156"/>
	<outline>
		<contour>
			<point x="59" y="447" type="line"/>
			<point x="63" y="446"/>
			<point x="72" y="445"/>
			<point x="78" y="445" type="curve" smooth="yes"/>
			<point x="84" y="445"/>
			<point x="93" y="446"/>
			<point x="97" y="447" type="curve"/>
			<point x="106" y="580" type="line"/>
			<point x="106" y="653" type="line"/>
			<point x="97" y="654"/>
			<point x="83" y="655"/>
			<point x="78" y="655" type="curve" smooth="yes"/>
			<point x="73" y="655"/>
			<point x="59" y="654"/>
			<point x="50" y="653" type="curve"/>
			<point x="50" y="580" type="line"/>
		</contour>
	</outline>
</glyph>
<glyph name="parenleft" format="1">
	<unicode hex="0028"/>
	<advance width="339"/>
	<outline>
		<contour>
			<point x="158" y="278" type="curve" smooth="yes"/>
			<point x="158" y="416"/>
			<point x="212" y="543"/>
			<point x="313" y="642" type="curve"/>
			<point x="306" y="657"/>
			<point x="298" y="666"/>
			<point x="285" y="675" type="curve"/>
			<point x="160" y="566"/>
			<point x="100" y="428"/>
			<point x="100" y="278" type="curve" smooth="yes"/>
			<point x="100" y="128"/>
			<point x="160" y="-10"/>
			<point x="285" y="-119" type="curve"/>
			<point x="298" y="-110"/>
			<point x="306" y="-101"/>
			<point x="313" y="-86" type="curve"/>
			<point x="212" y="13"/>
			<point x="158" y="140"/>
		</contour>
	</outline>
</glyph>
<glyph name="parenright" format="1">
	<unicode hex="0029"/>
	<advance width="304"/>
	<outline>
		<contour>
			<point x="181" y="278" type="curve" smooth="yes"/>
			<point x="181" y="140"/>
			<point x="127" y="13"/>
			<point x="26" y="-86" type="curve"/>
			<point x="33" y="-101"/>
			<point x="41" y="-110"/>
			<point x="54" y="-119" type="curve"/>
			<point x="179" y="-10"/>
			<point x="239" y="128"/>
			<point x="239" y="278" type="curve" smooth="yes"/>
			<point x="239" y="428"/>
			<point x="179" y="566"/>
			<point x="54" y="675" type="curve"/>
			<point x="41" y="666"/>
			<point x="33" y="657"/>
			<point x="26" y="642" type="curve"/>
			<point x="127" y="543"/>
			<point x="181" y="416"/>
		</contour>
	</outline>
</glyph>
<glyph name="asterisk" format="1">
	<unicode hex="002A"/>
	<advance width="343"/>
	<outline>
		<contour>
			<point x="203" y="569" type="line"/>
			<point x="214" y="642" type="line"/>
			<point x="197" y="648"/>
			<point x="185" y="649"/>
			<point x="166" y="649" type="curve"/>
			<point x="156" y="576" type="line"/>
			<point x="152" y="524" type="line"/>
			<point x="107" y="551" type="line"/>
			<point x="41" y="584" type="line"/>
			<point x="30" y="569"/>
			<point x="26" y="559"/>
			<point x="20" y="540" type="curve"/>
			<point x="86" y="508" type="line"/>
			<point x="134" y="489" type="line"/>
			<point x="95" y="454" type="line"/>
			<point x="44" y="401" type="line"/>
			<point x="54" y="387"/>
			<point x="63" y="378"/>
			<point x="77" y="368" type="curve"/>
			<point x="130" y="421" type="line"/>
			<point x="162" y="459" type="line"/>
			<point x="183" y="413" type="line"/>
			<point x="218" y="347" type="line"/>
			<point x="235" y="353"/>
			<point x="246" y="358"/>
			<point x="259" y="369" type="curve"/>
			<point x="226" y="435" type="line"/>
			<point x="198" y="479" type="line"/>
			<point x="250" y="484" type="line"/>
			<point x="323" y="495" type="line"/>
			<point x="322" y="515"/>
			<point x="321" y="526"/>
			<point x="314" y="543" type="curve"/>
			<point x="242" y="531" type="line"/>
			<point x="191" y="518" type="line"/>
		</contour>
		<component base="space" xOffset="438" yOffset="660"/>
		<component base="space" xOffset="438" yOffset="660"/>
		<component base="space" xOffset="438" yOffset="660"/>
		<component base="space" xOffset="438" yOffset="660"/>
		<component base="space" xOffset="438" yOffset="660"/>
	</outline>
</glyph>
<glyph name="plus" format="1">
	<unicode hex="002B"/>
	<advance width="560"/>
	<outline>
		<contour>
			<point x="255" y="108" type="line"/>
			<point x="266" y="106"/>
			<point x="273" y="105"/>
			<point x="279" y="105" type="curve" smooth="yes"/>
			<point x="286" y="105"/>
			<point x="293" y="106"/>
			<point x="305" y="110" type="curve"/>
			<point x="305" y="299" type="line"/>
			<point x="492" y="299" type="line"/>
			<point x="496" y="312"/>
			<point x="497" y="317"/>
			<point x="497" y="324" type="curve" smooth="yes"/>
			<point x="497" y="330"/>
			<point x="496" y="337"/>
			<point x="494" y="345" type="curve"/>
			<point x="305" y="345" type="line"/>
			<point x="305" y="536" type="line"/>
			<point x="294" y="538"/>
			<point x="287" y="539"/>
			<point x="281" y="539" type="curve" smooth="yes"/>
			<point x="274" y="539"/>
			<point x="267" y="538"/>
			<point x="255" y="534" type="curve"/>
			<point x="255" y="345" type="line"/>
			<point x="68" y="345" type="line"/>
			<point x="64" y="332"/>
			<point x="63" y="327"/>
			<point x="63" y="320" type="curve" smooth="yes"/>
			<point x="63" y="314"/>
			<point x="64" y="307"/>
			<point x="66" y="299" type="curve"/>
			<point x="255" y="299" type="line"/>
		</contour>
	</outline>
</glyph>
<glyph name="comma" format="1">
	<unicode hex="002C"/>
	<advance width="220"/>
	<outline>
		<contour>
			<point x="162" y="19" type="curve" smooth="yes"/>
			<point x="162" y="58"/>
			<point x="139" y="84"/>
			<point x="106" y="84" type="curve" smooth="yes"/>
			<point x="78" y="84"/>
			<point x="58" y="64"/>
			<point x="58" y="38" type="curve" smooth="yes"/>
			<point x="58" y="31"/>
			<point x="60" y="22"/>
			<point x="62" y="16" type="curve"/>
			<point x="103" y="-8" type="line"/>
			<point x="103" y="-33"/>
			<point x="81" y="-106"/>
			<point x="64" y="-136" type="curve"/>
			<point x="71" y="-144"/>
			<point x="83" y="-148"/>
			<point x="98" y="-148" type="curve"/>
			<point x="131" y="-104"/>
			<point x="162" y="-23"/>
		</contour>
	</outline>
</glyph>
<glyph name="slash" format="1">
	<unicode hex="002F"/>
	<advance width="381"/>
	<outline>
		<contour>
			<point x="331" y="651" type="line"/>
			<point x="316" y="661"/>
			<point x="302" y="665"/>
			<point x="281" y="666" type="curve"/>
			<point x="50" y="10" type="line"/>
			<point x="65" y="0"/>
			<point x="79" y="-4"/>
			<point x="100" y="-5" type="curve"/>
		</contour>
	</outline>
</glyph>
<glyph name="zero" format="1">
	<unicode hex="0030"/>
	<advance width="560"/>
	<outline>
		<contour>
			<point x="99" y="323" type="curve" smooth="yes"/>
			<point x="99" y="462"/>
			<point x="145" y="608"/>
			<point x="280" y="608" type="curve" smooth="yes"/>
			<point x="415" y="608"/>
			<point x="461" y="462"/>
			<point x="461" y="323" type="curve" smooth="yes"/>
			<point x="461" y="183"/>
			<point x="415" y="37"/>
			<point x="280" y="37" type="curve" smooth="yes"/>
			<point x="145" y="37"/>
			<point x="99" y="183"/>
		</contour>
		<contour>
			<point x="520" y="323" type="curve" smooth="yes"/>
			<point x="520" y="479"/>
			<point x="459" y="655"/>
			<point x="280" y="655" type="curve" smooth="yes"/>
			<point x="101" y="655"/>
			<point x="40" y="479"/>
			<point x="40" y="323" type="curve" smooth="yes"/>
			<point x="40" y="166"/>
			<point x="101" y="-10"/>
			<point x="280" y="-10" type="curve" smooth="yes"/>
			<point x="459" y="-10"/>
			<point x="520" y="166"/>
		</contour>
	</outline>
</glyph>
<glyph name="one" format="1">
	<unicode hex="0031"/>
	<advance width="560"/>
	<outline>
		<contour>
			<point x="270" y="44" type="line"/>
			<point x="143" y="36" type="line"/>
			<point x="139" y="31"/>
			<point x="136" y="23"/>
			<point x="136" y="16" type="curve" smooth="yes"/>
			<point x="136" y="12"/>
			<point x="138" y="3"/>
			<point x="140" y="0" type="curve"/>
			<point x="433" y="0" type="line"/>
			<point x="435" y="8" type="line" smooth="yes"/>
			<point x="438" y="18"/>
			<point x="440" y="28"/>
			<point x="440" y="32" type="curve" smooth="yes"/>
			<point x="440" y="41"/>
			<point x="435" y="46"/>
			<point x="424" y="46" type="curve" smooth="yes"/>
			<point x="326" y="46" type="line"/>
			<point x="326" y="635" type="line"/>
			<point x="316" y="642"/>
			<point x="304" y="646"/>
			<point x="292" y="649" type="curve"/>
			<point x="117" y="535" type="line"/>
			<point x="121" y="522"/>
			<point x="129" y="508"/>
			<point x="138" y="499" type="curve"/>
			<point x="270" y="576" type="line"/>
		</contour>
	</outline>
</glyph>
<glyph name="two" format="1">
	<unicode hex="0032"/>
	<advance width="477"/>
	<outline>
		<contour>
			<point x="396" y="0" type="line"/>
			<point x="405" y="7"/>
			<point x="414" y="17"/>
			<point x="420" y="26" type="curve"/>
			<point x="422" y="163" type="line"/>
			<point x="419" y="165"/>
			<point x="410" y="167"/>
			<point x="406" y="167" type="curve" smooth="yes"/>
			<point x="399" y="167"/>
			<point x="391" y="164"/>
			<point x="386" y="160" type="curve"/>
			<point x="361" y="46" type="line"/>
			<point x="65" y="46" type="line"/>
			<point x="67" y="113"/>
			<point x="109" y="161"/>
			<point x="228" y="254" type="curve" smooth="yes"/>
			<point x="362" y="358"/>
			<point x="404" y="415"/>
			<point x="404" y="493" type="curve" smooth="yes"/>
			<point x="404" y="589"/>
			<point x="331" y="655"/>
			<point x="224" y="655" type="curve" smooth="yes"/>
			<point x="150" y="655"/>
			<point x="79" y="618"/>
			<point x="38" y="559" type="curve"/>
			<point x="45" y="546"/>
			<point x="53" y="538"/>
			<point x="70" y="529" type="curve"/>
			<point x="117" y="582"/>
			<point x="168" y="609"/>
			<point x="224" y="609" type="curve" smooth="yes"/>
			<point x="297" y="609"/>
			<point x="347" y="562"/>
			<point x="347" y="493" type="curve" smooth="yes"/>
			<point x="347" y="430"/>
			<point x="311" y="383"/>
			<point x="195" y="293" type="curve" smooth="yes"/>
			<point x="59" y="187"/>
			<point x="11" y="125"/>
			<point x="11" y="39" type="curve" smooth="yes"/>
			<point x="11" y="26" type="line"/>
			<point x="17" y="17"/>
			<point x="26" y="7"/>
			<point x="35" y="0" type="curve"/>
		</contour>
	</outline>
</glyph>
<glyph name="three" format="1">
	<unicode hex="0033"/>
	<advance width="560"/>
	<outline>
		<contour>
			<point x="207" y="320" type="curve"/>
			<point x="225" y="325"/>
			<point x="251" y="328"/>
			<point x="271" y="328" type="curve" smooth="yes"/>
			<point x="363" y="328"/>
			<point x="423" y="277"/>
			<point x="423" y="191" type="curve" smooth="yes"/>
			<point x="423" y="99"/>
			<point x="352" y="41"/>
			<point x="233" y="41" type="curve" smooth="yes"/>
			<point x="183" y="41"/>
			<point x="135" y="54"/>
			<point x="79" y="83" type="curve"/>
			<point x="69" y="71"/>
			<point x="63" y="58"/>
			<point x="60" y="43" type="curve"/>
			<point x="112" y="9"/>
			<point x="177" y="-10"/>
			<point x="240" y="-10" type="curve" smooth="yes"/>
			<point x="380" y="-10"/>
			<point x="480" y="74"/>
			<point x="480" y="191" type="curve" smooth="yes"/>
			<point x="480" y="304"/>
			<point x="401" y="374"/>
			<point x="284" y="374" type="curve" smooth="yes"/>
			<point x="279" y="374"/>
			<point x="273" y="374"/>
			<point x="267" y="373" type="curve"/>
			<point x="471" y="614" type="line"/>
			<point x="467" y="624"/>
			<point x="460" y="636"/>
			<point x="452" y="645" type="curve"/>
			<point x="111" y="645" type="line"/>
			<point x="102" y="638"/>
			<point x="93" y="628"/>
			<point x="87" y="619" type="curve"/>
			<point x="85" y="507" type="line"/>
			<point x="88" y="505"/>
			<point x="97" y="503"/>
			<point x="101" y="503" type="curve" smooth="yes"/>
			<point x="108" y="503"/>
			<point x="116" y="506"/>
			<point x="121" y="510" type="curve"/>
			<point x="146" y="599" type="line"/>
			<point x="396" y="599" type="line"/>
			<point x="188" y="351" type="line"/>
			<point x="192" y="340"/>
			<point x="200" y="328"/>
		</contour>
	</outline>
</glyph>
<glyph name="five" format="1">
	<unicode hex="0035"/>
	<advance width="490"/>
	<outline>
		<contour>
			<point x="259" y="572" type="curve" smooth="yes"/>
			<point x="314" y="572"/>
			<point x="387" y="586"/>
			<point x="417" y="605" type="curve"/>
			<point x="415" y="620"/>
			<point x="410" y="633"/>
			<point x="402" y="644" type="curve"/>
			<point x="358" y="628"/>
			<point x="307" y="621"/>
			<point x="266" y="621" type="curve" smooth="yes"/>
			<point x="219" y="621"/>
			<point x="164" y="630"/>
			<point x="114" y="649" type="curve"/>
			<point x="104" y="641"/>
			<point x="93" y="628"/>
			<point x="87" y="617" type="curve"/>
			<point x="65" y="353" type="line"/>
			<point x="71" y="346"/>
			<point x="84" y="338"/>
			<point x="101" y="331" type="curve"/>
			<point x="127" y="341"/>
			<point x="178" y="350"/>
			<point x="222" y="350" type="curve" smooth="yes"/>
			<point x="321" y="350"/>
			<point x="383" y="294"/>
			<point x="383" y="196" type="curve" smooth="yes"/>
			<point x="383" y="99"/>
			<point x="312" y="41"/>
			<point x="193" y="41" type="curve" smooth="yes"/>
			<point x="143" y="41"/>
			<point x="95" y="54"/>
			<point x="39" y="83" type="curve"/>
			<point x="29" y="71"/>
			<point x="23" y="58"/>
			<point x="20" y="43" type="curve"/>
			<point x="72" y="9"/>
			<point x="137" y="-10"/>
			<point x="200" y="-10" type="curve" smooth="yes"/>
			<point x="342" y="-10"/>
			<point x="440" y="74"/>
			<point x="440" y="196" type="curve" smooth="yes"/>
			<point x="440" y="322"/>
			<point x="357" y="397"/>
			<point x="227" y="397" type="curve" smooth="yes"/>
			<point x="194" y="397"/>
			<point x="147" y="392"/>
			<point x="117" y="385" type="curve"/>
			<point x="134" y="587" type="line"/>
			<point x="171" y="577"/>
			<point x="218" y="572"/>
		</contour>
	</outline>
</glyph>
<glyph name="six" format="1">
	<unicode hex="0036"/>
	<advance width="502"/>
	<outline>
		<contour>
			<point x="386" y="615" type="curve"/>
			<point x="383" y="630"/>
			<point x="375" y="647"/>
			<point x="365" y="655" type="curve"/>
			<point x="165" y="580"/>
			<point x="40" y="419"/>
			<point x="40" y="241" type="curve" smooth="yes"/>
			<point x="40" y="116"/>
			<point x="101" y="-10"/>
			<point x="254" y="-10" type="curve" smooth="yes"/>
			<point x="396" y="-10"/>
			<point x="462" y="100"/>
			<point x="462" y="199" type="curve" smooth="yes"/>
			<point x="462" y="307"/>
			<point x="384" y="410"/>
			<point x="262" y="410" type="curve" smooth="yes"/>
			<point x="187" y="410"/>
			<point x="126" y="371"/>
			<point x="92" y="307" type="curve"/>
			<point x="133" y="458"/>
			<point x="249" y="556"/>
		</contour>
		<contour>
			<point x="253" y="363" type="curve" smooth="yes"/>
			<point x="344" y="363"/>
			<point x="404" y="294"/>
			<point x="404" y="200" type="curve" smooth="yes"/>
			<point x="404" y="105"/>
			<point x="344" y="37"/>
			<point x="253" y="37" type="curve" smooth="yes"/>
			<point x="162" y="37"/>
			<point x="102" y="105"/>
			<point x="102" y="200" type="curve" smooth="yes"/>
			<point x="102" y="294"/>
			<point x="162" y="363"/>
		</contour>
	</outline>
</glyph>
<glyph name="seven" format="1">
	<unicode hex="0037"/>
	<advance width="560"/>
	<outline>
		<contour>
			<point x="505" y="609" type="line"/>
			<point x="501" y="621"/>
			<point x="492" y="636"/>
			<point x="484" y="645" type="curve"/>
			<point x="108" y="645" type="line"/>
			<point x="99" y="638"/>
			<point x="90" y="628"/>
			<point x="84" y="619" type="curve"/>
			<point x="82" y="487" type="line"/>
			<point x="85" y="485"/>
			<point x="94" y="483"/>
			<point x="98" y="483" type="curve" smooth="yes"/>
			<point x="105" y="483"/>
			<point x="113" y="486"/>
			<point x="118" y="490" type="curve"/>
			<point x="143" y="596" type="line"/>
			<point x="442" y="596" type="line"/>
			<point x="153" y="22" type="line"/>
			<point x="165" y="5"/>
			<point x="181" y="-3"/>
			<point x="204" y="-5" type="curve"/>
		</contour>
	</outline>
</glyph>
<glyph name="eight" format="1">
	<unicode hex="0038"/>
	<advance width="518"/>
	<outline>
		<contour>
			<point x="43" y="167" type="curve" smooth="yes"/>
			<point x="43" y="61"/>
			<point x="131" y="-10"/>
			<point x="259" y="-10" type="curve" smooth="yes"/>
			<point x="387" y="-10"/>
			<point x="475" y="61"/>
			<point x="475" y="167" type="curve" smooth="yes"/>
			<point x="475" y="274"/>
			<point x="394" y="316"/>
			<point x="313" y="353" type="curve"/>
			<point x="395" y="389"/>
			<point x="424" y="440"/>
			<point x="424" y="507" type="curve" smooth="yes"/>
			<point x="424" y="586"/>
			<point x="355" y="655"/>
			<point x="259" y="655" type="curve" smooth="yes"/>
			<point x="163" y="655"/>
			<point x="94" y="586"/>
			<point x="94" y="507" type="curve" smooth="yes"/>
			<point x="94" y="429"/>
			<point x="143" y="388"/>
			<point x="202" y="357" type="curve"/>
			<point x="77" y="312"/>
			<point x="43" y="234"/>
		</contour>
		<contour>
			<point x="416" y="167" type="curve" smooth="yes"/>
			<point x="416" y="87"/>
			<point x="358" y="37"/>
			<point x="259" y="37" type="curve" smooth="yes"/>
			<point x="160" y="37"/>
			<point x="102" y="87"/>
			<point x="102" y="167" type="curve" smooth="yes"/>
			<point x="102" y="225"/>
			<point x="138" y="298"/>
			<point x="250" y="334" type="curve"/>
			<point x="332" y="296"/>
			<point x="416" y="262"/>
		</contour>
		<contour>
			<point x="153" y="507" type="curve" smooth="yes"/>
			<point x="153" y="566"/>
			<point x="195" y="608"/>
			<point x="259" y="608" type="curve" smooth="yes"/>
			<point x="323" y="608"/>
			<point x="365" y="566"/>
			<point x="365" y="507" type="curve" smooth="yes"/>
			<point x="365" y="451"/>
			<point x="345" y="413"/>
			<point x="269" y="374" type="curve"/>
			<point x="206" y="404"/>
			<point x="153" y="437"/>
		</contour>
	</outline>
</glyph>
<glyph name="nine" format="1">
	<unicode hex="0039"/>
	<advance width="560"/>
	<outline>
		<contour>
			<point x="139" y="30" type="curve"/>
			<point x="142" y="14"/>
			<point x="151" y="-3"/>
			<point x="160" y="-10" type="curve"/>
			<point x="359" y="65"/>
			<point x="485" y="225"/>
			<point x="485" y="404" type="curve" smooth="yes"/>
			<point x="485" y="557"/>
			<point x="402" y="655"/>
			<point x="271" y="655" type="curve" smooth="yes"/>
			<point x="150" y="655"/>
			<point x="63" y="568"/>
			<point x="63" y="446" type="curve" smooth="yes"/>
			<point x="63" y="328"/>
			<point x="151" y="235"/>
			<point x="263" y="235" type="curve" smooth="yes"/>
			<point x="344" y="235"/>
			<point x="410" y="281"/>
			<point x="441" y="356" type="curve"/>
			<point x="410" y="215"/>
			<point x="305" y="100"/>
		</contour>
		<contour>
			<point x="272" y="282" type="curve" smooth="yes"/>
			<point x="183" y="282"/>
			<point x="121" y="349"/>
			<point x="121" y="445" type="curve" smooth="yes"/>
			<point x="121" y="542"/>
			<point x="182" y="608"/>
			<point x="271" y="608" type="curve" smooth="yes"/>
			<point x="361" y="608"/>
			<point x="425" y="541"/>
			<point x="425" y="445" type="curve" smooth="yes"/>
			<point x="425" y="350"/>
			<point x="362" y="282"/>
		</contour>
	</outline>
</glyph>
<glyph name="less" format="1">
	<unicode hex="003C"/>
	<advance width="580"/>
	<outline>
		<contour>
			<point x="502" y="479" type="line"/>
			<point x="503" y="492"/>
			<point x="498" y="512"/>
			<point x="490" y="523" type="curve"/>
			<point x="70" y="348" type="line"/>
			<point x="68" y="338"/>
			<point x="67" y="331"/>
			<point x="67" y="322" type="curve" smooth="yes"/>
			<point x="67" y="313"/>
			<point x="68" y="306"/>
			<point x="70" y="296" type="curve"/>
			<point x="490" y="121" type="line"/>
			<point x="498" y="132"/>
			<point x="503" y="154"/>
			<point x="502" y="167" type="curve"/>
			<point x="127" y="323" type="line"/>
		</contour>
	</outline>
</glyph>
<glyph name="equal" format="1">
	<unicode hex="003D"/>
	<advance width="580"/>
	<outline>
		<contour>
			<point x="502" y="211" type="line"/>
			<point x="506" y="224"/>
			<point x="507" y="229"/>
			<point x="507" y="236" type="curve" smooth="yes"/>
			<point x="507" y="242"/>
			<point x="506" y="248"/>
			<point x="504" y="259" type="curve"/>
			<point x="78" y="259" type="line"/>
			<point x="74" y="246"/>
			<point x="73" y="241"/>
			<point x="73" y="234" type="curve" smooth="yes"/>
			<point x="73" y="228"/>
			<point x="74" y="222"/>
			<point x="76" y="211" type="curve"/>
		</contour>
		<contour>
			<point x="502" y="385" type="line"/>
			<point x="506" y="398"/>
			<point x="507" y="403"/>
			<point x="507" y="410" type="curve" smooth="yes"/>
			<point x="507" y="416"/>
			<point x="506" y="422"/>
			<point x="504" y="433" type="curve"/>
			<point x="78" y="433" type="line"/>
			<point x="74" y="420"/>
			<point x="73" y="415"/>
			<point x="73" y="408" type="curve" smooth="yes"/>
			<point x="73" y="402"/>
			<point x="74" y="396"/>
			<point x="76" y="385" type="curve"/>
		</contour>
	</outline>
</glyph>
<glyph name="greater" format="1">
	<unicode hex="003E"/>
	<advance width="580"/>
	<outline>
		<contour>
			<point x="95" y="121" type="curve"/>
			<point x="514" y="296" type="line"/>
			<point x="516" y="307"/>
			<point x="517" y="314"/>
			<point x="517" y="322" type="curve" smooth="yes"/>
			<point x="517" y="330"/>
			<point x="516" y="337"/>
			<point x="514" y="348" type="curve"/>
			<point x="95" y="523" type="line"/>
			<point x="88" y="514"/>
			<point x="83" y="491"/>
			<point x="83" y="475" type="curve"/>
			<point x="454" y="320" type="line"/>
			<point x="83" y="165" type="line"/>
			<point x="83" y="149"/>
			<point x="88" y="130"/>
		</contour>
	</outline>
</glyph>
<glyph name="question" format="1">
	<unicode hex="003F"/>
	<advance width="545"/>
	<outline>
		<contour>
			<point x="280" y="609" type="curve" smooth="yes"/>
			<point x="364" y="609"/>
			<point x="408" y="575"/>
			<point x="408" y="512" type="curve" smooth="yes"/>
			<point x="408" y="467"/>
			<point x="390" y="438"/>
			<point x="330" y="385" type="curve" smooth="yes"/>
			<point x="236" y="302"/>
			<point x="222" y="279"/>
			<point x="226" y="220" type="curve" smooth="yes"/>
			<point x="230" y="170" type="line"/>
			<point x="235" y="169"/>
			<point x="243" y="168"/>
			<point x="249" y="168" type="curve" smooth="yes"/>
			<point x="255" y="168"/>
			<point x="263" y="169"/>
			<point x="268" y="170" type="curve"/>
			<point x="273" y="220" type="line" smooth="yes"/>
			<point x="277" y="266"/>
			<point x="289" y="285"/>
			<point x="372" y="356" type="curve" smooth="yes"/>
			<point x="440" y="415"/>
			<point x="462" y="457"/>
			<point x="462" y="512" type="curve" smooth="yes"/>
			<point x="462" y="602"/>
			<point x="396" y="655"/>
			<point x="287" y="655" type="curve" smooth="yes"/>
			<point x="237" y="655"/>
			<point x="190" y="643"/>
			<point x="143" y="619" type="curve"/>
			<point x="135" y="610"/>
			<point x="128" y="598"/>
			<point x="124" y="589" type="curve"/>
			<point x="123" y="458" type="line"/>
			<point x="128" y="456"/>
			<point x="133" y="455"/>
			<point x="138" y="455" type="curve" smooth="yes"/>
			<point x="144" y="455"/>
			<point x="151" y="457"/>
			<point x="157" y="461" type="curve"/>
			<point x="186" y="588" type="line"/>
			<point x="216" y="602"/>
			<point x="245" y="609"/>
		</contour>
		<contour>
			<point x="249" y="-10" type="curve" smooth="yes"/>
			<point x="280" y="-10"/>
			<point x="299" y="9"/>
			<point x="299" y="37" type="curve" smooth="yes"/>
			<point x="299" y="65"/>
			<point x="280" y="84"/>
			<point x="249" y="84" type="curve" smooth="yes"/>
			<point x="218" y="84"/>
			<point x="199" y="65"/>
			<point x="199" y="37" type="curve" smooth="yes"/>
			<point x="199" y="9"/>
			<point x="218" y="-10"/>
		</contour>
	</outline>
</glyph>
<glyph name="at" format="1">
	<unicode hex="0040"/>
	<advance width="815"/>
	<outline>
		<contour>
			<point x="494" y="124" type="line" smooth="yes"/>
			<point x="494" y="80"/>
			<point x="528" y="50"/>
			<point x="578" y="50" type="curve" smooth="yes"/>
			<point x="686" y="50"/>
			<point x="772" y="169"/>
			<point x="772" y="320" type="curve" smooth="yes"/>
			<point x="772" y="487"/>
			<point x="664" y="636"/>
			<point x="449" y="636" type="curve" smooth="yes"/>
			<point x="210" y="636"/>
			<point x="43" y="455"/>
			<point x="43" y="216" type="curve" smooth="yes"/>
			<point x="43" y="1"/>
			<point x="174" y="-136"/>
			<point x="380" y="-136" type="curve" smooth="yes"/>
			<point x="436" y="-136"/>
			<point x="502" y="-119"/>
			<point x="542" y="-95" type="curve"/>
			<point x="540" y="-80"/>
			<point x="535" y="-70"/>
			<point x="526" y="-60" type="curve"/>
			<point x="476" y="-80"/>
			<point x="429" y="-90"/>
			<point x="380" y="-90" type="curve" smooth="yes"/>
			<point x="209" y="-90"/>
			<point x="98" y="30"/>
			<point x="98" y="216" type="curve" smooth="yes"/>
			<point x="98" y="429"/>
			<point x="245" y="594"/>
			<point x="449" y="594" type="curve" smooth="yes"/>
			<point x="620" y="594"/>
			<point x="717" y="478"/>
			<point x="717" y="320" type="curve" smooth="yes"/>
			<point x="717" y="195"/>
			<point x="657" y="97"/>
			<point x="582" y="97" type="curve" smooth="yes"/>
			<point x="553" y="97"/>
			<point x="538" y="112"/>
			<point x="538" y="144" type="curve" smooth="yes"/>
			<point x="538" y="152"/>
			<point x="539" y="158"/>
			<point x="540" y="166" type="curve" smooth="yes"/>
			<point x="584" y="442" type="line"/>
			<point x="578" y="443"/>
			<point x="573" y="443"/>
			<point x="567" y="443" type="curve" smooth="yes"/>
			<point x="561" y="443"/>
			<point x="555" y="443"/>
			<point x="550" y="442" type="curve"/>
			<point x="528" y="409" type="line"/>
			<point x="503" y="433"/>
			<point x="469" y="447"/>
			<point x="431" y="447" type="curve" smooth="yes"/>
			<point x="322" y="447"/>
			<point x="228" y="333"/>
			<point x="228" y="199" type="curve" smooth="yes"/>
			<point x="228" y="97"/>
			<point x="283" y="50"/>
			<point x="353" y="50" type="curve" smooth="yes"/>
			<point x="391" y="50"/>
			<point x="453" y="63"/>
			<point x="494" y="135" type="curve"/>
		</contour>
		<contour>
			<point x="495" y="228" type="line" smooth="yes"/>
			<point x="478" y="130"/>
			<point x="406" y="95"/>
			<point x="363" y="95" type="curve" smooth="yes"/>
			<point x="309" y="95"/>
			<point x="283" y="134"/>
			<point x="283" y="206" type="curve" smooth="yes"/>
			<point x="283" y="311"/>
			<point x="356" y="405"/>
			<point x="434" y="405" type="curve" smooth="yes"/>
			<point x="467" y="405"/>
			<point x="499" y="387"/>
			<point x="519" y="368" type="curve"/>
		</contour>
	</outline>
</glyph>
<glyph name="A" format="1">
	<unicode hex="0041"/>
	<advance width="666"/>
	<outline>
		<contour>
			<point x="527" y="44" type="line"/>
			<point x="460" y="36" type="line"/>
			<point x="456" y="31"/>
			<point x="453" y="23"/>
			<point x="453" y="16" type="curve" smooth="yes"/>
			<point x="453" y="12"/>
			<point x="455" y="3"/>
			<point x="457" y="0" type="curve"/>
			<point x="652" y="0" type="line"/>
			<point x="654" y="8" type="line" smooth="yes"/>
			<point x="657" y="18"/>
			<point x="659" y="28"/>
			<point x="659" y="32" type="curve" smooth="yes"/>
			<point x="659" y="41"/>
			<point x="654" y="46"/>
			<point x="643" y="46" type="curve" smooth="yes"/>
			<point x="585" y="46" type="line"/>
			<point x="350" y="650" type="line"/>
			<point x="332" y="650"/>
			<point x="313" y="645"/>
			<point x="304" y="635" type="curve"/>
			<point x="74" y="44" type="line"/>
			<point x="7" y="36" type="line"/>
			<point x="3" y="31"/>
			<point x="0" y="23"/>
			<point x="0" y="16" type="curve" smooth="yes"/>
			<point x="0" y="12"/>
			<point x="2" y="3"/>
			<point x="4" y="0" type="curve"/>
			<point x="196" y="0" type="line"/>
			<point x="198" y="8" type="line" smooth="yes"/>
			<point x="201" y="18"/>
			<point x="203" y="28"/>
			<point x="203" y="32" type="curve" smooth="yes"/>
			<point x="203" y="41"/>
			<point x="198" y="46"/>
			<point x="187" y="46" type="curve" smooth="yes"/>
			<point x="129" y="46" type="line"/>
			<point x="191" y="210" type="line"/>
			<point x="463" y="210" type="line"/>
		</contour>
		<contour>
			<point x="327" y="564" type="line"/>
			<point x="446" y="255" type="line"/>
			<point x="208" y="255" type="line"/>
		</contour>
	</outline>
</glyph>
<glyph name="C" format="1">
	<unicode hex="0043"/>
	<advance width="593"/>
	<outline>
		<contour>
			<point x="344" y="655" type="curve" smooth="yes"/>
			<point x="168" y="655"/>
			<point x="50" y="524"/>
			<point x="50" y="323" type="curve" smooth="yes"/>
			<point x="50" y="120"/>
			<point x="170" y="-10"/>
			<point x="351" y="-10" type="curve" smooth="yes"/>
			<point x="418" y="-10"/>
			<point x="496" y="8"/>
			<point x="548" y="42" type="curve"/>
			<point x="548" y="56"/>
			<point x="542" y="72"/>
			<point x="532" y="83" type="curve"/>
			<point x="476" y="54"/>
			<point x="414" y="41"/>
			<point x="360" y="41" type="curve" smooth="yes"/>
			<point x="206" y="41"/>
			<point x="109" y="149"/>
			<point x="109" y="323" type="curve" smooth="yes"/>
			<point x="109" y="495"/>
			<point x="203" y="608"/>
			<point x="348" y="608" type="curve" smooth="yes"/>
			<point x="390" y="608"/>
			<point x="438" y="598"/>
			<point x="477" y="582" type="curve"/>
			<point x="500" y="460" type="line"/>
			<point x="505" y="456"/>
			<point x="513" y="453"/>
			<point x="520" y="453" type="curve" smooth="yes"/>
			<point x="524" y="453"/>
			<point x="533" y="455"/>
			<point x="536" y="457" type="curve"/>
			<point x="543" y="580" type="line"/>
			<point x="538" y="590"/>
			<point x="523" y="609"/>
			<point x="511" y="619" type="curve"/>
			<point x="458" y="642"/>
			<point x="400" y="655"/>
		</contour>
	</outline>
</glyph>
<glyph name="E" format="1">
	<unicode hex="0045"/>
	<advance width="596"/>
	<outline>
		<contour>
			<point x="520" y="0" type="line"/>
			<point x="529" y="7"/>
			<point x="538" y="17"/>
			<point x="544" y="26" type="curve"/>
			<point x="546" y="158" type="line"/>
			<point x="543" y="160"/>
			<point x="534" y="162"/>
			<point x="530" y="162" type="curve" smooth="yes"/>
			<point x="523" y="162"/>
			<point x="515" y="159"/>
			<point x="510" y="155" type="curve"/>
			<point x="485" y="46" type="line"/>
			<point x="181" y="46" type="line"/>
			<point x="181" y="307" type="line"/>
			<point x="380" y="307" type="line"/>
			<point x="393" y="239" type="line"/>
			<point x="398" y="235"/>
			<point x="406" y="232"/>
			<point x="413" y="232" type="curve" smooth="yes"/>
			<point x="417" y="232"/>
			<point x="426" y="234"/>
			<point x="429" y="236" type="curve"/>
			<point x="429" y="418" type="line"/>
			<point x="423" y="421" type="line" smooth="yes"/>
			<point x="416" y="424"/>
			<point x="411" y="426"/>
			<point x="407" y="426" type="curve" smooth="yes"/>
			<point x="398" y="426"/>
			<point x="392" y="420"/>
			<point x="390" y="408" type="curve" smooth="yes"/>
			<point x="380" y="352" type="line"/>
			<point x="181" y="352" type="line"/>
			<point x="181" y="599" type="line"/>
			<point x="475" y="599" type="line"/>
			<point x="500" y="490" type="line"/>
			<point x="505" y="486"/>
			<point x="513" y="483"/>
			<point x="520" y="483" type="curve" smooth="yes"/>
			<point x="524" y="483"/>
			<point x="533" y="485"/>
			<point x="536" y="487" type="curve"/>
			<point x="534" y="619" type="line"/>
			<point x="528" y="628"/>
			<point x="519" y="638"/>
			<point x="510" y="645" type="curve"/>
			<point x="58" y="645" type="line"/>
			<point x="56" y="637" type="line" smooth="yes"/>
			<point x="53" y="627"/>
			<point x="51" y="617"/>
			<point x="51" y="613" type="curve" smooth="yes"/>
			<point x="51" y="604"/>
			<point x="56" y="599"/>
			<point x="67" y="599" type="curve" smooth="yes"/>
			<point x="125" y="599" type="line"/>
			<point x="125" y="44" type="line"/>
			<point x="58" y="36" type="line"/>
			<point x="54" y="31"/>
			<point x="51" y="23"/>
			<point x="51" y="16" type="curve" smooth="yes"/>
			<point x="51" y="12"/>
			<point x="53" y="3"/>
			<point x="55" y="0" type="curve"/>
		</contour>
		<contour>
			<point name="top.UC" x="315" y="670" type="move"/>
		</contour>
		<contour>
			<point name="bottom.UC" x="315" y="-40" type="move"/>
		</contour>
		<contour>
			<point name="ogonek.UC" x="502" y="-40" type="move"/>
		</contour>
	</outline>
</glyph>
<glyph name="G" format="1">
	<unicode hex="0047"/>
	<advance width="678"/>
	<outline>
		<contour>
			<point x="573" y="271" type="line"/>
			<point x="635" y="279" type="line"/>
			<point x="639" y="284"/>
			<point x="642" y="292"/>
			<point x="642" y="299" type="curve" smooth="yes"/>
			<point x="642" y="303"/>
			<point x="640" y="312"/>
			<point x="638" y="315" type="curve"/>
			<point x="400" y="315" type="line"/>
			<point x="398" y="307" type="line" smooth="yes"/>
			<point x="395" y="297"/>
			<point x="393" y="287"/>
			<point x="393" y="283" type="curve" smooth="yes"/>
			<point x="393" y="274"/>
			<point x="398" y="269"/>
			<point x="409" y="269" type="curve" smooth="yes"/>
			<point x="517" y="269" type="line"/>
			<point x="517" y="63" type="line"/>
			<point x="474" y="48"/>
			<point x="410" y="37"/>
			<point x="365" y="37" type="curve" smooth="yes"/>
			<point x="222" y="37"/>
			<point x="109" y="130"/>
			<point x="109" y="321" type="curve" smooth="yes"/>
			<point x="109" y="497"/>
			<point x="206" y="608"/>
			<point x="361" y="608" type="curve" smooth="yes"/>
			<point x="406" y="608"/>
			<point x="457" y="599"/>
			<point x="498" y="582" type="curve"/>
			<point x="520" y="467" type="line"/>
			<point x="525" y="463"/>
			<point x="533" y="460"/>
			<point x="539" y="460" type="curve" smooth="yes"/>
			<point x="544" y="460"/>
			<point x="553" y="462"/>
			<point x="556" y="464" type="curve"/>
			<point x="563" y="580" type="line"/>
			<point x="558" y="590"/>
			<point x="543" y="609"/>
			<point x="531" y="619" type="curve"/>
			<point x="486" y="640"/>
			<point x="425" y="655"/>
			<point x="361" y="655" type="curve" smooth="yes"/>
			<point x="173" y="655"/>
			<point x="50" y="525"/>
			<point x="50" y="322" type="curve" smooth="yes"/>
			<point x="50" y="116"/>
			<point x="176" y="-10"/>
			<point x="366" y="-10" type="curve" smooth="yes"/>
			<point x="422" y="-10"/>
			<point x="483" y="1"/>
			<point x="545" y="25" type="curve"/>
			<point x="557" y="35"/>
			<point x="567" y="48"/>
			<point x="573" y="58" type="curve"/>
		</contour>
	</outline>
</glyph>
<glyph name="I" format="1">
	<unicode hex="0049"/>
	<advance width="306"/>
	<outline>
		<contour>
			<point x="258" y="0" type="line"/>
			<point x="260" y="8" type="line" smooth="yes"/>
			<point x="263" y="18"/>
			<point x="265" y="28"/>
			<point x="265" y="32" type="curve" smooth="yes"/>
			<point x="265" y="41"/>
			<point x="260" y="46"/>
			<point x="249" y="46" type="curve" smooth="yes"/>
			<point x="181" y="46" type="line"/>
			<point x="181" y="601" type="line"/>
			<point x="258" y="609" type="line"/>
			<point x="262" y="614"/>
			<point x="265" y="622"/>
			<point x="265" y="629" type="curve" smooth="yes"/>
			<point x="265" y="633"/>
			<point x="263" y="642"/>
			<point x="261" y="645" type="curve"/>
			<point x="48" y="645" type="line"/>
			<point x="46" y="637" type="line" smooth="yes"/>
			<point x="43" y="627"/>
			<point x="41" y="617"/>
			<point x="41" y="613" type="curve" smooth="yes"/>
			<point x="41" y="604"/>
			<point x="46" y="599"/>
			<point x="57" y="599" type="curve" smooth="yes"/>
			<point x="125" y="599" type="line"/>
			<point x="125" y="44" type="line"/>
			<point x="48" y="36" type="line"/>
			<point x="44" y="31"/>
			<point x="41" y="23"/>
			<point x="41" y="16" type="curve" smooth="yes"/>
			<point x="41" y="12"/>
			<point x="43" y="3"/>
			<point x="45" y="0" type="curve"/>
		</contour>
		<contour>
			<point name="top.UC" x="153" y="670" type="move"/>
		</contour>
		<contour>
			<point name="bottom.UC" x="153" y="-40" type="move"/>
		</contour>
		<contour>
			<point name="ogonek.UC" x="240" y="-40" type="move"/>
		</contour>
	</outline>
</glyph>
<glyph name="K" format="1">
	<unicode hex="004B"/>
	<advance width="662"/>
	<outline>
		<contour>
			<point x="635" y="0" type="line"/>
			<point x="637" y="8" type="line" smooth="yes"/>
			<point x="640" y="18"/>
			<point x="642" y="28"/>
			<point x="642" y="32" type="curve" smooth="yes"/>
			<point x="642" y="41"/>
			<point x="637" y="46"/>
			<point x="626" y="46" type="curve" smooth="yes"/>
			<point x="571" y="46" type="line"/>
			<point x="338" y="387" type="line"/>
			<point x="527" y="601" type="line"/>
			<point x="590" y="609" type="line"/>
			<point x="594" y="614"/>
			<point x="597" y="622"/>
			<point x="597" y="629" type="curve" smooth="yes"/>
			<point x="597" y="633"/>
			<point x="595" y="642"/>
			<point x="593" y="645" type="curve"/>
			<point x="400" y="645" type="line"/>
			<point x="398" y="637" type="line" smooth="yes"/>
			<point x="395" y="627"/>
			<point x="393" y="617"/>
			<point x="393" y="613" type="curve" smooth="yes"/>
			<point x="393" y="604"/>
			<point x="398" y="599"/>
			<point x="409" y="599" type="curve" smooth="yes"/>
			<point x="462" y="599" type="line"/>
			<point x="181" y="274" type="line"/>
			<point x="181" y="601" type="line"/>
			<point x="248" y="609" type="line"/>
			<point x="252" y="614"/>
			<point x="255" y="622"/>
			<point x="255" y="629" type="curve" smooth="yes"/>
			<point x="255" y="633"/>
			<point x="253" y="642"/>
			<point x="251" y="645" type="curve"/>
			<point x="58" y="645" type="line"/>
			<point x="56" y="637" type="line" smooth="yes"/>
			<point x="53" y="627"/>
			<point x="51" y="617"/>
			<point x="51" y="613" type="curve" smooth="yes"/>
			<point x="51" y="604"/>
			<point x="56" y="599"/>
			<point x="67" y="599" type="curve" smooth="yes"/>
			<point x="125" y="599" type="line"/>
			<point x="125" y="44" type="line"/>
			<point x="58" y="36" type="line"/>
			<point x="54" y="31"/>
			<point x="51" y="23"/>
			<point x="51" y="16" type="curve" smooth="yes"/>
			<point x="51" y="12"/>
			<point x="53" y="3"/>
			<point x="55" y="0" type="curve"/>
			<point x="248" y="0" type="line"/>
			<point x="250" y="8" type="line" smooth="yes"/>
			<point x="253" y="18"/>
			<point x="255" y="28"/>
			<point x="255" y="32" type="curve" smooth="yes"/>
			<point x="255" y="41"/>
			<point x="250" y="46"/>
			<point x="239" y="46" type="curve" smooth="yes"/>
			<point x="181" y="46" type="line"/>
			<point x="181" y="208" type="line"/>
			<point x="303" y="347" type="line"/>
			<point x="505" y="44" type="line"/>
			<point x="440" y="36" type="line"/>
			<point x="436" y="31"/>
			<point x="433" y="23"/>
			<point x="433" y="16" type="curve" smooth="yes"/>
			<point x="433" y="12"/>
			<point x="435" y="3"/>
			<point x="437" y="0" type="curve"/>
		</contour>
		<contour>
			<point name="top.UC" x="315" y="670" type="move"/>
		</contour>
		<contour>
			<point name="bottom.UC" x="346" y="-40" type="move"/>
		</contour>
	</outline>
</glyph>
<glyph name="L" format="1">
	<unicode hex="004C"/>
	<advance width="556"/>
	<outline>
		<contour>
			<point x="460" y="46" type="line"/>
			<point x="181" y="46" type="line"/>
			<point x="181" y="601" type="line"/>
			<point x="258" y="609" type="line"/>
			<point x="262" y="614"/>
			<point x="265" y="622"/>
			<point x="265" y="629" type="curve" smooth="yes"/>
			<point x="265" y="633"/>
			<point x="263" y="642"/>
			<point x="261" y="645" type="curve"/>
			<point x="58" y="645" type="line"/>
			<point x="56" y="637" type="line" smooth="yes"/>
			<point x="53" y="627"/>
			<point x="51" y="617"/>
			<point x="51" y="613" type="curve" smooth="yes"/>
			<point x="51" y="604"/>
			<point x="56" y="599"/>
			<point x="67" y="599" type="curve" smooth="yes"/>
			<point x="125" y="599" type="line"/>
			<point x="125" y="44" type="line"/>
			<point x="58" y="36" type="line"/>
			<point x="54" y="31"/>
			<point x="51" y="23"/>
			<point x="51" y="16" type="curve" smooth="yes"/>
			<point x="51" y="12"/>
			<point x="53" y="3"/>
			<point x="55" y="0" type="curve"/>
			<point x="495" y="0" type="line"/>
			<point x="504" y="7"/>
			<point x="513" y="17"/>
			<point x="519" y="26" type="curve"/>
			<point x="521" y="163" type="line"/>
			<point x="518" y="165"/>
			<point x="509" y="167"/>
			<point x="505" y="167" type="curve" smooth="yes"/>
			<point x="498" y="167"/>
			<point x="490" y="164"/>
			<point x="485" y="160" type="curve"/>
		</contour>
	</outline>
</glyph>
<glyph name="N" format="1">
	<unicode hex="004E"/>
	<advance width="706"/>
	<outline>
		<contour>
			<point x="58" y="645" type="line"/>
			<point x="56" y="637" type="line" smooth="yes"/>
			<point x="53" y="627"/>
			<point x="51" y="617"/>
			<point x="51" y="613" type="curve" smooth="yes"/>
			<point x="51" y="604"/>
			<point x="56" y="599"/>
			<point x="67" y="599" type="curve" smooth="yes"/>
			<point x="125" y="599" type="line"/>
			<point x="125" y="44" type="line"/>
			<point x="58" y="36" type="line"/>
			<point x="54" y="31"/>
			<point x="51" y="23"/>
			<point x="51" y="16" type="curve" smooth="yes"/>
			<point x="51" y="12"/>
			<point x="53" y="3"/>
			<point x="55" y="0" type="curve"/>
			<point x="244" y="0" type="line"/>
			<point x="246" y="8" type="line" smooth="yes"/>
			<point x="249" y="18"/>
			<point x="251" y="28"/>
			<point x="251" y="32" type="curve" smooth="yes"/>
			<point x="251" y="41"/>
			<point x="246" y="46"/>
			<point x="235" y="46" type="curve" smooth="yes"/>
			<point x="177" y="46" type="line"/>
			<point x="177" y="549" type="line"/>
			<point x="552" y="-5" type="line"/>
			<point x="570" y="-5"/>
			<point x="583" y="0"/>
			<point x="592" y="10" type="curve"/>
			<point x="592" y="601" type="line"/>
			<point x="659" y="609" type="line"/>
			<point x="663" y="614"/>
			<point x="666" y="622"/>
			<point x="666" y="629" type="curve" smooth="yes"/>
			<point x="666" y="633"/>
			<point x="664" y="642"/>
			<point x="662" y="645" type="curve"/>
			<point x="473" y="645" type="line"/>
			<point x="471" y="637" type="line" smooth="yes"/>
			<point x="468" y="627"/>
			<point x="466" y="617"/>
			<point x="466" y="613" type="curve" smooth="yes"/>
			<point x="466" y="604"/>
			<point x="471" y="599"/>
			<point x="482" y="599" type="curve" smooth="yes"/>
			<point x="540" y="599" type="line"/>
			<point x="540" y="109" type="line"/>
			<point x="177" y="645" type="line"/>
		</contour>
	</outline>
</glyph>
<glyph name="P" format="1">
	<unicode hex="0050"/>
	<advance width="566"/>
	<outline>
		<contour>
			<point x="298" y="0" type="line"/>
			<point x="300" y="8" type="line" smooth="yes"/>
			<point x="303" y="18"/>
			<point x="305" y="28"/>
			<point x="305" y="32" type="curve" smooth="yes"/>
			<point x="305" y="41"/>
			<point x="300" y="46"/>
			<point x="289" y="46" type="curve" smooth="yes"/>
			<point x="181" y="46" type="line"/>
			<point x="181" y="253" type="line"/>
			<point x="307" y="253" type="line" smooth="yes"/>
			<point x="474" y="253"/>
			<point x="535" y="361"/>
			<point x="535" y="449" type="curve" smooth="yes"/>
			<point x="535" y="537"/>
			<point x="474" y="645"/>
			<point x="307" y="645" type="curve" smooth="yes"/>
			<point x="58" y="645" type="line"/>
			<point x="56" y="637" type="line" smooth="yes"/>
			<point x="53" y="627"/>
			<point x="51" y="617"/>
			<point x="51" y="613" type="curve" smooth="yes"/>
			<point x="51" y="604"/>
			<point x="56" y="599"/>
			<point x="67" y="599" type="curve" smooth="yes"/>
			<point x="125" y="599" type="line"/>
			<point x="125" y="44" type="line"/>
			<point x="58" y="36" type="line"/>
			<point x="54" y="31"/>
			<point x="51" y="23"/>
			<point x="51" y="16" type="curve" smooth="yes"/>
			<point x="51" y="12"/>
			<point x="53" y="3"/>
			<point x="55" y="0" type="curve"/>
		</contour>
		<contour>
			<point x="181" y="299" type="line"/>
			<point x="181" y="599" type="line"/>
			<point x="307" y="599" type="line" smooth="yes"/>
			<point x="411" y="599"/>
			<point x="476" y="541"/>
			<point x="476" y="449" type="curve" smooth="yes"/>
			<point x="476" y="357"/>
			<point x="411" y="299"/>
			<point x="307" y="299" type="curve" smooth="yes"/>
		</contour>
		<contour>
			<point name="top.UC" x="280" y="670" type="move"/>
		</contour>
		<contour>
			<point name="bottom.UC" x="178" y="-40" type="move"/>
		</contour>
	</outline>
</glyph>
<glyph name="R" format="1">
	<unicode hex="0052"/>
	<advance width="625"/>
	<outline>
		<contour>
			<point x="440" y="82" type="line"/>
			<point x="473" y="33"/>
			<point x="501" y="-4"/>
			<point x="550" y="-4" type="curve" smooth="yes"/>
			<point x="568" y="-4"/>
			<point x="591" y="0"/>
			<point x="615" y="10" type="curve"/>
			<point x="614" y="25"/>
			<point x="611" y="36"/>
			<point x="604" y="45" type="curve"/>
			<point x="596" y="44"/>
			<point x="591" y="43"/>
			<point x="581" y="43" type="curve" smooth="yes"/>
			<point x="533" y="43"/>
			<point x="525" y="56"/>
			<point x="497" y="96" type="curve"/>
			<point x="379" y="279" type="line"/>
			<point x="484" y="304"/>
			<point x="524" y="392"/>
			<point x="524" y="459" type="curve" smooth="yes"/>
			<point x="524" y="537"/>
			<point x="470" y="645"/>
			<point x="320" y="645" type="curve" smooth="yes"/>
			<point x="58" y="645" type="line"/>
			<point x="56" y="637" type="line" smooth="yes"/>
			<point x="53" y="627"/>
			<point x="51" y="617"/>
			<point x="51" y="613" type="curve" smooth="yes"/>
			<point x="51" y="604"/>
			<point x="56" y="599"/>
			<point x="67" y="599" type="curve" smooth="yes"/>
			<point x="125" y="599" type="line"/>
			<point x="125" y="44" type="line"/>
			<point x="58" y="36" type="line"/>
			<point x="54" y="31"/>
			<point x="51" y="23"/>
			<point x="51" y="16" type="curve" smooth="yes"/>
			<point x="51" y="12"/>
			<point x="53" y="3"/>
			<point x="55" y="0" type="curve"/>
			<point x="248" y="0" type="line"/>
			<point x="250" y="8" type="line" smooth="yes"/>
			<point x="253" y="18"/>
			<point x="255" y="28"/>
			<point x="255" y="32" type="curve" smooth="yes"/>
			<point x="255" y="41"/>
			<point x="250" y="46"/>
			<point x="239" y="46" type="curve" smooth="yes"/>
			<point x="181" y="46" type="line"/>
			<point x="181" y="273" type="line"/>
			<point x="320" y="273" type="line"/>
			<point x="322" y="273" type="line"/>
		</contour>
		<contour>
			<point x="181" y="599" type="line"/>
			<point x="320" y="599" type="line" smooth="yes"/>
			<point x="409" y="599"/>
			<point x="465" y="538"/>
			<point x="465" y="459" type="curve" smooth="yes"/>
			<point x="465" y="380"/>
			<point x="409" y="319"/>
			<point x="320" y="319" type="curve" smooth="yes"/>
			<point x="181" y="319" type="line"/>
		</contour>
	</outline>
</glyph>
<glyph name="S" format="1">
	<unicode hex="0053"/>
	<advance width="548"/>
	<outline>
		<contour>
			<point x="270" y="37" type="curve" smooth="yes"/>
			<point x="211" y="37"/>
			<point x="163" y="52"/>
			<point x="126" y="73" type="curve"/>
			<point x="103" y="193" type="line"/>
			<point x="98" y="197"/>
			<point x="90" y="200"/>
			<point x="84" y="200" type="curve" smooth="yes"/>
			<point x="79" y="200"/>
			<point x="70" y="198"/>
			<point x="67" y="196" type="curve"/>
			<point x="60" y="80" type="line"/>
			<point x="69" y="65"/>
			<point x="82" y="49"/>
			<point x="92" y="41" type="curve"/>
			<point x="146" y="8"/>
			<point x="199" y="-10"/>
			<point x="271" y="-10" type="curve" smooth="yes"/>
			<point x="410" y="-10"/>
			<point x="503" y="56"/>
			<point x="503" y="166" type="curve" smooth="yes"/>
			<point x="503" y="281"/>
			<point x="401" y="329"/>
			<point x="302" y="358" type="curve" smooth="yes"/>
			<point x="193" y="390"/>
			<point x="130" y="418"/>
			<point x="130" y="496" type="curve" smooth="yes"/>
			<point x="130" y="565"/>
			<point x="195" y="609"/>
			<point x="286" y="609" type="curve" smooth="yes"/>
			<point x="326" y="609"/>
			<point x="365" y="600"/>
			<point x="400" y="585" type="curve"/>
			<point x="423" y="467" type="line"/>
			<point x="428" y="463"/>
			<point x="436" y="460"/>
			<point x="442" y="460" type="curve" smooth="yes"/>
			<point x="447" y="460"/>
			<point x="456" y="462"/>
			<point x="459" y="464" type="curve"/>
			<point x="466" y="580" type="line"/>
			<point x="457" y="595"/>
			<point x="444" y="611"/>
			<point x="434" y="619" type="curve"/>
			<point x="393" y="640"/>
			<point x="344" y="655"/>
			<point x="283" y="655" type="curve" smooth="yes"/>
			<point x="157" y="655"/>
			<point x="73" y="592"/>
			<point x="73" y="496" type="curve" smooth="yes"/>
			<point x="73" y="384"/>
			<point x="167" y="344"/>
			<point x="291" y="306" type="curve" smooth="yes"/>
			<point x="359" y="285"/>
			<point x="445" y="257"/>
			<point x="445" y="166" type="curve" smooth="yes"/>
			<point x="445" y="84"/>
			<point x="374" y="37"/>
		</contour>
	</outline>
</glyph>
<glyph name="T" format="1">
	<unicode hex="0054"/>
	<advance width="636"/>
	<outline>
		<contour>
			<point x="101" y="599" type="line"/>
			<point x="290" y="599" type="line"/>
			<point x="290" y="44" type="line"/>
			<point x="203" y="36" type="line"/>
			<point x="199" y="31"/>
			<point x="196" y="23"/>
			<point x="196" y="16" type="curve" smooth="yes"/>
			<point x="196" y="12"/>
			<point x="198" y="3"/>
			<point x="200" y="0" type="curve"/>
			<point x="433" y="0" type="line"/>
			<point x="435" y="8" type="line" smooth="yes"/>
			<point x="438" y="18"/>
			<point x="440" y="28"/>
			<point x="440" y="32" type="curve" smooth="yes"/>
			<point x="440" y="41"/>
			<point x="435" y="46"/>
			<point x="424" y="46" type="curve" smooth="yes"/>
			<point x="346" y="46" type="line"/>
			<point x="346" y="599" type="line"/>
			<point x="535" y="599" type="line"/>
			<point x="560" y="490" type="line"/>
			<point x="565" y="486"/>
			<point x="573" y="483"/>
			<point x="580" y="483" type="curve" smooth="yes"/>
			<point x="584" y="483"/>
			<point x="593" y="485"/>
			<point x="596" y="487" type="curve"/>
			<point x="594" y="619" type="line"/>
			<point x="588" y="628"/>
			<point x="579" y="638"/>
			<point x="570" y="645" type="curve"/>
			<point x="66" y="645" type="line"/>
			<point x="57" y="638"/>
			<point x="48" y="628"/>
			<point x="42" y="619" type="curve"/>
			<point x="40" y="487" type="line"/>
			<point x="43" y="485"/>
			<point x="52" y="483"/>
			<point x="56" y="483" type="curve" smooth="yes"/>
			<point x="63" y="483"/>
			<point x="71" y="486"/>
			<point x="76" y="490" type="curve"/>
		</contour>
	</outline>
</glyph>
<glyph name="U" format="1">
	<unicode hex="0055"/>
	<advance width="698"/>
	<outline>
		<contour>
			<point x="530" y="599" type="line"/>
			<point x="530" y="221" type="line" smooth="yes"/>
			<point x="530" y="115"/>
			<point x="470" y="37"/>
			<point x="349" y="37" type="curve" smooth="yes"/>
			<point x="233" y="37"/>
			<point x="171" y="115"/>
			<point x="171" y="221" type="curve" smooth="yes"/>
			<point x="171" y="601" type="line"/>
			<point x="238" y="609" type="line"/>
			<point x="242" y="614"/>
			<point x="245" y="622"/>
			<point x="245" y="629" type="curve" smooth="yes"/>
			<point x="245" y="633"/>
			<point x="243" y="642"/>
			<point x="241" y="645" type="curve"/>
			<point x="48" y="645" type="line"/>
			<point x="46" y="637" type="line" smooth="yes"/>
			<point x="43" y="627"/>
			<point x="41" y="617"/>
			<point x="41" y="613" type="curve" smooth="yes"/>
			<point x="41" y="604"/>
			<point x="46" y="599"/>
			<point x="57" y="599" type="curve" smooth="yes"/>
			<point x="115" y="599" type="line"/>
			<point x="115" y="221" type="line" smooth="yes"/>
			<point x="115" y="69"/>
			<point x="218" y="-10"/>
			<point x="349" y="-10" type="curve" smooth="yes"/>
			<point x="480" y="-10"/>
			<point x="583" y="69"/>
			<point x="583" y="221" type="curve" smooth="yes"/>
			<point x="583" y="601" type="line"/>
			<point x="650" y="609" type="line"/>
			<point x="654" y="614"/>
			<point x="657" y="622"/>
			<point x="657" y="629" type="curve" smooth="yes"/>
			<point x="657" y="633"/>
			<point x="655" y="642"/>
			<point x="653" y="645" type="curve"/>
			<point x="463" y="645" type="line"/>
			<point x="461" y="637" type="line" smooth="yes"/>
			<point x="458" y="627"/>
			<point x="456" y="617"/>
			<point x="456" y="613" type="curve" smooth="yes"/>
			<point x="456" y="604"/>
			<point x="461" y="599"/>
			<point x="472" y="599" type="curve" smooth="yes"/>
		</contour>
		<contour>
			<point name="top.UC" x="349" y="670" type="move"/>
		</contour>
		<contour>
			<point name="bottom.UC" x="349" y="-40" type="move"/>
		</contour>
		<contour>
			<point name="ogonek.UC.round" x="457" y="-40" type="move"/>
		</contour>
	</outline>
</glyph>
<glyph name="V" format="1">
	<unicode hex="0056"/>
	<advance width="644"/>
	<outline>
		<contour>
			<point x="203" y="609" type="line"/>
			<point x="207" y="614"/>
			<point x="210" y="622"/>
			<point x="210" y="629" type="curve" smooth="yes"/>
			<point x="210" y="633"/>
			<point x="208" y="642"/>
			<point x="206" y="645" type="curve"/>
			<point x="10" y="645" type="line"/>
			<point x="8" y="637" type="line" smooth="yes"/>
			<point x="5" y="627"/>
			<point x="3" y="617"/>
			<point x="3" y="613" type="curve" smooth="yes"/>
			<point x="3" y="604"/>
			<point x="8" y="599"/>
			<point x="19" y="599" type="curve" smooth="yes"/>
			<point x="77" y="599" type="line"/>
			<point x="300" y="-2" type="line"/>
			<point x="305" y="-3"/>
			<point x="315" y="-4"/>
			<point x="322" y="-4" type="curve" smooth="yes"/>
			<point x="329" y="-4"/>
			<point x="339" y="-3"/>
			<point x="344" y="-2" type="curve"/>
			<point x="568" y="601" type="line"/>
			<point x="635" y="609" type="line"/>
			<point x="639" y="614"/>
			<point x="642" y="622"/>
			<point x="642" y="629" type="curve" smooth="yes"/>
			<point x="642" y="633"/>
			<point x="640" y="642"/>
			<point x="638" y="645" type="curve"/>
			<point x="447" y="645" type="line"/>
			<point x="445" y="637" type="line" smooth="yes"/>
			<point x="442" y="627"/>
			<point x="440" y="617"/>
			<point x="440" y="613" type="curve" smooth="yes"/>
			<point x="440" y="604"/>
			<point x="445" y="599"/>
			<point x="456" y="599" type="curve" smooth="yes"/>
			<point x="514" y="599" type="line"/>
			<point x="325" y="82" type="line"/>
			<point x="136" y="601" type="line"/>
		</contour>
		<contour>
			<point name="top.UC" x="324" y="670" type="move"/>
		</contour>
		<contour>
			<point name="bottom.UC" x="324" y="-40" type="move"/>
		</contour>
	</outline>
</glyph>
<glyph name="X" format="1">
	<unicode hex="0058"/>
	<advance width="652"/>
	<outline>
		<contour>
			<point x="182" y="601" type="line"/>
			<point x="249" y="609" type="line"/>
			<point x="253" y="614"/>
			<point x="256" y="622"/>
			<point x="256" y="629" type="curve" smooth="yes"/>
			<point x="256" y="633"/>
			<point x="254" y="642"/>
			<point x="252" y="645" type="curve"/>
			<point x="52" y="645" type="line"/>
			<point x="50" y="637" type="line" smooth="yes"/>
			<point x="47" y="627"/>
			<point x="45" y="617"/>
			<point x="45" y="613" type="curve" smooth="yes"/>
			<point x="45" y="604"/>
			<point x="50" y="599"/>
			<point x="61" y="599" type="curve" smooth="yes"/>
			<point x="119" y="599" type="line"/>
			<point x="293" y="333" type="line"/>
			<point x="94" y="44" type="line"/>
			<point x="27" y="36" type="line"/>
			<point x="23" y="31"/>
			<point x="20" y="23"/>
			<point x="20" y="16" type="curve" smooth="yes"/>
			<point x="20" y="12"/>
			<point x="22" y="3"/>
			<point x="24" y="0" type="curve"/>
			<point x="219" y="0" type="line"/>
			<point x="221" y="8" type="line" smooth="yes"/>
			<point x="224" y="18"/>
			<point x="226" y="28"/>
			<point x="226" y="32" type="curve" smooth="yes"/>
			<point x="226" y="41"/>
			<point x="221" y="46"/>
			<point x="210" y="46" type="curve" smooth="yes"/>
			<point x="152" y="46" type="line"/>
			<point x="323" y="297" type="line"/>
			<point x="495" y="44" type="line"/>
			<point x="428" y="36" type="line"/>
			<point x="424" y="31"/>
			<point x="421" y="23"/>
			<point x="421" y="16" type="curve" smooth="yes"/>
			<point x="421" y="12"/>
			<point x="423" y="3"/>
			<point x="425" y="0" type="curve"/>
			<point x="625" y="0" type="line"/>
			<point x="627" y="8" type="line" smooth="yes"/>
			<point x="630" y="18"/>
			<point x="632" y="28"/>
			<point x="632" y="32" type="curve" smooth="yes"/>
			<point x="632" y="41"/>
			<point x="627" y="46"/>
			<point x="616" y="46" type="curve" smooth="yes"/>
			<point x="558" y="46" type="line"/>
			<point x="360" y="334" type="line"/>
			<point x="536" y="601" type="line"/>
			<point x="603" y="609" type="line"/>
			<point x="607" y="614"/>
			<point x="610" y="622"/>
			<point x="610" y="629" type="curve" smooth="yes"/>
			<point x="610" y="633"/>
			<point x="608" y="642"/>
			<point x="606" y="645" type="curve"/>
			<point x="411" y="645" type="line"/>
			<point x="409" y="637" type="line" smooth="yes"/>
			<point x="406" y="627"/>
			<point x="404" y="617"/>
			<point x="404" y="613" type="curve" smooth="yes"/>
			<point x="404" y="604"/>
			<point x="409" y="599"/>
			<point x="420" y="599" type="curve" smooth="yes"/>
			<point x="478" y="599" type="line"/>
			<point x="330" y="371" type="line"/>
		</contour>
		<contour>
			<point name="top.UC" x="326" y="670" type="move"/>
		</contour>
		<contour>
			<point name="bottom.UC" x="326" y="-40" type="move"/>
		</contour>
	</outline>
</glyph>
<glyph name="Y" format="1">
	<unicode hex="0059"/>
	<advance width="594"/>
	<outline>
		<contour>
			<point x="195" y="609" type="line"/>
			<point x="199" y="614"/>
			<point x="202" y="622"/>
			<point x="202" y="629" type="curve" smooth="yes"/>
			<point x="202" y="633"/>
			<point x="200" y="642"/>
			<point x="198" y="645" type="curve"/>
			<point x="0" y="645" type="line"/>
			<point x="-2" y="637" type="line" smooth="yes"/>
			<point x="-5" y="627"/>
			<point x="-7" y="617"/>
			<point x="-7" y="613" type="curve" smooth="yes"/>
			<point x="-7" y="604"/>
			<point x="-2" y="599"/>
			<point x="9" y="599" type="curve" smooth="yes"/>
			<point x="67" y="599" type="line"/>
			<point x="269" y="230" type="line"/>
			<point x="269" y="44" type="line"/>
			<point x="182" y="36" type="line"/>
			<point x="178" y="31"/>
			<point x="175" y="23"/>
			<point x="175" y="16" type="curve" smooth="yes"/>
			<point x="175" y="12"/>
			<point x="177" y="3"/>
			<point x="179" y="0" type="curve"/>
			<point x="412" y="0" type="line"/>
			<point x="414" y="8" type="line" smooth="yes"/>
			<point x="417" y="18"/>
			<point x="419" y="28"/>
			<point x="419" y="32" type="curve" smooth="yes"/>
			<point x="419" y="41"/>
			<point x="414" y="46"/>
			<point x="403" y="46" type="curve" smooth="yes"/>
			<point x="325" y="46" type="line"/>
			<point x="325" y="230" type="line"/>
			<point x="528" y="601" type="line"/>
			<point x="595" y="609" type="line"/>
			<point x="599" y="614"/>
			<point x="602" y="622"/>
			<point x="602" y="629" type="curve" smooth="yes"/>
			<point x="602" y="633"/>
			<point x="600" y="642"/>
			<point x="598" y="645" type="curve"/>
			<point x="405" y="645" type="line"/>
			<point x="403" y="637" type="line" smooth="yes"/>
			<point x="400" y="627"/>
			<point x="398" y="617"/>
			<point x="398" y="613" type="curve" smooth="yes"/>
			<point x="398" y="604"/>
			<point x="403" y="599"/>
			<point x="414" y="599" type="curve" smooth="yes"/>
			<point x="472" y="599" type="line"/>
			<point x="301" y="278" type="line"/>
			<point x="128" y="601" type="line"/>
		</contour>
	</outline>
</glyph>
<glyph name="Z" format="1">
	<unicode hex="005A"/>
	<advance width="557"/>
	<outline>
		<contour>
			<point x="496" y="614" type="line"/>
			<point x="492" y="624"/>
			<point x="485" y="636"/>
			<point x="477" y="645" type="curve"/>
			<point x="95" y="645" type="line"/>
			<point x="86" y="638"/>
			<point x="77" y="628"/>
			<point x="71" y="619" type="curve"/>
			<point x="69" y="487" type="line"/>
			<point x="72" y="485"/>
			<point x="81" y="483"/>
			<point x="85" y="483" type="curve" smooth="yes"/>
			<point x="92" y="483"/>
			<point x="100" y="486"/>
			<point x="105" y="490" type="curve"/>
			<point x="130" y="599" type="line"/>
			<point x="423" y="599" type="line"/>
			<point x="42" y="31" type="line"/>
			<point x="46" y="21"/>
			<point x="53" y="9"/>
			<point x="61" y="0" type="curve"/>
			<point x="486" y="0" type="line"/>
			<point x="495" y="7"/>
			<point x="504" y="17"/>
			<point x="510" y="26" type="curve"/>
			<point x="512" y="163" type="line"/>
			<point x="509" y="165"/>
			<point x="500" y="167"/>
			<point x="496" y="167" type="curve" smooth="yes"/>
			<point x="489" y="167"/>
			<point x="481" y="164"/>
			<point x="476" y="160" type="curve"/>
			<point x="451" y="46" type="line"/>
			<point x="115" y="46" type="line"/>
		</contour>
		<contour>
			<point name="top.UC" x="282" y="670" type="move"/>
		</contour>
		<contour>
			<point name="bottom.UC" x="277" y="-40" type="move"/>
		</contour>
	</outline>
</glyph>
<glyph name="bracketleft" format="1">
	<unicode hex="005B"/>
	<advance width="352"/>
	<outline>
		<contour>
			<point x="125" y="-81" type="line"/>
			<point x="131" y="-90"/>
			<point x="140" y="-100"/>
			<point x="149" y="-107" type="curve"/>
			<point x="319" y="-107" type="line"/>
			<point x="321" y="-104"/>
			<point x="323" y="-95"/>
			<point x="323" y="-91" type="curve" smooth="yes"/>
			<point x="323" y="-84"/>
			<point x="320" y="-76"/>
			<point x="316" y="-71" type="curve"/>
			<point x="181" y="-61" type="line"/>
			<point x="181" y="615" type="line"/>
			<point x="316" y="625" type="line"/>
			<point x="320" y="630"/>
			<point x="323" y="638"/>
			<point x="323" y="645" type="curve" smooth="yes"/>
			<point x="323" y="649"/>
			<point x="321" y="658"/>
			<point x="319" y="661" type="curve"/>
			<point x="149" y="661" type="line"/>
			<point x="140" y="654"/>
			<point x="131" y="644"/>
			<point x="125" y="635" type="curve"/>
		</contour>
	</outline>
</glyph>
<glyph name="bracketright" format="1">
	<unicode hex="005D"/>
	<advance width="352"/>
	<outline>
		<contour>
			<point x="227" y="636" type="line"/>
			<point x="221" y="645"/>
			<point x="212" y="655"/>
			<point x="203" y="662" type="curve"/>
			<point x="33" y="662" type="line"/>
			<point x="31" y="659"/>
			<point x="29" y="650"/>
			<point x="29" y="646" type="curve" smooth="yes"/>
			<point x="29" y="639"/>
			<point x="32" y="631"/>
			<point x="36" y="626" type="curve"/>
			<point x="171" y="616" type="line"/>
			<point x="171" y="-60" type="line"/>
			<point x="36" y="-70" type="line"/>
			<point x="32" y="-75"/>
			<point x="29" y="-83"/>
			<point x="29" y="-90" type="curve" smooth="yes"/>
			<point x="29" y="-94"/>
			<point x="31" y="-103"/>
			<point x="33" y="-106" type="curve"/>
			<point x="203" y="-106" type="line"/>
			<point x="212" y="-99"/>
			<point x="221" y="-89"/>
			<point x="227" y="-80" type="curve"/>
		</contour>
	</outline>
</glyph>
<glyph name="asciicircum" format="1">
	<unicode hex="005E"/>
	<advance width="580"/>
	<outline>
		<contour>
			<point x="439" y="223" type="line"/>
			<point x="455" y="223"/>
			<point x="478" y="228"/>
			<point x="487" y="235" type="curve"/>
			<point x="311" y="645" type="line"/>
			<point x="307" y="646"/>
			<point x="296" y="647"/>
			<point x="290" y="647" type="curve" smooth="yes"/>
			<point x="284" y="647"/>
			<point x="273" y="646"/>
			<point x="269" y="645" type="curve"/>
			<point x="93" y="235" type="line"/>
			<point x="102" y="228"/>
			<point x="123" y="223"/>
			<point x="139" y="223" type="curve"/>
			<point x="289" y="571" type="line"/>
		</contour>
	</outline>
</glyph>
<glyph name="grave" format="1">
	<unicode hex="0060"/>
	<advance width="616"/>
	<outline>
		<contour>
			<point x="377" y="597" type="line"/>
			<point x="388" y="605"/>
			<point x="395" y="614"/>
			<point x="401" y="625" type="curve"/>
			<point x="306" y="718" type="line"/>
			<point x="251" y="765" type="line"/>
			<point x="235" y="750"/>
			<point x="226" y="741"/>
			<point x="215" y="723" type="curve"/>
			<point x="270" y="675" type="line"/>
		</contour>
	</outline>
</glyph>
<glyph name="a" format="1">
	<unicode hex="0061"/>
	<advance width="523"/>
	<outline>
		<contour>
			<point x="496" y="14" type="line"/>
			<point x="500" y="21"/>
			<point x="502" y="27"/>
			<point x="502" y="33" type="curve" smooth="yes"/>
			<point x="502" y="37"/>
			<point x="501" y="42"/>
			<point x="499" y="47" type="curve"/>
			<point x="423" y="47" type="line"/>
			<point x="423" y="311" type="line" smooth="yes"/>
			<point x="423" y="444"/>
			<point x="360" y="510"/>
			<point x="232" y="510" type="curve" smooth="yes"/>
			<point x="176" y="510"/>
			<point x="114" y="490"/>
			<point x="62" y="454" type="curve"/>
			<point x="62" y="444"/>
			<point x="71" y="425"/>
			<point x="81" y="417" type="curve"/>
			<point x="126" y="447"/>
			<point x="184" y="465"/>
			<point x="232" y="465" type="curve" smooth="yes"/>
			<point x="323" y="465"/>
			<point x="371" y="412"/>
			<point x="371" y="311" type="curve" smooth="yes"/>
			<point x="371" y="271" type="line"/>
			<point x="327" y="277"/>
			<point x="286" y="280"/>
			<point x="255" y="280" type="curve" smooth="yes"/>
			<point x="118" y="280"/>
			<point x="39" y="225"/>
			<point x="39" y="130" type="curve" smooth="yes"/>
			<point x="39" y="47"/>
			<point x="101" y="-10"/>
			<point x="193" y="-10" type="curve" smooth="yes"/>
			<point x="268" y="-10"/>
			<point x="332" y="26"/>
			<point x="374" y="89" type="curve"/>
			<point x="369" y="17" type="line"/>
			<point x="376" y="9"/>
			<point x="386" y="1"/>
			<point x="397" y="-5" type="curve"/>
		</contour>
		<contour>
			<point x="198" y="34" type="curve" smooth="yes"/>
			<point x="135" y="34"/>
			<point x="94" y="73"/>
			<point x="94" y="132" type="curve" smooth="yes"/>
			<point x="94" y="201"/>
			<point x="150" y="237"/>
			<point x="255" y="237" type="curve" smooth="yes"/>
			<point x="287" y="237"/>
			<point x="328" y="233"/>
			<point x="371" y="228" type="curve"/>
			<point x="371" y="188" type="line" smooth="yes"/>
			<point x="371" y="109"/>
			<point x="286" y="34"/>
		</contour>
		<contour>
			<point name="top.LC" x="235" y="530" type="move"/>
		</contour>
		<contour>
			<point name="bottom.LC" x="247" y="-20" type="move"/>
		</contour>
		<contour>
			<point name="ogonek.LC" x="478" y="-20" type="move"/>
		</contour>
	</outline>
</glyph>
<glyph name="b" format="1">
	<unicode hex="0062"/>
	<advance width="563"/>
	<outline>
		<contour>
			<point x="144" y="650" type="line"/>
			<point x="136" y="661"/>
			<point x="125" y="669"/>
			<point x="110" y="675" type="curve"/>
			<point x="12" y="656" type="line"/>
			<point x="8" y="649"/>
			<point x="6" y="643"/>
			<point x="6" y="637" type="curve" smooth="yes"/>
			<point x="6" y="633"/>
			<point x="7" y="628"/>
			<point x="9" y="623" type="curve"/>
			<point x="90" y="623" type="line"/>
			<point x="90" y="0" type="line"/>
			<point x="101" y="-2"/>
			<point x="113" y="-2"/>
			<point x="124" y="0" type="curve"/>
			<point x="138" y="46" type="line"/>
			<point x="180" y="9"/>
			<point x="230" y="-10"/>
			<point x="285" y="-10" type="curve" smooth="yes"/>
			<point x="427" y="-10"/>
			<point x="520" y="95"/>
			<point x="520" y="255" type="curve" smooth="yes"/>
			<point x="520" y="405"/>
			<point x="437" y="510"/>
			<point x="320" y="510" type="curve" smooth="yes"/>
			<point x="247" y="510"/>
			<point x="181" y="467"/>
			<point x="144" y="399" type="curve"/>
		</contour>
		<contour>
			<point x="463" y="258" type="curve" smooth="yes"/>
			<point x="463" y="119"/>
			<point x="395" y="35"/>
			<point x="285" y="35" type="curve" smooth="yes"/>
			<point x="237" y="35"/>
			<point x="188" y="55"/>
			<point x="144" y="93" type="curve"/>
			<point x="144" y="266" type="line" smooth="yes"/>
			<point x="144" y="373"/>
			<point x="223" y="466"/>
			<point x="315" y="466" type="curve" smooth="yes"/>
			<point x="404" y="466"/>
			<point x="463" y="383"/>
		</contour>
	</outline>
</glyph>
<glyph name="c" format="1">
	<unicode hex="0063"/>
	<advance width="488"/>
	<outline>
		<contour>
			<point x="396" y="342" type="line"/>
			<point x="402" y="338"/>
			<point x="409" y="336"/>
			<point x="415" y="336" type="curve" smooth="yes"/>
			<point x="420" y="336"/>
			<point x="425" y="337"/>
			<point x="430" y="339" type="curve"/>
			<point x="428" y="453" type="line"/>
			<point x="423" y="464"/>
			<point x="416" y="475"/>
			<point x="409" y="483" type="curve"/>
			<point x="375" y="499"/>
			<point x="319" y="510"/>
			<point x="274" y="510" type="curve" smooth="yes"/>
			<point x="135" y="510"/>
			<point x="43" y="406"/>
			<point x="43" y="250" type="curve" smooth="yes"/>
			<point x="43" y="94"/>
			<point x="135" y="-10"/>
			<point x="275" y="-10" type="curve" smooth="yes"/>
			<point x="332" y="-10"/>
			<point x="390" y="5"/>
			<point x="438" y="31" type="curve"/>
			<point x="436" y="44"/>
			<point x="431" y="57"/>
			<point x="421" y="68" type="curve"/>
			<point x="386" y="50"/>
			<point x="331" y="38"/>
			<point x="284" y="38" type="curve" smooth="yes"/>
			<point x="172" y="38"/>
			<point x="100" y="120"/>
			<point x="100" y="250" type="curve" smooth="yes"/>
			<point x="100" y="377"/>
			<point x="171" y="465"/>
			<point x="274" y="465" type="curve" smooth="yes"/>
			<point x="310" y="465"/>
			<point x="345" y="459"/>
			<point x="373" y="448" type="curve"/>
		</contour>
		<contour>
			<point name="top.LC" x="265" y="530" type="move"/>
		</contour>
		<contour>
			<point name="bottom.LC" x="265" y="-20" type="move"/>
		</contour>
	</outline>
</glyph>
<glyph name="e" format="1">
	<unicode hex="0065"/>
	<advance width="498"/>
	<outline>
		<contour>
			<point x="98" y="250" type="curve"/>
			<point x="98" y="261" type="line"/>
			<point x="434" y="261" type="line"/>
			<point x="441" y="269"/>
			<point x="448" y="280"/>
			<point x="453" y="291" type="curve"/>
			<point x="453" y="436"/>
			<point x="391" y="510"/>
			<point x="269" y="510" type="curve" smooth="yes"/>
			<point x="131" y="510"/>
			<point x="43" y="408"/>
			<point x="43" y="250" type="curve" smooth="yes"/>
			<point x="43" y="94"/>
			<point x="135" y="-10"/>
			<point x="275" y="-10" type="curve" smooth="yes"/>
			<point x="334" y="-10"/>
			<point x="396" y="7"/>
			<point x="449" y="37" type="curve"/>
			<point x="447" y="50"/>
			<point x="442" y="63"/>
			<point x="432" y="74" type="curve"/>
			<point x="397" y="55"/>
			<point x="336" y="38"/>
			<point x="284" y="38" type="curve" smooth="yes"/>
			<point x="171" y="38"/>
			<point x="98" y="121"/>
		</contour>
		<contour>
			<point x="269" y="466" type="curve" smooth="yes"/>
			<point x="355" y="466"/>
			<point x="400" y="410"/>
			<point x="400" y="304" type="curve"/>
			<point x="102" y="304" type="line"/>
			<point x="118" y="403"/>
			<point x="181" y="466"/>
		</contour>
		<contour>
			<point name="top.LC" x="260" y="530" type="move"/>
		</contour>
		<contour>
			<point name="bottom.LC" x="270" y="-20" type="move"/>
		</contour>
		<contour>
			<point name="ogonek.LC.round" x="418" y="-20" type="move"/>
		</contour>
	</outline>
</glyph>
<glyph name="g" format="1">
	<unicode hex="0067"/>
	<advance width="520"/>
	<outline>
		<contour>
			<point x="477" y="441" type="line"/>
			<point x="479" y="453" type="line" smooth="yes"/>
			<point x="481" y="464"/>
			<point x="482" y="471"/>
			<point x="482" y="474" type="curve" smooth="yes"/>
			<point x="482" y="483"/>
			<point x="477" y="488"/>
			<point x="466" y="488" type="curve" smooth="yes"/>
			<point x="454" y="488" type="line"/>
			<point x="363" y="475" type="line"/>
			<point x="334" y="497"/>
			<point x="295" y="510"/>
			<point x="249" y="510" type="curve" smooth="yes"/>
			<point x="140" y="510"/>
			<point x="73" y="440"/>
			<point x="73" y="345" type="curve" smooth="yes"/>
			<point x="73" y="293"/>
			<point x="92" y="249"/>
			<point x="128" y="220" type="curve"/>
			<point x="94" y="190"/>
			<point x="79" y="161"/>
			<point x="79" y="129" type="curve" smooth="yes"/>
			<point x="79" y="107"/>
			<point x="88" y="87"/>
			<point x="104" y="74" type="curve"/>
			<point x="50" y="43"/>
			<point x="17" y="2"/>
			<point x="17" y="-49" type="curve" smooth="yes"/>
			<point x="17" y="-143"/>
			<point x="106" y="-195"/>
			<point x="242" y="-195" type="curve" smooth="yes"/>
			<point x="384" y="-195"/>
			<point x="480" y="-133"/>
			<point x="480" y="-36" type="curve" smooth="yes"/>
			<point x="480" y="47"/>
			<point x="411" y="97"/>
			<point x="300" y="97" type="curve" smooth="yes"/>
			<point x="186" y="97" type="line" smooth="yes"/>
			<point x="149" y="97"/>
			<point x="130" y="112"/>
			<point x="130" y="141" type="curve" smooth="yes"/>
			<point x="130" y="162"/>
			<point x="139" y="182"/>
			<point x="157" y="200" type="curve"/>
			<point x="183" y="187"/>
			<point x="214" y="180"/>
			<point x="249" y="180" type="curve" smooth="yes"/>
			<point x="358" y="180"/>
			<point x="425" y="250"/>
			<point x="425" y="345" type="curve" smooth="yes"/>
			<point x="425" y="381"/>
			<point x="415" y="414"/>
			<point x="396" y="441" type="curve"/>
		</contour>
		<contour>
			<point x="165" y="54" type="curve"/>
			<point x="300" y="54" type="line" smooth="yes"/>
			<point x="377" y="54"/>
			<point x="425" y="21"/>
			<point x="425" y="-36" type="curve" smooth="yes"/>
			<point x="425" y="-106"/>
			<point x="351" y="-151"/>
			<point x="242" y="-151" type="curve" smooth="yes"/>
			<point x="138" y="-151"/>
			<point x="72" y="-110"/>
			<point x="72" y="-46" type="curve" smooth="yes"/>
			<point x="72" y="-7"/>
			<point x="96" y="29"/>
			<point x="139" y="57" type="curve"/>
			<point x="147" y="55"/>
			<point x="156" y="54"/>
		</contour>
		<contour>
			<point x="249" y="223" type="curve" smooth="yes"/>
			<point x="171" y="223"/>
			<point x="124" y="272"/>
			<point x="124" y="345" type="curve" smooth="yes"/>
			<point x="124" y="418"/>
			<point x="171" y="467"/>
			<point x="249" y="467" type="curve" smooth="yes"/>
			<point x="327" y="467"/>
			<point x="374" y="418"/>
			<point x="374" y="345" type="curve" smooth="yes"/>
			<point x="374" y="272"/>
			<point x="327" y="223"/>
		</contour>
	</outline>
</glyph>
<glyph name="i" format="1">
	<unicode hex="0069"/>
	<advance width="284"/>
	<outline>
		<contour>
			<point x="115" y="41" type="line"/>
			<point x="37" y="33" type="line"/>
			<point x="33" y="26"/>
			<point x="31" y="20"/>
			<point x="31" y="14" type="curve" smooth="yes"/>
			<point x="31" y="10"/>
			<point x="32" y="5"/>
			<point x="34" y="0" type="curve"/>
			<point x="247" y="0" type="line"/>
			<point x="249" y="8" type="line" smooth="yes"/>
			<point x="252" y="19"/>
			<point x="253" y="26"/>
			<point x="253" y="29" type="curve" smooth="yes"/>
			<point x="253" y="38"/>
			<point x="248" y="43"/>
			<point x="237" y="43" type="curve" smooth="yes"/>
			<point x="169" y="43" type="line"/>
			<point x="169" y="483" type="line"/>
			<point x="162" y="491"/>
			<point x="152" y="499"/>
			<point x="141" y="505" type="curve"/>
			<point x="37" y="486" type="line"/>
			<point x="33" y="479"/>
			<point x="31" y="473"/>
			<point x="31" y="467" type="curve" smooth="yes"/>
			<point x="31" y="463"/>
			<point x="32" y="458"/>
			<point x="34" y="453" type="curve"/>
			<point x="115" y="453" type="line"/>
		</contour>
		<contour>
			<point x="127" y="590" type="curve" smooth="yes"/>
			<point x="155" y="590"/>
			<point x="172" y="607"/>
			<point x="172" y="632" type="curve" smooth="yes"/>
			<point x="172" y="657"/>
			<point x="155" y="674"/>
			<point x="127" y="674" type="curve" smooth="yes"/>
			<point x="99" y="674"/>
			<point x="82" y="657"/>
			<point x="82" y="632" type="curve" smooth="yes"/>
			<point x="82" y="607"/>
			<point x="99" y="590"/>
		</contour>
		<contour>
			<point name="top.ASC" x="127" y="700" type="move"/>
		</contour>
		<contour>
			<point name="bottom.LC" x="142" y="-20" type="move"/>
		</contour>
		<contour>
			<point name="ogonek.LC" x="229" y="-20" type="move"/>
		</contour>
	</outline>
</glyph>
<glyph name="j" format="1">
	<unicode hex="006A"/>
	<advance width="234"/>
	<outline>
		<contour>
			<point x="90" y="453" type="line"/>
			<point x="90" y="134" type="line" smooth="yes"/>
			<point x="90" y="-4"/>
			<point x="55" y="-70"/>
			<point x="-65" y="-158" type="curve"/>
			<point x="-61" y="-173"/>
			<point x="-54" y="-183"/>
			<point x="-41" y="-192" type="curve"/>
			<point x="96" y="-104"/>
			<point x="144" y="-15"/>
			<point x="144" y="151" type="curve" smooth="yes"/>
			<point x="144" y="480" type="line"/>
			<point x="136" y="491"/>
			<point x="125" y="499"/>
			<point x="110" y="505" type="curve"/>
			<point x="12" y="486" type="line"/>
			<point x="8" y="479"/>
			<point x="6" y="473"/>
			<point x="6" y="467" type="curve" smooth="yes"/>
			<point x="6" y="463"/>
			<point x="7" y="458"/>
			<point x="9" y="453" type="curve"/>
		</contour>
		<contour>
			<point x="102" y="591" type="curve" smooth="yes"/>
			<point x="130" y="591"/>
			<point x="147" y="608"/>
			<point x="147" y="633" type="curve" smooth="yes"/>
			<point x="147" y="658"/>
			<point x="130" y="675"/>
			<point x="102" y="675" type="curve" smooth="yes"/>
			<point x="74" y="675"/>
			<point x="57" y="658"/>
			<point x="57" y="633" type="curve" smooth="yes"/>
			<point x="57" y="608"/>
			<point x="74" y="591"/>
		</contour>
	</outline>
</glyph>
<glyph name="k" format="1">
	<unicode hex="006B"/>
	<advance width="576"/>
	<outline>
		<contour>
			<point x="503" y="-4" type="curve" smooth="yes"/>
			<point x="521" y="-4"/>
			<point x="541" y="0"/>
			<point x="565" y="10" type="curve"/>
			<point x="564" y="25"/>
			<point x="561" y="36"/>
			<point x="554" y="45" type="curve"/>
			<point x="546" y="44"/>
			<point x="541" y="43"/>
			<point x="531" y="43" type="curve" smooth="yes"/>
			<point x="483" y="43"/>
			<point x="475" y="56"/>
			<point x="447" y="96" type="curve" smooth="yes"/>
			<point x="301" y="306" type="line"/>
			<point x="447" y="461" type="line"/>
			<point x="510" y="469" type="line"/>
			<point x="514" y="476"/>
			<point x="516" y="482"/>
			<point x="516" y="488" type="curve" smooth="yes"/>
			<point x="516" y="492"/>
			<point x="515" y="495"/>
			<point x="513" y="500" type="curve"/>
			<point x="325" y="500" type="line"/>
			<point x="323" y="494" type="line" smooth="yes"/>
			<point x="319" y="483"/>
			<point x="319" y="476"/>
			<point x="319" y="473" type="curve" smooth="yes"/>
			<point x="319" y="464"/>
			<point x="324" y="459"/>
			<point x="335" y="459" type="curve" smooth="yes"/>
			<point x="384" y="459" type="line"/>
			<point x="169" y="230" type="line"/>
			<point x="169" y="650" type="line"/>
			<point x="161" y="661"/>
			<point x="150" y="669"/>
			<point x="135" y="675" type="curve"/>
			<point x="37" y="656" type="line"/>
			<point x="33" y="649"/>
			<point x="31" y="643"/>
			<point x="31" y="637" type="curve" smooth="yes"/>
			<point x="31" y="633"/>
			<point x="32" y="628"/>
			<point x="34" y="623" type="curve"/>
			<point x="115" y="623" type="line"/>
			<point x="115" y="41" type="line"/>
			<point x="47" y="33" type="line"/>
			<point x="43" y="26"/>
			<point x="41" y="20"/>
			<point x="41" y="14" type="curve" smooth="yes"/>
			<point x="41" y="10"/>
			<point x="42" y="5"/>
			<point x="44" y="0" type="curve"/>
			<point x="237" y="0" type="line"/>
			<point x="239" y="8" type="line" smooth="yes"/>
			<point x="242" y="19"/>
			<point x="243" y="26"/>
			<point x="243" y="29" type="curve" smooth="yes"/>
			<point x="243" y="38"/>
			<point x="238" y="43"/>
			<point x="227" y="43" type="curve" smooth="yes"/>
			<point x="169" y="43" type="line"/>
			<point x="169" y="166" type="line"/>
			<point x="267" y="270" type="line"/>
			<point x="392" y="83" type="line" smooth="yes"/>
			<point x="425" y="34"/>
			<point x="454" y="-4"/>
		</contour>
	</outline>
</glyph>
<glyph name="m" format="1">
	<unicode hex="006D"/>
	<advance width="877"/>
	<outline>
		<contour>
			<point x="845" y="0" type="line"/>
			<point x="847" y="8" type="line" smooth="yes"/>
			<point x="850" y="19"/>
			<point x="851" y="26"/>
			<point x="851" y="29" type="curve" smooth="yes"/>
			<point x="851" y="38"/>
			<point x="846" y="43"/>
			<point x="835" y="43" type="curve" smooth="yes"/>
			<point x="777" y="43" type="line"/>
			<point x="777" y="325" type="line" smooth="yes"/>
			<point x="777" y="445"/>
			<point x="725" y="510"/>
			<point x="629" y="510" type="curve" smooth="yes"/>
			<point x="553" y="510"/>
			<point x="495" y="469"/>
			<point x="459" y="392" type="curve"/>
			<point x="448" y="470"/>
			<point x="403" y="510"/>
			<point x="326" y="510" type="curve" smooth="yes"/>
			<point x="253" y="510"/>
			<point x="199" y="474"/>
			<point x="163" y="399" type="curve"/>
			<point x="169" y="483" type="line"/>
			<point x="162" y="491"/>
			<point x="152" y="499"/>
			<point x="141" y="505" type="curve"/>
			<point x="42" y="486" type="line"/>
			<point x="38" y="479"/>
			<point x="36" y="473"/>
			<point x="36" y="467" type="curve" smooth="yes"/>
			<point x="36" y="463"/>
			<point x="37" y="458"/>
			<point x="39" y="453" type="curve"/>
			<point x="115" y="453" type="line"/>
			<point x="115" y="41" type="line"/>
			<point x="47" y="33" type="line"/>
			<point x="43" y="26"/>
			<point x="41" y="20"/>
			<point x="41" y="14" type="curve" smooth="yes"/>
			<point x="41" y="10"/>
			<point x="42" y="5"/>
			<point x="44" y="0" type="curve"/>
			<point x="237" y="0" type="line"/>
			<point x="239" y="8" type="line" smooth="yes"/>
			<point x="242" y="19"/>
			<point x="243" y="26"/>
			<point x="243" y="29" type="curve" smooth="yes"/>
			<point x="243" y="38"/>
			<point x="238" y="43"/>
			<point x="227" y="43" type="curve" smooth="yes"/>
			<point x="169" y="43" type="line"/>
			<point x="169" y="266" type="line" smooth="yes"/>
			<point x="169" y="383"/>
			<point x="232" y="466"/>
			<point x="319" y="466" type="curve" smooth="yes"/>
			<point x="385" y="466"/>
			<point x="419" y="418"/>
			<point x="419" y="325" type="curve" smooth="yes"/>
			<point x="419" y="41" type="line"/>
			<point x="351" y="33" type="line"/>
			<point x="347" y="26"/>
			<point x="345" y="20"/>
			<point x="345" y="14" type="curve" smooth="yes"/>
			<point x="345" y="10"/>
			<point x="346" y="5"/>
			<point x="348" y="0" type="curve"/>
			<point x="541" y="0" type="line"/>
			<point x="543" y="8" type="line" smooth="yes"/>
			<point x="546" y="19"/>
			<point x="547" y="26"/>
			<point x="547" y="29" type="curve" smooth="yes"/>
			<point x="547" y="38"/>
			<point x="542" y="43"/>
			<point x="531" y="43" type="curve" smooth="yes"/>
			<point x="473" y="43" type="line"/>
			<point x="473" y="266" type="line" smooth="yes"/>
			<point x="473" y="383"/>
			<point x="536" y="466"/>
			<point x="623" y="466" type="curve" smooth="yes"/>
			<point x="689" y="466"/>
			<point x="723" y="418"/>
			<point x="723" y="325" type="curve" smooth="yes"/>
			<point x="723" y="41" type="line"/>
			<point x="655" y="33" type="line"/>
			<point x="651" y="26"/>
			<point x="649" y="20"/>
			<point x="649" y="14" type="curve" smooth="yes"/>
			<point x="649" y="10"/>
			<point x="650" y="5"/>
			<point x="652" y="0" type="curve"/>
		</contour>
		<contour>
			<point name="top.LC" x="446" y="530" type="move"/>
		</contour>
		<contour>
			<point name="bottom.LC" x="446" y="-20" type="move"/>
		</contour>
	</outline>
</glyph>
<glyph name="n" format="1">
	<unicode hex="006E"/>
	<advance width="616"/>
	<outline>
		<contour>
			<point x="169" y="483" type="line"/>
			<point x="162" y="491"/>
			<point x="152" y="499"/>
			<point x="141" y="505" type="curve"/>
			<point x="42" y="486" type="line"/>
			<point x="38" y="479"/>
			<point x="36" y="473"/>
			<point x="36" y="467" type="curve" smooth="yes"/>
			<point x="36" y="463"/>
			<point x="37" y="458"/>
			<point x="39" y="453" type="curve"/>
			<point x="115" y="453" type="line"/>
			<point x="115" y="41" type="line"/>
			<point x="47" y="33" type="line"/>
			<point x="43" y="26"/>
			<point x="41" y="20"/>
			<point x="41" y="14" type="curve" smooth="yes"/>
			<point x="41" y="10"/>
			<point x="42" y="5"/>
			<point x="44" y="0" type="curve"/>
			<point x="237" y="0" type="line"/>
			<point x="239" y="8" type="line" smooth="yes"/>
			<point x="242" y="19"/>
			<point x="243" y="26"/>
			<point x="243" y="29" type="curve" smooth="yes"/>
			<point x="243" y="38"/>
			<point x="238" y="43"/>
			<point x="227" y="43" type="curve" smooth="yes"/>
			<point x="169" y="43" type="line"/>
			<point x="169" y="266" type="line" smooth="yes"/>
			<point x="169" y="373"/>
			<point x="250" y="466"/>
			<point x="343" y="466" type="curve" smooth="yes"/>
			<point x="422" y="466"/>
			<point x="462" y="418"/>
			<point x="462" y="325" type="curve" smooth="yes"/>
			<point x="462" y="41" type="line"/>
			<point x="394" y="33" type="line"/>
			<point x="390" y="26"/>
			<point x="388" y="20"/>
			<point x="388" y="14" type="curve" smooth="yes"/>
			<point x="388" y="10"/>
			<point x="389" y="5"/>
			<point x="391" y="0" type="curve"/>
			<point x="584" y="0" type="line"/>
			<point x="586" y="8" type="line" smooth="yes"/>
			<point x="589" y="19"/>
			<point x="590" y="26"/>
			<point x="590" y="29" type="curve" smooth="yes"/>
			<point x="590" y="38"/>
			<point x="585" y="43"/>
			<point x="574" y="43" type="curve" smooth="yes"/>
			<point x="516" y="43" type="line"/>
			<point x="516" y="325" type="line" smooth="yes"/>
			<point x="516" y="445"/>
			<point x="459" y="510"/>
			<point x="352" y="510" type="curve" smooth="yes"/>
			<point x="267" y="510"/>
			<point x="199" y="464"/>
			<point x="162" y="383" type="curve"/>
		</contour>
		<contour>
			<point name="top.LC" x="315" y="530" type="move"/>
		</contour>
		<contour>
			<point name="bottom.LC" x="315" y="-20" type="move"/>
		</contour>
	</outline>
</glyph>
<glyph name="p" format="1">
	<unicode hex="0070"/>
	<advance width="555"/>
	<outline>
		<contour>
			<point x="277" y="-185" type="line"/>
			<point x="279" y="-177" type="line" smooth="yes"/>
			<point x="282" y="-166"/>
			<point x="283" y="-159"/>
			<point x="283" y="-156" type="curve" smooth="yes"/>
			<point x="283" y="-147"/>
			<point x="278" y="-142"/>
			<point x="267" y="-142" type="curve" smooth="yes"/>
			<point x="159" y="-142" type="line"/>
			<point x="159" y="30" type="line"/>
			<point x="196" y="3"/>
			<point x="240" y="-10"/>
			<point x="288" y="-10" type="curve" smooth="yes"/>
			<point x="421" y="-10"/>
			<point x="512" y="97"/>
			<point x="512" y="253" type="curve" smooth="yes"/>
			<point x="512" y="406"/>
			<point x="410" y="510"/>
			<point x="261" y="510" type="curve" smooth="yes"/>
			<point x="185" y="510"/>
			<point x="92" y="486"/>
			<point x="29" y="450" type="curve"/>
			<point x="31" y="436"/>
			<point x="37" y="424"/>
			<point x="46" y="413" type="curve"/>
			<point x="64" y="422"/>
			<point x="84" y="430"/>
			<point x="105" y="437" type="curve"/>
			<point x="105" y="-144" type="line"/>
			<point x="37" y="-152" type="line"/>
			<point x="33" y="-159"/>
			<point x="31" y="-165"/>
			<point x="31" y="-171" type="curve" smooth="yes"/>
			<point x="31" y="-175"/>
			<point x="32" y="-180"/>
			<point x="34" y="-185" type="curve"/>
		</contour>
		<contour>
			<point x="257" y="465" type="curve" smooth="yes"/>
			<point x="377" y="465"/>
			<point x="455" y="381"/>
			<point x="455" y="251" type="curve" smooth="yes"/>
			<point x="455" y="123"/>
			<point x="387" y="35"/>
			<point x="288" y="35" type="curve" smooth="yes"/>
			<point x="244" y="35"/>
			<point x="198" y="52"/>
			<point x="159" y="82" type="curve"/>
			<point x="159" y="452" type="line"/>
			<point x="193" y="460"/>
			<point x="227" y="465"/>
		</contour>
		<contour>
			<point name="top.LC" x="264" y="530" type="move"/>
		</contour>
		<contour>
			<point name="bottom.DSC" x="157" y="-205" type="move"/>
		</contour>
	</outline>
</glyph>
<glyph name="t" format="1">
	<unicode hex="0074"/>
	<advance width="354"/>
	<outline>
		<contour>
			<point x="287" y="456" type="line"/>
			<point x="289" y="465" type="line" smooth="yes"/>
			<point x="292" y="476"/>
			<point x="293" y="483"/>
			<point x="293" y="486" type="curve" smooth="yes"/>
			<point x="293" y="495"/>
			<point x="288" y="500"/>
			<point x="277" y="500" type="curve" smooth="yes"/>
			<point x="139" y="500" type="line"/>
			<point x="139" y="604" type="line"/>
			<point x="133" y="605"/>
			<point x="125" y="606"/>
			<point x="120" y="606" type="curve" smooth="yes"/>
			<point x="114" y="606"/>
			<point x="105" y="605"/>
			<point x="101" y="604" type="curve"/>
			<point x="85" y="499" type="line"/>
			<point x="12" y="490" type="line"/>
			<point x="8" y="483"/>
			<point x="6" y="477"/>
			<point x="6" y="471" type="curve" smooth="yes"/>
			<point x="6" y="466"/>
			<point x="7" y="461"/>
			<point x="9" y="456" type="curve"/>
			<point x="85" y="456" type="line"/>
			<point x="85" y="148" type="line" smooth="yes"/>
			<point x="85" y="28"/>
			<point x="129" y="-10"/>
			<point x="207" y="-10" type="curve" smooth="yes"/>
			<point x="247" y="-10"/>
			<point x="291" y="0"/>
			<point x="319" y="13" type="curve"/>
			<point x="318" y="28"/>
			<point x="314" y="41"/>
			<point x="307" y="50" type="curve"/>
			<point x="278" y="42"/>
			<point x="246" y="38"/>
			<point x="222" y="38" type="curve" smooth="yes"/>
			<point x="148" y="38"/>
			<point x="139" y="74"/>
			<point x="139" y="168" type="curve" smooth="yes"/>
			<point x="139" y="456" type="line"/>
		</contour>
	</outline>
</glyph>
<glyph name="v" format="1">
	<unicode hex="0076"/>
	<advance width="567"/>
	<outline>
		<contour>
			<point x="194" y="467" type="line"/>
			<point x="198" y="474"/>
			<point x="200" y="480"/>
			<point x="200" y="486" type="curve" smooth="yes"/>
			<point x="200" y="490"/>
			<point x="199" y="495"/>
			<point x="197" y="500" type="curve"/>
			<point x="27" y="500" type="line"/>
			<point x="25" y="492" type="line" smooth="yes"/>
			<point x="22" y="481"/>
			<point x="21" y="474"/>
			<point x="21" y="471" type="curve" smooth="yes"/>
			<point x="21" y="462"/>
			<point x="26" y="457"/>
			<point x="37" y="457" type="curve" smooth="yes"/>
			<point x="75" y="457" type="line"/>
			<point x="263" y="0" type="line"/>
			<point x="267" y="-1"/>
			<point x="278" y="-2"/>
			<point x="284" y="-2" type="curve" smooth="yes"/>
			<point x="290" y="-2"/>
			<point x="301" y="-1"/>
			<point x="305" y="0" type="curve"/>
			<point x="493" y="459" type="line"/>
			<point x="546" y="467" type="line"/>
			<point x="550" y="474"/>
			<point x="552" y="480"/>
			<point x="552" y="486" type="curve" smooth="yes"/>
			<point x="552" y="490"/>
			<point x="551" y="495"/>
			<point x="549" y="500" type="curve"/>
			<point x="382" y="500" type="line"/>
			<point x="380" y="492" type="line" smooth="yes"/>
			<point x="377" y="481"/>
			<point x="376" y="474"/>
			<point x="376" y="471" type="curve" smooth="yes"/>
			<point x="376" y="462"/>
			<point x="381" y="457"/>
			<point x="392" y="457" type="curve" smooth="yes"/>
			<point x="440" y="457" type="line"/>
			<point x="287" y="73" type="line"/>
			<point x="131" y="459" type="line"/>
		</contour>
		<contour>
			<point name="top.LC" x="286" y="530" type="move"/>
		</contour>
		<contour>
			<point name="bottom.LC" x="286" y="-20" type="move"/>
		</contour>
	</outline>
</glyph>
<glyph name="w" format="1">
	<unicode hex="0077"/>
	<advance width="808"/>
	<outline>
		<contour>
			<point x="189" y="467" type="line"/>
			<point x="193" y="474"/>
			<point x="195" y="480"/>
			<point x="195" y="486" type="curve" smooth="yes"/>
			<point x="195" y="490"/>
			<point x="194" y="495"/>
			<point x="192" y="500" type="curve"/>
			<point x="21" y="500" type="line"/>
			<point x="19" y="492" type="line" smooth="yes"/>
			<point x="16" y="481"/>
			<point x="15" y="474"/>
			<point x="15" y="471" type="curve" smooth="yes"/>
			<point x="15" y="462"/>
			<point x="20" y="457"/>
			<point x="31" y="457" type="curve" smooth="yes"/>
			<point x="69" y="457" type="line"/>
			<point x="217" y="0" type="line"/>
			<point x="221" y="-1"/>
			<point x="232" y="-2"/>
			<point x="238" y="-2" type="curve" smooth="yes"/>
			<point x="244" y="-2"/>
			<point x="255" y="-1"/>
			<point x="259" y="0" type="curve"/>
			<point x="404" y="406" type="line"/>
			<point x="549" y="0" type="line"/>
			<point x="553" y="-1"/>
			<point x="564" y="-2"/>
			<point x="570" y="-2" type="curve" smooth="yes"/>
			<point x="576" y="-2"/>
			<point x="587" y="-1"/>
			<point x="591" y="0" type="curve"/>
			<point x="740" y="459" type="line"/>
			<point x="793" y="467" type="line"/>
			<point x="797" y="474"/>
			<point x="799" y="480"/>
			<point x="799" y="486" type="curve" smooth="yes"/>
			<point x="799" y="490"/>
			<point x="798" y="495"/>
			<point x="796" y="500" type="curve"/>
			<point x="629" y="500" type="line"/>
			<point x="627" y="492" type="line" smooth="yes"/>
			<point x="624" y="481"/>
			<point x="623" y="474"/>
			<point x="623" y="471" type="curve" smooth="yes"/>
			<point x="623" y="462"/>
			<point x="628" y="457"/>
			<point x="639" y="457" type="curve" smooth="yes"/>
			<point x="687" y="457" type="line"/>
			<point x="572" y="87" type="line"/>
			<point x="428" y="500" type="line"/>
			<point x="424" y="501"/>
			<point x="413" y="502"/>
			<point x="407" y="502" type="curve" smooth="yes"/>
			<point x="401" y="502"/>
			<point x="390" y="501"/>
			<point x="386" y="500" type="curve"/>
			<point x="241" y="83" type="line"/>
			<point x="126" y="459" type="line"/>
		</contour>
		<contour>
			<point name="top.LC" x="404" y="530" type="move"/>
		</contour>
		<contour>
			<point name="bottom.LC" x="404" y="-20" type="move"/>
		</contour>
	</outline>
</glyph>
<glyph name="x" format="1">
	<unicode hex="0078"/>
	<advance width="568"/>
	<outline>
		<contour>
			<point x="86" y="41" type="line"/>
			<point x="33" y="33" type="line"/>
			<point x="29" y="26"/>
			<point x="27" y="20"/>
			<point x="27" y="14" type="curve" smooth="yes"/>
			<point x="27" y="10"/>
			<point x="28" y="5"/>
			<point x="30" y="0" type="curve"/>
			<point x="200" y="0" type="line"/>
			<point x="202" y="8" type="line" smooth="yes"/>
			<point x="205" y="19"/>
			<point x="206" y="26"/>
			<point x="206" y="29" type="curve" smooth="yes"/>
			<point x="206" y="38"/>
			<point x="201" y="43"/>
			<point x="190" y="43" type="curve" smooth="yes"/>
			<point x="142" y="43" type="line"/>
			<point x="280" y="226" type="line"/>
			<point x="421" y="41" type="line"/>
			<point x="358" y="33" type="line"/>
			<point x="354" y="26"/>
			<point x="352" y="20"/>
			<point x="352" y="14" type="curve" smooth="yes"/>
			<point x="352" y="10"/>
			<point x="353" y="5"/>
			<point x="355" y="0" type="curve"/>
			<point x="529" y="0" type="line"/>
			<point x="531" y="8" type="line" smooth="yes"/>
			<point x="534" y="19"/>
			<point x="535" y="26"/>
			<point x="535" y="29" type="curve" smooth="yes"/>
			<point x="535" y="38"/>
			<point x="530" y="43"/>
			<point x="519" y="43" type="curve" smooth="yes"/>
			<point x="481" y="43" type="line"/>
			<point x="316" y="260" type="line"/>
			<point x="464" y="459" type="line"/>
			<point x="517" y="467" type="line"/>
			<point x="521" y="474"/>
			<point x="523" y="480"/>
			<point x="523" y="486" type="curve" smooth="yes"/>
			<point x="523" y="490"/>
			<point x="522" y="495"/>
			<point x="520" y="500" type="curve"/>
			<point x="354" y="500" type="line"/>
			<point x="352" y="492" type="line" smooth="yes"/>
			<point x="349" y="481"/>
			<point x="348" y="474"/>
			<point x="348" y="471" type="curve" smooth="yes"/>
			<point x="348" y="462"/>
			<point x="353" y="457"/>
			<point x="364" y="457" type="curve" smooth="yes"/>
			<point x="408" y="457" type="line"/>
			<point x="287" y="293" type="line"/>
			<point x="165" y="459" type="line"/>
			<point x="224" y="467" type="line"/>
			<point x="228" y="474"/>
			<point x="230" y="480"/>
			<point x="230" y="486" type="curve" smooth="yes"/>
			<point x="230" y="490"/>
			<point x="229" y="495"/>
			<point x="227" y="500" type="curve"/>
			<point x="57" y="500" type="line"/>
			<point x="55" y="492" type="line" smooth="yes"/>
			<point x="52" y="481"/>
			<point x="51" y="474"/>
			<point x="51" y="471" type="curve" smooth="yes"/>
			<point x="51" y="462"/>
			<point x="56" y="457"/>
			<point x="67" y="457" type="curve" smooth="yes"/>
			<point x="105" y="457" type="line"/>
			<point x="251" y="260" type="line"/>
		</contour>
		<contour>
			<point name="top.LC" x="284" y="530" type="move"/>
		</contour>
		<contour>
			<point name="bottom.LC" x="284" y="-20" type="move"/>
		</contour>
	</outline>
</glyph>
<glyph name="y" format="1">
	<unicode hex="0079"/>
	<advance width="577"/>
	<outline>
		<contour>
			<point x="57" y="-155" type="curve"/>
			<point x="56" y="-160"/>
			<point x="56" y="-163"/>
			<point x="56" y="-167" type="curve" smooth="yes"/>
			<point x="56" y="-175"/>
			<point x="58" y="-187"/>
			<point x="63" y="-196" type="curve"/>
			<point x="202" y="-187"/>
			<point x="267" y="-104"/>
			<point x="321" y="27" type="curve" smooth="yes"/>
			<point x="498" y="459" type="line"/>
			<point x="566" y="467" type="line"/>
			<point x="570" y="474"/>
			<point x="572" y="480"/>
			<point x="572" y="486" type="curve" smooth="yes"/>
			<point x="572" y="490"/>
			<point x="571" y="495"/>
			<point x="569" y="500" type="curve"/>
			<point x="377" y="500" type="line"/>
			<point x="375" y="492" type="line" smooth="yes"/>
			<point x="372" y="481"/>
			<point x="371" y="474"/>
			<point x="371" y="471" type="curve" smooth="yes"/>
			<point x="371" y="462"/>
			<point x="376" y="457"/>
			<point x="387" y="457" type="curve" smooth="yes"/>
			<point x="445" y="457" type="line"/>
			<point x="289" y="60" type="line"/>
			<point x="136" y="459" type="line"/>
			<point x="204" y="467" type="line"/>
			<point x="208" y="474"/>
			<point x="210" y="480"/>
			<point x="210" y="486" type="curve" smooth="yes"/>
			<point x="210" y="490"/>
			<point x="209" y="495"/>
			<point x="207" y="500" type="curve"/>
			<point x="12" y="500" type="line"/>
			<point x="10" y="492" type="line" smooth="yes"/>
			<point x="7" y="481"/>
			<point x="6" y="474"/>
			<point x="6" y="471" type="curve" smooth="yes"/>
			<point x="6" y="462"/>
			<point x="11" y="457"/>
			<point x="22" y="457" type="curve" smooth="yes"/>
			<point x="80" y="457" type="line"/>
			<point x="262" y="-3" type="line"/>
			<point x="228" y="-73"/>
			<point x="164" y="-141"/>
		</contour>
		<contour>
			<point name="top.LC" x="291" y="530" type="move"/>
		</contour>
		<contour>
			<point name="bottom.DSC" x="195" y="-205" type="move"/>
		</contour>
	</outline>
</glyph>
<glyph name="z" format="1">
	<unicode hex="007A"/>
	<advance width="480"/>
	<outline>
		<contour>
			<point x="381" y="44" type="line"/>
			<point x="110" y="44" type="line"/>
			<point x="423" y="469" type="line"/>
			<point x="419" y="479"/>
			<point x="412" y="491"/>
			<point x="404" y="500" type="curve"/>
			<point x="93" y="500" type="line"/>
			<point x="84" y="493"/>
			<point x="75" y="483"/>
			<point x="69" y="474" type="curve"/>
			<point x="67" y="363" type="line"/>
			<point x="72" y="361"/>
			<point x="77" y="360"/>
			<point x="82" y="360" type="curve" smooth="yes"/>
			<point x="88" y="360"/>
			<point x="95" y="362"/>
			<point x="101" y="366" type="curve"/>
			<point x="121" y="456" type="line"/>
			<point x="353" y="456" type="line"/>
			<point x="40" y="31" type="line"/>
			<point x="44" y="21"/>
			<point x="51" y="9"/>
			<point x="59" y="0" type="curve"/>
			<point x="409" y="0" type="line"/>
			<point x="418" y="7"/>
			<point x="427" y="17"/>
			<point x="433" y="26" type="curve"/>
			<point x="435" y="143" type="line"/>
			<point x="430" y="145"/>
			<point x="425" y="146"/>
			<point x="420" y="146" type="curve" smooth="yes"/>
			<point x="414" y="146"/>
			<point x="407" y="144"/>
			<point x="401" y="140" type="curve"/>
		</contour>
		<contour>
			<point name="top.LC" x="240" y="530" type="move"/>
		</contour>
		<contour>
			<point name="bottom.LC" x="237" y="-20" type="move"/>
		</contour>
	</outline>
</glyph>
<glyph name="braceleft" format="1">
	<unicode hex="007B"/>
	<advance width="338"/>
	<outline>
		<contour>
			<point x="186" y="388" type="curve" smooth="yes"/>
			<point x="186" y="425"/>
			<point x="177" y="494"/>
			<point x="177" y="536" type="curve" smooth="yes"/>
			<point x="177" y="592"/>
			<point x="198" y="617"/>
			<point x="249" y="622" type="curve" smooth="yes"/>
			<point x="302" y="627" type="line"/>
			<point x="306" y="634"/>
			<point x="308" y="640"/>
			<point x="308" y="646" type="curve" smooth="yes"/>
			<point x="308" y="651"/>
			<point x="307" y="657"/>
			<point x="305" y="661" type="curve"/>
			<point x="247" y="661" type="line" smooth="yes"/>
			<point x="167" y="661"/>
			<point x="121" y="616"/>
			<point x="121" y="535" type="curve" smooth="yes"/>
			<point x="121" y="495"/>
			<point x="130" y="435"/>
			<point x="130" y="385" type="curve" smooth="yes"/>
			<point x="130" y="331"/>
			<point x="102" y="300"/>
			<point x="53" y="300" type="curve"/>
			<point x="51" y="293"/>
			<point x="50" y="285"/>
			<point x="50" y="277" type="curve" smooth="yes"/>
			<point x="50" y="269"/>
			<point x="51" y="261"/>
			<point x="53" y="254" type="curve"/>
			<point x="102" y="254"/>
			<point x="130" y="223"/>
			<point x="130" y="169" type="curve" smooth="yes"/>
			<point x="130" y="119"/>
			<point x="121" y="59"/>
			<point x="121" y="19" type="curve" smooth="yes"/>
			<point x="121" y="-62"/>
			<point x="167" y="-107"/>
			<point x="247" y="-107" type="curve" smooth="yes"/>
			<point x="305" y="-107" type="line"/>
			<point x="307" y="-103"/>
			<point x="308" y="-97"/>
			<point x="308" y="-92" type="curve" smooth="yes"/>
			<point x="308" y="-86"/>
			<point x="306" y="-80"/>
			<point x="302" y="-73" type="curve"/>
			<point x="249" y="-68" type="line" smooth="yes"/>
			<point x="198" y="-63"/>
			<point x="177" y="-38"/>
			<point x="177" y="18" type="curve" smooth="yes"/>
			<point x="177" y="60"/>
			<point x="186" y="129"/>
			<point x="186" y="166" type="curve" smooth="yes"/>
			<point x="186" y="228"/>
			<point x="161" y="265"/>
			<point x="109" y="277" type="curve"/>
			<point x="161" y="288"/>
			<point x="186" y="325"/>
		</contour>
	</outline>
</glyph>
<glyph name="bar" format="1">
	<unicode hex="007C"/>
	<advance width="298"/>
	<outline>
		<contour>
			<point x="124" y="-182" type="line"/>
			<point x="135" y="-184"/>
			<point x="142" y="-185"/>
			<point x="148" y="-185" type="curve" smooth="yes"/>
			<point x="155" y="-185"/>
			<point x="162" y="-184"/>
			<point x="174" y="-180" type="curve"/>
			<point x="174" y="665" type="line"/>
			<point x="163" y="667"/>
			<point x="156" y="668"/>
			<point x="150" y="668" type="curve" smooth="yes"/>
			<point x="143" y="668"/>
			<point x="136" y="667"/>
			<point x="124" y="663" type="curve"/>
		</contour>
	</outline>
</glyph>
<glyph name="braceright" format="1">
	<unicode hex="007D"/>
	<advance width="338"/>
	<outline>
		<contour>
			<point x="152" y="388" type="curve" smooth="yes"/>
			<point x="152" y="325"/>
			<point x="177" y="288"/>
			<point x="229" y="277" type="curve"/>
			<point x="177" y="266"/>
			<point x="152" y="229"/>
			<point x="152" y="166" type="curve" smooth="yes"/>
			<point x="152" y="129"/>
			<point x="161" y="60"/>
			<point x="161" y="18" type="curve" smooth="yes"/>
			<point x="161" y="-38"/>
			<point x="140" y="-63"/>
			<point x="89" y="-67" type="curve" smooth="yes"/>
			<point x="37" y="-71" type="line"/>
			<point x="33" y="-76"/>
			<point x="30" y="-84"/>
			<point x="30" y="-91" type="curve" smooth="yes"/>
			<point x="30" y="-95"/>
			<point x="32" y="-104"/>
			<point x="34" y="-107" type="curve"/>
			<point x="91" y="-107" type="line" smooth="yes"/>
			<point x="171" y="-107"/>
			<point x="217" y="-62"/>
			<point x="217" y="19" type="curve" smooth="yes"/>
			<point x="217" y="59"/>
			<point x="208" y="119"/>
			<point x="208" y="169" type="curve" smooth="yes"/>
			<point x="208" y="223"/>
			<point x="236" y="254"/>
			<point x="285" y="254" type="curve"/>
			<point x="287" y="261"/>
			<point x="288" y="269"/>
			<point x="288" y="277" type="curve" smooth="yes"/>
			<point x="288" y="285"/>
			<point x="287" y="293"/>
			<point x="285" y="300" type="curve"/>
			<point x="236" y="300"/>
			<point x="208" y="331"/>
			<point x="208" y="385" type="curve" smooth="yes"/>
			<point x="208" y="435"/>
			<point x="217" y="495"/>
			<point x="217" y="535" type="curve" smooth="yes"/>
			<point x="217" y="616"/>
			<point x="171" y="661"/>
			<point x="91" y="661" type="curve" smooth="yes"/>
			<point x="34" y="661" type="line"/>
			<point x="32" y="658"/>
			<point x="30" y="649"/>
			<point x="30" y="645" type="curve" smooth="yes"/>
			<point x="30" y="638"/>
			<point x="33" y="630"/>
			<point x="37" y="625" type="curve"/>
			<point x="89" y="621" type="line" smooth="yes"/>
			<point x="140" y="617"/>
			<point x="161" y="592"/>
			<point x="161" y="536" type="curve" smooth="yes"/>
			<point x="161" y="494"/>
			<point x="152" y="425"/>
		</contour>
	</outline>
</glyph>
<glyph name="asciitilde" format="1">
	<unicode hex="007E"/>
	<advance width="580"/>
	<outline>
		<contour>
			<point x="190" y="336" type="curve" smooth="yes"/>
			<point x="215" y="336"/>
			<point x="232" y="329"/>
			<point x="275" y="302" type="curve" smooth="yes"/>
			<point x="328" y="268"/>
			<point x="354" y="258"/>
			<point x="389" y="258" type="curve" smooth="yes"/>
			<point x="450" y="258"/>
			<point x="497" y="297"/>
			<point x="521" y="367" type="curve"/>
			<point x="509" y="378"/>
			<point x="498" y="385"/>
			<point x="482" y="391" type="curve"/>
			<point x="454" y="330"/>
			<point x="430" y="308"/>
			<point x="390" y="308" type="curve" smooth="yes"/>
			<point x="366" y="308"/>
			<point x="348" y="315"/>
			<point x="305" y="342" type="curve" smooth="yes"/>
			<point x="252" y="376"/>
			<point x="226" y="386"/>
			<point x="191" y="386" type="curve" smooth="yes"/>
			<point x="130" y="386"/>
			<point x="83" y="347"/>
			<point x="59" y="277" type="curve"/>
			<point x="71" y="266"/>
			<point x="82" y="259"/>
			<point x="98" y="253" type="curve"/>
			<point x="126" y="314"/>
			<point x="150" y="336"/>
		</contour>
	</outline>
</glyph>
<glyph name="sterling" format="1">
	<unicode hex="00A3"/>
	<advance width="560"/>
	<outline>
		<contour>
			<point x="482" y="0" type="line"/>
			<point x="491" y="7"/>
			<point x="500" y="17"/>
			<point x="506" y="26" type="curve"/>
			<point x="508" y="163" type="line"/>
			<point x="505" y="165"/>
			<point x="496" y="167"/>
			<point x="492" y="167" type="curve" smooth="yes"/>
			<point x="485" y="167"/>
			<point x="477" y="164"/>
			<point x="472" y="160" type="curve"/>
			<point x="447" y="46" type="line"/>
			<point x="138" y="46" type="line"/>
			<point x="199" y="84"/>
			<point x="237" y="152"/>
			<point x="237" y="219" type="curve" smooth="yes"/>
			<point x="237" y="248"/>
			<point x="232" y="274"/>
			<point x="219" y="313" type="curve"/>
			<point x="389" y="307" type="line"/>
			<point x="390" y="313"/>
			<point x="391" y="322"/>
			<point x="391" y="332" type="curve" smooth="yes"/>
			<point x="391" y="342"/>
			<point x="390" y="351"/>
			<point x="389" y="357" type="curve"/>
			<point x="205" y="350" type="line"/>
			<point x="186" y="406"/>
			<point x="181" y="433"/>
			<point x="181" y="468" type="curve" smooth="yes"/>
			<point x="181" y="557"/>
			<point x="232" y="609"/>
			<point x="318" y="609" type="curve" smooth="yes"/>
			<point x="372" y="609"/>
			<point x="418" y="584"/>
			<point x="467" y="529" type="curve"/>
			<point x="483" y="538"/>
			<point x="492" y="545"/>
			<point x="499" y="559" type="curve"/>
			<point x="457" y="620"/>
			<point x="390" y="655"/>
			<point x="318" y="655" type="curve" smooth="yes"/>
			<point x="202" y="655"/>
			<point x="128" y="583"/>
			<point x="128" y="468" type="curve" smooth="yes"/>
			<point x="128" y="431"/>
			<point x="132" y="396"/>
			<point x="148" y="351" type="curve"/>
			<point x="59" y="356" type="line"/>
			<point x="58" y="350"/>
			<point x="57" y="341"/>
			<point x="57" y="331" type="curve" smooth="yes"/>
			<point x="57" y="321"/>
			<point x="58" y="312"/>
			<point x="59" y="306" type="curve"/>
			<point x="164" y="312" type="line"/>
			<point x="179" y="271"/>
			<point x="184" y="244"/>
			<point x="184" y="219" type="curve" smooth="yes"/>
			<point x="184" y="131"/>
			<point x="111" y="67"/>
			<point x="64" y="31" type="curve"/>
			<point x="68" y="21"/>
			<point x="75" y="9"/>
			<point x="83" y="0" type="curve"/>
		</contour>
	</outline>
</glyph>
<glyph name="currency" format="1">
	<unicode hex="00A4"/>
	<advance width="560"/>
	<outline>
		<contour>
			<point x="474" y="92" type="line"/>
			<point x="479" y="95"/>
			<point x="487" y="102"/>
			<point x="494" y="109" type="curve" smooth="yes"/>
			<point x="501" y="116"/>
			<point x="508" y="124"/>
			<point x="511" y="129" type="curve"/>
			<point x="421" y="213" type="line"/>
			<point x="445" y="241"/>
			<point x="458" y="279"/>
			<point x="458" y="323" type="curve" smooth="yes"/>
			<point x="458" y="367"/>
			<point x="445" y="405"/>
			<point x="421" y="433" type="curve"/>
			<point x="511" y="517" type="line"/>
			<point x="508" y="522"/>
			<point x="501" y="530"/>
			<point x="494" y="537" type="curve" smooth="yes"/>
			<point x="487" y="544"/>
			<point x="479" y="551"/>
			<point x="474" y="554" type="curve"/>
			<point x="389" y="461" type="line"/>
			<point x="360" y="480"/>
			<point x="323" y="491"/>
			<point x="280" y="491" type="curve" smooth="yes"/>
			<point x="237" y="491"/>
			<point x="200" y="480"/>
			<point x="171" y="461" type="curve"/>
			<point x="86" y="554" type="line"/>
			<point x="81" y="551"/>
			<point x="73" y="544"/>
			<point x="66" y="537" type="curve" smooth="yes"/>
			<point x="59" y="530"/>
			<point x="52" y="522"/>
			<point x="49" y="517" type="curve"/>
			<point x="139" y="433" type="line"/>
			<point x="115" y="405"/>
			<point x="102" y="367"/>
			<point x="102" y="323" type="curve" smooth="yes"/>
			<point x="102" y="279"/>
			<point x="115" y="241"/>
			<point x="139" y="213" type="curve"/>
			<point x="49" y="129" type="line"/>
			<point x="52" y="124"/>
			<point x="59" y="116"/>
			<point x="66" y="109" type="curve" smooth="yes"/>
			<point x="73" y="102"/>
			<point x="81" y="95"/>
			<point x="86" y="92" type="curve"/>
			<point x="171" y="185" type="line"/>
			<point x="200" y="166"/>
			<point x="237" y="155"/>
			<point x="280" y="155" type="curve" smooth="yes"/>
			<point x="323" y="155"/>
			<point x="360" y="166"/>
			<point x="389" y="185" type="curve"/>
		</contour>
		<contour>
			<point x="280" y="201" type="curve" smooth="yes"/>
			<point x="203" y="201"/>
			<point x="159" y="245"/>
			<point x="159" y="323" type="curve" smooth="yes"/>
			<point x="159" y="401"/>
			<point x="203" y="445"/>
			<point x="280" y="445" type="curve" smooth="yes"/>
			<point x="357" y="445"/>
			<point x="401" y="401"/>
			<point x="401" y="323" type="curve" smooth="yes"/>
			<point x="401" y="245"/>
			<point x="357" y="201"/>
		</contour>
	</outline>
</glyph>
<glyph name="yen" format="1">
	<unicode hex="00A5"/>
	<advance width="560"/>
	<outline>
		<contour>
			<point x="477" y="174" type="line"/>
			<point x="478" y="180"/>
			<point x="479" y="189"/>
			<point x="479" y="199" type="curve" smooth="yes"/>
			<point x="479" y="209"/>
			<point x="478" y="218"/>
			<point x="477" y="224" type="curve"/>
			<point x="307" y="218" type="line"/>
			<point x="307" y="253" type="line"/>
			<point x="336" y="309" type="line"/>
			<point x="490" y="304" type="line"/>
			<point x="491" y="310"/>
			<point x="492" y="319"/>
			<point x="492" y="329" type="curve" smooth="yes"/>
			<point x="492" y="339"/>
			<point x="491" y="348"/>
			<point x="490" y="354" type="curve"/>
			<point x="357" y="349" type="line"/>
			<point x="490" y="601" type="line"/>
			<point x="557" y="609" type="line"/>
			<point x="561" y="614"/>
			<point x="564" y="622"/>
			<point x="564" y="629" type="curve" smooth="yes"/>
			<point x="564" y="633"/>
			<point x="562" y="642"/>
			<point x="560" y="645" type="curve"/>
			<point x="382" y="645" type="line"/>
			<point x="380" y="637" type="line" smooth="yes"/>
			<point x="377" y="627"/>
			<point x="375" y="617"/>
			<point x="375" y="613" type="curve" smooth="yes"/>
			<point x="375" y="604"/>
			<point x="380" y="599"/>
			<point x="391" y="599" type="curve" smooth="yes"/>
			<point x="434" y="599" type="line"/>
			<point x="281" y="298" type="line"/>
			<point x="130" y="601" type="line"/>
			<point x="182" y="609" type="line"/>
			<point x="186" y="614"/>
			<point x="189" y="622"/>
			<point x="189" y="629" type="curve" smooth="yes"/>
			<point x="189" y="633"/>
			<point x="187" y="642"/>
			<point x="185" y="645" type="curve"/>
			<point x="2" y="645" type="line"/>
			<point x="0" y="637" type="line" smooth="yes"/>
			<point x="-3" y="627"/>
			<point x="-5" y="617"/>
			<point x="-5" y="613" type="curve" smooth="yes"/>
			<point x="-5" y="604"/>
			<point x="0" y="599"/>
			<point x="11" y="599" type="curve" smooth="yes"/>
			<point x="69" y="599" type="line"/>
			<point x="200" y="349" type="line"/>
			<point x="68" y="354" type="line"/>
			<point x="67" y="348"/>
			<point x="66" y="339"/>
			<point x="66" y="329" type="curve" smooth="yes"/>
			<point x="66" y="319"/>
			<point x="67" y="310"/>
			<point x="68" y="304" type="curve"/>
			<point x="221" y="309" type="line"/>
			<point x="251" y="253" type="line"/>
			<point x="251" y="218" type="line"/>
			<point x="81" y="224" type="line"/>
			<point x="80" y="218"/>
			<point x="79" y="209"/>
			<point x="79" y="199" type="curve" smooth="yes"/>
			<point x="79" y="189"/>
			<point x="80" y="180"/>
			<point x="81" y="174" type="curve"/>
			<point x="251" y="180" type="line"/>
			<point x="251" y="44" type="line"/>
			<point x="154" y="36" type="line"/>
			<point x="150" y="31"/>
			<point x="147" y="23"/>
			<point x="147" y="16" type="curve" smooth="yes"/>
			<point x="147" y="12"/>
			<point x="149" y="3"/>
			<point x="151" y="0" type="curve"/>
			<point x="404" y="0" type="line"/>
			<point x="406" y="8" type="line" smooth="yes"/>
			<point x="409" y="18"/>
			<point x="411" y="28"/>
			<point x="411" y="32" type="curve" smooth="yes"/>
			<point x="411" y="41"/>
			<point x="406" y="46"/>
			<point x="395" y="46" type="curve" smooth="yes"/>
			<point x="307" y="46" type="line"/>
			<point x="307" y="180" type="line"/>
		</contour>
	</outline>
</glyph>
<glyph name="section" format="1">
	<unicode hex="00A7"/>
	<advance width="483"/>
	<outline>
		<contour>
			<point x="242" y="-131" type="curve" smooth="yes"/>
			<point x="343" y="-131"/>
			<point x="411" y="-80"/>
			<point x="411" y="-4" type="curve" smooth="yes"/>
			<point x="411" y="50"/>
			<point x="380" y="85"/>
			<point x="338" y="114" type="curve"/>
			<point x="404" y="145"/>
			<point x="438" y="189"/>
			<point x="438" y="246" type="curve" smooth="yes"/>
			<point x="438" y="432"/>
			<point x="127" y="419"/>
			<point x="127" y="553" type="curve" smooth="yes"/>
			<point x="127" y="605"/>
			<point x="172" y="637"/>
			<point x="245" y="637" type="curve" smooth="yes"/>
			<point x="278" y="637"/>
			<point x="313" y="631"/>
			<point x="340" y="621" type="curve"/>
			<point x="361" y="529" type="line"/>
			<point x="367" y="525"/>
			<point x="374" y="523"/>
			<point x="380" y="523" type="curve" smooth="yes"/>
			<point x="385" y="523"/>
			<point x="390" y="524"/>
			<point x="395" y="526" type="curve"/>
			<point x="393" y="625" type="line"/>
			<point x="388" y="636"/>
			<point x="381" y="647"/>
			<point x="374" y="655" type="curve"/>
			<point x="348" y="669"/>
			<point x="289" y="680"/>
			<point x="241" y="680" type="curve" smooth="yes"/>
			<point x="140" y="680"/>
			<point x="72" y="629"/>
			<point x="72" y="553" type="curve" smooth="yes"/>
			<point x="72" y="499"/>
			<point x="102" y="463"/>
			<point x="145" y="435" type="curve"/>
			<point x="79" y="403"/>
			<point x="45" y="359"/>
			<point x="45" y="303" type="curve" smooth="yes"/>
			<point x="45" y="117"/>
			<point x="356" y="130"/>
			<point x="356" y="-4" type="curve" smooth="yes"/>
			<point x="356" y="-56"/>
			<point x="311" y="-88"/>
			<point x="238" y="-88" type="curve" smooth="yes"/>
			<point x="204" y="-88"/>
			<point x="170" y="-82"/>
			<point x="143" y="-72" type="curve"/>
			<point x="122" y="20" type="line"/>
			<point x="116" y="24"/>
			<point x="109" y="26"/>
			<point x="103" y="26" type="curve" smooth="yes"/>
			<point x="98" y="26"/>
			<point x="93" y="25"/>
			<point x="88" y="23" type="curve"/>
			<point x="90" y="-76" type="line"/>
			<point x="95" y="-87"/>
			<point x="102" y="-98"/>
			<point x="109" y="-106" type="curve"/>
			<point x="135" y="-120"/>
			<point x="194" y="-131"/>
		</contour>
		<contour>
			<point x="383" y="246" type="curve" smooth="yes"/>
			<point x="383" y="199"/>
			<point x="350" y="158"/>
			<point x="299" y="137" type="curve"/>
			<point x="210" y="184"/>
			<point x="100" y="215"/>
			<point x="100" y="303" type="curve" smooth="yes"/>
			<point x="100" y="349"/>
			<point x="132" y="391"/>
			<point x="184" y="412" type="curve"/>
			<point x="273" y="365"/>
			<point x="383" y="333"/>
		</contour>
	</outline>
</glyph>
<glyph name="registered" format="1">
	<unicode hex="00AE"/>
	<advance width="762"/>
	<outline>
		<contour>
			<point x="381" y="-10" type="curve" smooth="yes"/>
			<point x="583" y="-10"/>
			<point x="712" y="119"/>
			<point x="712" y="323" type="curve" smooth="yes"/>
			<point x="712" y="526"/>
			<point x="584" y="655"/>
			<point x="381" y="655" type="curve" smooth="yes"/>
			<point x="178" y="655"/>
			<point x="50" y="526"/>
			<point x="50" y="323" type="curve" smooth="yes"/>
			<point x="50" y="120"/>
			<point x="179" y="-10"/>
		</contour>
		<contour>
			<point x="381" y="32" type="curve" smooth="yes"/>
			<point x="211" y="32"/>
			<point x="105" y="144"/>
			<point x="105" y="323" type="curve" smooth="yes"/>
			<point x="105" y="502"/>
			<point x="210" y="613"/>
			<point x="381" y="613" type="curve" smooth="yes"/>
			<point x="552" y="613"/>
			<point x="657" y="502"/>
			<point x="657" y="323" type="curve" smooth="yes"/>
			<point x="657" y="144"/>
			<point x="551" y="32"/>
		</contour>
		<contour>
			<point x="440" y="187" type="line"/>
			<point x="464" y="153"/>
			<point x="486" y="138"/>
			<point x="514" y="138" type="curve" smooth="yes"/>
			<point x="528" y="138"/>
			<point x="543" y="142"/>
			<point x="559" y="149" type="curve"/>
			<point x="559" y="160"/>
			<point x="555" y="173"/>
			<point x="550" y="180" type="curve"/>
			<point x="545" y="178"/>
			<point x="539" y="177"/>
			<point x="532" y="177" type="curve" smooth="yes"/>
			<point x="511" y="177"/>
			<point x="497" y="187"/>
			<point x="475" y="219" type="curve" smooth="yes"/>
			<point x="422" y="298" type="line"/>
			<point x="474" y="309"/>
			<point x="509" y="348"/>
			<point x="509" y="401" type="curve" smooth="yes"/>
			<point x="509" y="463"/>
			<point x="461" y="507"/>
			<point x="392" y="507" type="curve" smooth="yes"/>
			<point x="223" y="507" type="line"/>
			<point x="221" y="500" type="line" smooth="yes"/>
			<point x="219" y="493"/>
			<point x="218" y="487"/>
			<point x="218" y="483" type="curve" smooth="yes"/>
			<point x="218" y="475"/>
			<point x="222" y="471"/>
			<point x="231" y="471" type="curve" smooth="yes"/>
			<point x="261" y="471" type="line"/>
			<point x="261" y="175" type="line"/>
			<point x="223" y="170" type="line"/>
			<point x="219" y="165"/>
			<point x="218" y="160"/>
			<point x="218" y="153" type="curve" smooth="yes"/>
			<point x="218" y="150"/>
			<point x="219" y="145"/>
			<point x="221" y="141" type="curve"/>
			<point x="349" y="141" type="line"/>
			<point x="351" y="148" type="line" smooth="yes"/>
			<point x="353" y="155"/>
			<point x="354" y="161"/>
			<point x="354" y="165" type="curve" smooth="yes"/>
			<point x="354" y="173"/>
			<point x="350" y="177"/>
			<point x="341" y="177" type="curve" smooth="yes"/>
			<point x="311" y="177" type="line"/>
			<point x="311" y="295" type="line"/>
			<point x="372" y="295" type="line"/>
		</contour>
		<contour>
			<point x="311" y="471" type="line"/>
			<point x="374" y="471" type="line" smooth="yes"/>
			<point x="427" y="471"/>
			<point x="457" y="445"/>
			<point x="457" y="401" type="curve" smooth="yes"/>
			<point x="457" y="357"/>
			<point x="427" y="331"/>
			<point x="374" y="331" type="curve" smooth="yes"/>
			<point x="311" y="331" type="line"/>
		</contour>
	</outline>
</glyph>
<glyph name="micro" format="1">
	<unicode hex="00B5"/>
	<advance width="602"/>
	<outline>
		<contour>
			<point x="470" y="-5" type="curve"/>
			<point x="569" y="14" type="line"/>
			<point x="573" y="21"/>
			<point x="575" y="27"/>
			<point x="575" y="33" type="curve" smooth="yes"/>
			<point x="575" y="37"/>
			<point x="574" y="42"/>
			<point x="572" y="47" type="curve"/>
			<point x="496" y="47" type="line"/>
			<point x="481" y="190" type="line"/>
			<point x="481" y="398" type="line"/>
			<point x="488" y="483" type="line"/>
			<point x="481" y="491"/>
			<point x="471" y="499"/>
			<point x="460" y="505" type="curve"/>
			<point x="427" y="500" type="line"/>
			<point x="427" y="234" type="line" smooth="yes"/>
			<point x="427" y="125"/>
			<point x="358" y="34"/>
			<point x="275" y="34" type="curve" smooth="yes"/>
			<point x="202" y="34"/>
			<point x="144" y="103"/>
			<point x="144" y="190" type="curve" smooth="yes"/>
			<point x="144" y="398" type="line"/>
			<point x="151" y="483" type="line"/>
			<point x="144" y="491"/>
			<point x="134" y="499"/>
			<point x="123" y="505" type="curve"/>
			<point x="90" y="500" type="line"/>
			<point x="90" y="-195" type="line"/>
			<point x="129" y="-191" type="line" smooth="yes"/>
			<point x="142" y="-190"/>
			<point x="150" y="-182"/>
			<point x="149" y="-171" type="curve" smooth="yes"/>
			<point x="134" y="63" type="line"/>
			<point x="162" y="15"/>
			<point x="208" y="-10"/>
			<point x="269" y="-10" type="curve" smooth="yes"/>
			<point x="351" y="-10"/>
			<point x="411" y="36"/>
			<point x="442" y="122" type="curve"/>
			<point x="442" y="17" type="line"/>
			<point x="449" y="9"/>
			<point x="459" y="1"/>
		</contour>
	</outline>
</glyph>
<glyph name="paragraph" format="1">
	<unicode hex="00B6"/>
	<advance width="545"/>
	<outline>
		<contour>
			<point x="284" y="602" type="line"/>
			<point x="380" y="602" type="line"/>
			<point x="380" y="-120" type="line"/>
			<point x="387" y="-121"/>
			<point x="396" y="-122"/>
			<point x="405" y="-122" type="curve" smooth="yes"/>
			<point x="414" y="-122"/>
			<point x="423" y="-121"/>
			<point x="430" y="-120" type="curve"/>
			<point x="430" y="604" type="line"/>
			<point x="498" y="612" type="line"/>
			<point x="502" y="619"/>
			<point x="504" y="625"/>
			<point x="504" y="631" type="curve" smooth="yes"/>
			<point x="504" y="635"/>
			<point x="503" y="640"/>
			<point x="501" y="645" type="curve"/>
			<point x="204" y="645" type="line" smooth="yes"/>
			<point x="100" y="645"/>
			<point x="25" y="567"/>
			<point x="25" y="445" type="curve" smooth="yes"/>
			<point x="25" y="323"/>
			<point x="100" y="245"/>
			<point x="204" y="245" type="curve" smooth="yes"/>
			<point x="234" y="245" type="line"/>
			<point x="234" y="-120" type="line"/>
			<point x="241" y="-121"/>
			<point x="250" y="-122"/>
			<point x="259" y="-122" type="curve" smooth="yes"/>
			<point x="268" y="-122"/>
			<point x="277" y="-121"/>
			<point x="284" y="-120" type="curve"/>
		</contour>
	</outline>
</glyph>
<glyph name="ordmasculine" format="1">
	<unicode hex="00BA"/>
	<advance width="402"/>
	<outline>
		<contour>
			<point x="88" y="473" type="curve" smooth="yes"/>
			<point x="88" y="558"/>
			<point x="133" y="614"/>
			<point x="201" y="614" type="curve" smooth="yes"/>
			<point x="269" y="614"/>
			<point x="314" y="558"/>
			<point x="314" y="473" type="curve" smooth="yes"/>
			<point x="314" y="388"/>
			<point x="269" y="332"/>
			<point x="201" y="332" type="curve" smooth="yes"/>
			<point x="133" y="332"/>
			<point x="88" y="388"/>
		</contour>
		<contour>
			<point x="367" y="473" type="curve" smooth="yes"/>
			<point x="367" y="583"/>
			<point x="301" y="655"/>
			<point x="201" y="655" type="curve" smooth="yes"/>
			<point x="101" y="655"/>
			<point x="35" y="583"/>
			<point x="35" y="473" type="curve" smooth="yes"/>
			<point x="35" y="363"/>
			<point x="101" y="291"/>
			<point x="201" y="291" type="curve" smooth="yes"/>
			<point x="301" y="291"/>
			<point x="367" y="363"/>
		</contour>
		<contour>
			<point x="347" y="187" type="line"/>
			<point x="350" y="195"/>
			<point x="352" y="204"/>
			<point x="352" y="211" type="curve" smooth="yes"/>
			<point x="352" y="217"/>
			<point x="351" y="223"/>
			<point x="349" y="229" type="curve"/>
			<point x="56" y="229" type="line"/>
			<point x="53" y="221"/>
			<point x="51" y="212"/>
			<point x="51" y="205" type="curve" smooth="yes"/>
			<point x="51" y="199"/>
			<point x="52" y="193"/>
			<point x="54" y="187" type="curve"/>
		</contour>
	</outline>
</glyph>
<glyph name="questiondown" format="1">
	<unicode hex="00BF"/>
	<advance width="449"/>
	<outline>
		<contour>
			<point x="232" y="-109" type="curve" smooth="yes"/>
			<point x="148" y="-109"/>
			<point x="104" y="-75"/>
			<point x="104" y="-12" type="curve" smooth="yes"/>
			<point x="104" y="33"/>
			<point x="122" y="62"/>
			<point x="182" y="115" type="curve" smooth="yes"/>
			<point x="276" y="198"/>
			<point x="290" y="221"/>
			<point x="286" y="280" type="curve" smooth="yes"/>
			<point x="282" y="330" type="line"/>
			<point x="277" y="331"/>
			<point x="269" y="332"/>
			<point x="263" y="332" type="curve" smooth="yes"/>
			<point x="257" y="332"/>
			<point x="249" y="331"/>
			<point x="244" y="330" type="curve"/>
			<point x="239" y="280" type="line" smooth="yes"/>
			<point x="235" y="234"/>
			<point x="223" y="215"/>
			<point x="140" y="144" type="curve" smooth="yes"/>
			<point x="72" y="85"/>
			<point x="50" y="43"/>
			<point x="50" y="-12" type="curve" smooth="yes"/>
			<point x="50" y="-102"/>
			<point x="116" y="-155"/>
			<point x="225" y="-155" type="curve" smooth="yes"/>
			<point x="275" y="-155"/>
			<point x="322" y="-143"/>
			<point x="369" y="-119" type="curve"/>
			<point x="377" y="-110"/>
			<point x="384" y="-98"/>
			<point x="388" y="-89" type="curve"/>
			<point x="389" y="42" type="line"/>
			<point x="384" y="44"/>
			<point x="379" y="45"/>
			<point x="374" y="45" type="curve" smooth="yes"/>
			<point x="368" y="45"/>
			<point x="361" y="43"/>
			<point x="355" y="39" type="curve"/>
			<point x="326" y="-88" type="line"/>
			<point x="296" y="-102"/>
			<point x="267" y="-109"/>
		</contour>
		<contour>
			<point x="263" y="510" type="curve" smooth="yes"/>
			<point x="232" y="510"/>
			<point x="213" y="491"/>
			<point x="213" y="463" type="curve" smooth="yes"/>
			<point x="213" y="435"/>
			<point x="232" y="416"/>
			<point x="263" y="416" type="curve" smooth="yes"/>
			<point x="294" y="416"/>
			<point x="313" y="435"/>
			<point x="313" y="463" type="curve" smooth="yes"/>
			<point x="313" y="491"/>
			<point x="294" y="510"/>
		</contour>
	</outline>
</glyph>
<glyph name="AE" format="1">
	<unicode hex="00C6"/>
	<advance width="920"/>
	<outline>
		<contour>
			<point x="844" y="0" type="line"/>
			<point x="853" y="7"/>
			<point x="862" y="17"/>
			<point x="868" y="26" type="curve"/>
			<point x="870" y="158" type="line"/>
			<point x="867" y="160"/>
			<point x="858" y="162"/>
			<point x="854" y="162" type="curve" smooth="yes"/>
			<point x="847" y="162"/>
			<point x="839" y="159"/>
			<point x="834" y="155" type="curve"/>
			<point x="809" y="46" type="line"/>
			<point x="505" y="46" type="line"/>
			<point x="505" y="307" type="line"/>
			<point x="704" y="307" type="line"/>
			<point x="717" y="239" type="line"/>
			<point x="722" y="235"/>
			<point x="730" y="232"/>
			<point x="737" y="232" type="curve" smooth="yes"/>
			<point x="741" y="232"/>
			<point x="750" y="234"/>
			<point x="753" y="236" type="curve"/>
			<point x="753" y="418" type="line"/>
			<point x="747" y="421" type="line" smooth="yes"/>
			<point x="740" y="424"/>
			<point x="735" y="426"/>
			<point x="731" y="426" type="curve" smooth="yes"/>
			<point x="722" y="426"/>
			<point x="716" y="420"/>
			<point x="714" y="408" type="curve" smooth="yes"/>
			<point x="704" y="352" type="line"/>
			<point x="505" y="352" type="line"/>
			<point x="505" y="599" type="line"/>
			<point x="799" y="599" type="line"/>
			<point x="824" y="490" type="line"/>
			<point x="829" y="486"/>
			<point x="837" y="483"/>
			<point x="844" y="483" type="curve" smooth="yes"/>
			<point x="848" y="483"/>
			<point x="857" y="485"/>
			<point x="860" y="487" type="curve"/>
			<point x="858" y="619" type="line"/>
			<point x="852" y="628"/>
			<point x="843" y="638"/>
			<point x="834" y="645" type="curve"/>
			<point x="296" y="645" type="line"/>
			<point x="294" y="637" type="line" smooth="yes"/>
			<point x="291" y="627"/>
			<point x="289" y="617"/>
			<point x="289" y="613" type="curve" smooth="yes"/>
			<point x="289" y="604"/>
			<point x="294" y="599"/>
			<point x="305" y="599" type="curve" smooth="yes"/>
			<point x="352" y="599" type="line"/>
			<point x="74" y="44" type="line"/>
			<point x="7" y="36" type="line"/>
			<point x="3" y="31"/>
			<point x="0" y="23"/>
			<point x="0" y="16" type="curve" smooth="yes"/>
			<point x="0" y="12"/>
			<point x="2" y="3"/>
			<point x="4" y="0" type="curve"/>
			<point x="201" y="0" type="line"/>
			<point x="203" y="8" type="line" smooth="yes"/>
			<point x="206" y="18"/>
			<point x="208" y="28"/>
			<point x="208" y="32" type="curve" smooth="yes"/>
			<point x="208" y="41"/>
			<point x="203" y="46"/>
			<point x="192" y="46" type="curve" smooth="yes"/>
			<point x="134" y="46" type="line"/>
			<point x="215" y="211" type="line"/>
			<point x="449" y="211" type="line"/>
			<point x="449" y="44" type="line"/>
			<point x="382" y="36" type="line"/>
			<point x="378" y="31"/>
			<point x="375" y="23"/>
			<point x="375" y="16" type="curve" smooth="yes"/>
			<point x="375" y="12"/>
			<point x="377" y="3"/>
			<point x="379" y="0" type="curve"/>
		</contour>
		<contour>
			<point x="406" y="599" type="line"/>
			<point x="449" y="599" type="line"/>
			<point x="449" y="254" type="line"/>
			<point x="236" y="254" type="line"/>
		</contour>
	</outline>
</glyph>
<glyph name="Eth" format="1">
	<unicode hex="00D0"/>
	<advance width="674"/>
	<outline>
		<contour>
			<point x="327" y="0" type="line" smooth="yes"/>
			<point x="507" y="0"/>
			<point x="624" y="123"/>
			<point x="624" y="323" type="curve" smooth="yes"/>
			<point x="624" y="522"/>
			<point x="507" y="645"/>
			<point x="327" y="645" type="curve" smooth="yes"/>
			<point x="58" y="645" type="line"/>
			<point x="56" y="637" type="line" smooth="yes"/>
			<point x="53" y="627"/>
			<point x="51" y="617"/>
			<point x="51" y="613" type="curve" smooth="yes"/>
			<point x="51" y="604"/>
			<point x="56" y="599"/>
			<point x="67" y="599" type="curve" smooth="yes"/>
			<point x="125" y="599" type="line"/>
			<point x="125" y="349" type="line"/>
			<point x="56" y="349" type="line"/>
			<point x="52" y="337"/>
			<point x="51" y="332"/>
			<point x="51" y="325" type="curve" smooth="yes"/>
			<point x="51" y="320"/>
			<point x="52" y="313"/>
			<point x="54" y="305" type="curve"/>
			<point x="125" y="305" type="line"/>
			<point x="125" y="44" type="line"/>
			<point x="58" y="36" type="line"/>
			<point x="54" y="31"/>
			<point x="51" y="23"/>
			<point x="51" y="16" type="curve" smooth="yes"/>
			<point x="51" y="12"/>
			<point x="53" y="3"/>
			<point x="55" y="0" type="curve"/>
		</contour>
		<contour>
			<point x="181" y="46" type="line"/>
			<point x="181" y="305" type="line"/>
			<point x="347" y="305" type="line"/>
			<point x="351" y="317"/>
			<point x="352" y="322"/>
			<point x="352" y="329" type="curve" smooth="yes"/>
			<point x="352" y="334"/>
			<point x="351" y="341"/>
			<point x="349" y="349" type="curve"/>
			<point x="181" y="349" type="line"/>
			<point x="181" y="599" type="line"/>
			<point x="327" y="599" type="line" smooth="yes"/>
			<point x="476" y="599"/>
			<point x="565" y="489"/>
			<point x="565" y="323" type="curve" smooth="yes"/>
			<point x="565" y="156"/>
			<point x="476" y="46"/>
			<point x="327" y="46" type="curve" smooth="yes"/>
		</contour>
	</outline>
</glyph>
<glyph name="multiply" format="1">
	<unicode hex="00D7"/>
	<advance width="560"/>
	<outline>
		<contour>
			<point x="435" y="133" type="line"/>
			<point x="450" y="141"/>
			<point x="458" y="149"/>
			<point x="470" y="166" type="curve"/>
			<point x="314" y="322" type="line"/>
			<point x="470" y="478" type="line"/>
			<point x="463" y="491"/>
			<point x="452" y="502"/>
			<point x="437" y="511" type="curve"/>
			<point x="281" y="355" type="line"/>
			<point x="125" y="511" type="line"/>
			<point x="110" y="503"/>
			<point x="102" y="495"/>
			<point x="90" y="478" type="curve"/>
			<point x="246" y="322" type="line"/>
			<point x="90" y="166" type="line"/>
			<point x="97" y="153"/>
			<point x="108" y="142"/>
			<point x="123" y="133" type="curve"/>
			<point x="279" y="289" type="line"/>
		</contour>
	</outline>
</glyph>
<glyph name="Thorn" format="1">
	<unicode hex="00DE"/>
	<advance width="547"/>
	<outline>
		<contour>
			<point x="181" y="601" type="line"/>
			<point x="248" y="609" type="line"/>
			<point x="252" y="614"/>
			<point x="255" y="622"/>
			<point x="255" y="629" type="curve" smooth="yes"/>
			<point x="255" y="633"/>
			<point x="253" y="642"/>
			<point x="251" y="645" type="curve"/>
			<point x="58" y="645" type="line"/>
			<point x="56" y="637" type="line" smooth="yes"/>
			<point x="53" y="627"/>
			<point x="51" y="617"/>
			<point x="51" y="613" type="curve" smooth="yes"/>
			<point x="51" y="604"/>
			<point x="56" y="599"/>
			<point x="67" y="599" type="curve" smooth="yes"/>
			<point x="125" y="599" type="line"/>
			<point x="125" y="44" type="line"/>
			<point x="58" y="36" type="line"/>
			<point x="54" y="31"/>
			<point x="51" y="23"/>
			<point x="51" y="16" type="curve" smooth="yes"/>
			<point x="51" y="12"/>
			<point x="53" y="3"/>
			<point x="55" y="0" type="curve"/>
			<point x="248" y="0" type="line"/>
			<point x="250" y="8" type="line" smooth="yes"/>
			<point x="253" y="18"/>
			<point x="255" y="28"/>
			<point x="255" y="32" type="curve" smooth="yes"/>
			<point x="255" y="41"/>
			<point x="250" y="46"/>
			<point x="239" y="46" type="curve" smooth="yes"/>
			<point x="181" y="46" type="line"/>
			<point x="181" y="129" type="line"/>
			<point x="307" y="129" type="line" smooth="yes"/>
			<point x="474" y="129"/>
			<point x="535" y="237"/>
			<point x="535" y="325" type="curve" smooth="yes"/>
			<point x="535" y="413"/>
			<point x="474" y="521"/>
			<point x="307" y="521" type="curve" smooth="yes"/>
			<point x="181" y="521" type="line"/>
		</contour>
		<contour>
			<point x="181" y="475" type="line"/>
			<point x="307" y="475" type="line" smooth="yes"/>
			<point x="411" y="475"/>
			<point x="476" y="417"/>
			<point x="476" y="325" type="curve" smooth="yes"/>
			<point x="476" y="233"/>
			<point x="411" y="175"/>
			<point x="307" y="175" type="curve" smooth="yes"/>
			<point x="181" y="175" type="line"/>
		</contour>
	</outline>
</glyph>
<glyph name="germandbls" format="1">
	<unicode hex="00DF"/>
	<advance width="566"/>
	<outline>
		<contour>
			<point x="546" y="125" type="curve" smooth="yes"/>
			<point x="546" y="195"/>
			<point x="518" y="238"/>
			<point x="433" y="299" type="curve" smooth="yes"/>
			<point x="383" y="335"/>
			<point x="366" y="355"/>
			<point x="366" y="380" type="curve" smooth="yes"/>
			<point x="366" y="397"/>
			<point x="374" y="419"/>
			<point x="396" y="459" type="curve" smooth="yes"/>
			<point x="415" y="495"/>
			<point x="423" y="520"/>
			<point x="423" y="547" type="curve" smooth="yes"/>
			<point x="423" y="623"/>
			<point x="355" y="680"/>
			<point x="264" y="680" type="curve" smooth="yes"/>
			<point x="169" y="680"/>
			<point x="105" y="616"/>
			<point x="105" y="520" type="curve" smooth="yes"/>
			<point x="105" y="41" type="line"/>
			<point x="37" y="33" type="line"/>
			<point x="33" y="26"/>
			<point x="31" y="20"/>
			<point x="31" y="14" type="curve" smooth="yes"/>
			<point x="31" y="10"/>
			<point x="32" y="5"/>
			<point x="34" y="0" type="curve"/>
			<point x="202" y="0" type="line"/>
			<point x="204" y="8" type="line" smooth="yes"/>
			<point x="207" y="19"/>
			<point x="208" y="26"/>
			<point x="208" y="29" type="curve" smooth="yes"/>
			<point x="208" y="38"/>
			<point x="203" y="43"/>
			<point x="192" y="43" type="curve" smooth="yes"/>
			<point x="159" y="43" type="line"/>
			<point x="159" y="520" type="line" smooth="yes"/>
			<point x="159" y="589"/>
			<point x="200" y="633"/>
			<point x="265" y="633" type="curve" smooth="yes"/>
			<point x="324" y="633"/>
			<point x="369" y="596"/>
			<point x="369" y="547" type="curve" smooth="yes"/>
			<point x="369" y="521"/>
			<point x="362" y="499"/>
			<point x="342" y="465" type="curve" smooth="yes"/>
			<point x="320" y="428"/>
			<point x="312" y="406"/>
			<point x="312" y="380" type="curve" smooth="yes"/>
			<point x="312" y="333"/>
			<point x="333" y="305"/>
			<point x="404" y="257" type="curve" smooth="yes"/>
			<point x="467" y="214"/>
			<point x="491" y="178"/>
			<point x="491" y="126" type="curve" smooth="yes"/>
			<point x="491" y="68"/>
			<point x="452" y="34"/>
			<point x="386" y="34" type="curve" smooth="yes"/>
			<point x="367" y="34"/>
			<point x="347" y="35"/>
			<point x="330" y="38" type="curve"/>
			<point x="310" y="137" type="line"/>
			<point x="304" y="141"/>
			<point x="297" y="143"/>
			<point x="291" y="143" type="curve" smooth="yes"/>
			<point x="286" y="143"/>
			<point x="281" y="142"/>
			<point x="276" y="140" type="curve"/>
			<point x="278" y="31" type="line"/>
			<point x="283" y="20"/>
			<point x="290" y="9"/>
			<point x="297" y="1" type="curve"/>
			<point x="323" y="-6"/>
			<point x="354" y="-10"/>
			<point x="386" y="-10" type="curve" smooth="yes"/>
			<point x="484" y="-10"/>
			<point x="546" y="42"/>
		</contour>
	</outline>
</glyph>
<glyph name="ae" format="1">
	<unicode hex="00E6"/>
	<advance width="823"/>
	<outline>
		<contour>
			<point x="759" y="261" type="line"/>
			<point x="766" y="269"/>
			<point x="773" y="280"/>
			<point x="778" y="291" type="curve"/>
			<point x="778" y="436"/>
			<point x="716" y="510"/>
			<point x="594" y="510" type="curve" smooth="yes"/>
			<point x="520" y="510"/>
			<point x="453" y="470"/>
			<point x="412" y="401" type="curve"/>
			<point x="386" y="474"/>
			<point x="327" y="510"/>
			<point x="235" y="510" type="curve" smooth="yes"/>
			<point x="176" y="510"/>
			<point x="115" y="490"/>
			<point x="62" y="454" type="curve"/>
			<point x="62" y="444"/>
			<point x="71" y="425"/>
			<point x="81" y="417" type="curve"/>
			<point x="126" y="447"/>
			<point x="184" y="465"/>
			<point x="232" y="465" type="curve" smooth="yes"/>
			<point x="323" y="465"/>
			<point x="371" y="412"/>
			<point x="371" y="311" type="curve" smooth="yes"/>
			<point x="371" y="289" type="line"/>
			<point x="254" y="285" type="line"/>
			<point x="115" y="279"/>
			<point x="39" y="224"/>
			<point x="39" y="130" type="curve" smooth="yes"/>
			<point x="39" y="47"/>
			<point x="101" y="-10"/>
			<point x="193" y="-10" type="curve" smooth="yes"/>
			<point x="282" y="-10"/>
			<point x="354" y="33"/>
			<point x="397" y="112" type="curve"/>
			<point x="437" y="34"/>
			<point x="509" y="-10"/>
			<point x="600" y="-10" type="curve" smooth="yes"/>
			<point x="659" y="-10"/>
			<point x="721" y="7"/>
			<point x="774" y="37" type="curve"/>
			<point x="772" y="50"/>
			<point x="767" y="63"/>
			<point x="757" y="74" type="curve"/>
			<point x="722" y="55"/>
			<point x="661" y="38"/>
			<point x="609" y="38" type="curve" smooth="yes"/>
			<point x="496" y="38"/>
			<point x="424" y="120"/>
			<point x="423" y="247" type="curve"/>
		</contour>
		<contour>
			<point x="198" y="34" type="curve" smooth="yes"/>
			<point x="135" y="34"/>
			<point x="94" y="73"/>
			<point x="94" y="132" type="curve" smooth="yes"/>
			<point x="94" y="200"/>
			<point x="148" y="237"/>
			<point x="254" y="241" type="curve" smooth="yes"/>
			<point x="371" y="245" type="line"/>
			<point x="371" y="188" type="line" smooth="yes"/>
			<point x="371" y="109"/>
			<point x="286" y="34"/>
		</contour>
		<contour>
			<point x="594" y="466" type="curve" smooth="yes"/>
			<point x="680" y="466"/>
			<point x="725" y="410"/>
			<point x="725" y="304" type="curve"/>
			<point x="425" y="291" type="line"/>
			<point x="438" y="398"/>
			<point x="502" y="466"/>
		</contour>
	</outline>
</glyph>
<glyph name="eth" format="1">
	<unicode hex="00F0"/>
	<advance width="536"/>
	<outline>
		<contour>
			<point x="367" y="652" type="line"/>
			<point x="362" y="669"/>
			<point x="355" y="674"/>
			<point x="341" y="680" type="curve"/>
			<point x="290" y="628" type="line"/>
			<point x="266" y="647"/>
			<point x="240" y="664"/>
			<point x="213" y="680" type="curve"/>
			<point x="201" y="667"/>
			<point x="195" y="657"/>
			<point x="191" y="644" type="curve"/>
			<point x="215" y="629"/>
			<point x="238" y="614"/>
			<point x="259" y="597" type="curve"/>
			<point x="212" y="549" type="line"/>
			<point x="217" y="532"/>
			<point x="224" y="527"/>
			<point x="237" y="521" type="curve"/>
			<point x="289" y="573" type="line"/>
			<point x="332" y="534"/>
			<point x="368" y="490"/>
			<point x="397" y="439" type="curve"/>
			<point x="359" y="470"/>
			<point x="315" y="486"/>
			<point x="265" y="486" type="curve" smooth="yes"/>
			<point x="136" y="486"/>
			<point x="43" y="382"/>
			<point x="43" y="238" type="curve" smooth="yes"/>
			<point x="43" y="90"/>
			<point x="133" y="-10"/>
			<point x="265" y="-10" type="curve" smooth="yes"/>
			<point x="402" y="-10"/>
			<point x="493" y="97"/>
			<point x="493" y="257" type="curve" smooth="yes"/>
			<point x="493" y="383"/>
			<point x="425" y="509"/>
			<point x="319" y="604" type="curve"/>
		</contour>
		<contour>
			<point x="439" y="257" type="curve" smooth="yes"/>
			<point x="439" y="124"/>
			<point x="369" y="34"/>
			<point x="265" y="34" type="curve" smooth="yes"/>
			<point x="166" y="34"/>
			<point x="100" y="116"/>
			<point x="100" y="238" type="curve" smooth="yes"/>
			<point x="100" y="361"/>
			<point x="168" y="441"/>
			<point x="272" y="441" type="curve" smooth="yes"/>
			<point x="332" y="441"/>
			<point x="384" y="415"/>
			<point x="419" y="369" type="curve"/>
			<point x="434" y="320"/>
			<point x="439" y="292"/>
		</contour>
	</outline>
</glyph>
<glyph name="thorn" format="1">
	<unicode hex="00FE"/>
	<advance width="563"/>
	<outline>
		<contour>
			<point x="285" y="-10" type="curve" smooth="yes"/>
			<point x="427" y="-10"/>
			<point x="520" y="95"/>
			<point x="520" y="255" type="curve" smooth="yes"/>
			<point x="520" y="405"/>
			<point x="437" y="510"/>
			<point x="320" y="510" type="curve" smooth="yes"/>
			<point x="247" y="510"/>
			<point x="181" y="467"/>
			<point x="144" y="399" type="curve"/>
			<point x="144" y="653" type="line"/>
			<point x="137" y="661"/>
			<point x="127" y="669"/>
			<point x="116" y="675" type="curve"/>
			<point x="12" y="656" type="line"/>
			<point x="8" y="649"/>
			<point x="6" y="643"/>
			<point x="6" y="637" type="curve" smooth="yes"/>
			<point x="6" y="633"/>
			<point x="7" y="628"/>
			<point x="9" y="623" type="curve"/>
			<point x="90" y="623" type="line"/>
			<point x="90" y="-144" type="line"/>
			<point x="22" y="-152" type="line"/>
			<point x="18" y="-159"/>
			<point x="16" y="-165"/>
			<point x="16" y="-171" type="curve" smooth="yes"/>
			<point x="16" y="-175"/>
			<point x="17" y="-180"/>
			<point x="19" y="-185" type="curve"/>
			<point x="262" y="-185" type="line"/>
			<point x="264" y="-177" type="line" smooth="yes"/>
			<point x="267" y="-166"/>
			<point x="268" y="-159"/>
			<point x="268" y="-156" type="curve" smooth="yes"/>
			<point x="268" y="-147"/>
			<point x="263" y="-142"/>
			<point x="252" y="-142" type="curve" smooth="yes"/>
			<point x="144" y="-142" type="line"/>
			<point x="144" y="42" type="line"/>
			<point x="183" y="8"/>
			<point x="232" y="-10"/>
		</contour>
		<contour>
			<point x="463" y="255" type="curve" smooth="yes"/>
			<point x="463" y="119"/>
			<point x="395" y="35"/>
			<point x="285" y="35" type="curve" smooth="yes"/>
			<point x="237" y="35"/>
			<point x="188" y="55"/>
			<point x="144" y="93" type="curve"/>
			<point x="144" y="266" type="line" smooth="yes"/>
			<point x="144" y="373"/>
			<point x="223" y="466"/>
			<point x="315" y="466" type="curve" smooth="yes"/>
			<point x="402" y="466"/>
			<point x="463" y="379"/>
		</contour>
	</outline>
</glyph>
<glyph name="Hbar" format="1">
	<unicode hex="0126"/>
	<advance width="724"/>
	<outline>
		<contour>
			<point x="599" y="601" type="line"/>
			<point x="666" y="609" type="line"/>
			<point x="670" y="614"/>
			<point x="673" y="622"/>
			<point x="673" y="629" type="curve" smooth="yes"/>
			<point x="673" y="633"/>
			<point x="671" y="642"/>
			<point x="669" y="645" type="curve"/>
			<point x="476" y="645" type="line"/>
			<point x="474" y="637" type="line" smooth="yes"/>
			<point x="471" y="627"/>
			<point x="469" y="617"/>
			<point x="469" y="613" type="curve" smooth="yes"/>
			<point x="469" y="604"/>
			<point x="474" y="599"/>
			<point x="485" y="599" type="curve" smooth="yes"/>
			<point x="543" y="599" type="line"/>
			<point x="543" y="499" type="line"/>
			<point x="181" y="499" type="line"/>
			<point x="181" y="601" type="line"/>
			<point x="248" y="609" type="line"/>
			<point x="252" y="614"/>
			<point x="255" y="622"/>
			<point x="255" y="629" type="curve" smooth="yes"/>
			<point x="255" y="633"/>
			<point x="253" y="642"/>
			<point x="251" y="645" type="curve"/>
			<point x="58" y="645" type="line"/>
			<point x="56" y="637" type="line" smooth="yes"/>
			<point x="53" y="627"/>
			<point x="51" y="617"/>
			<point x="51" y="613" type="curve" smooth="yes"/>
			<point x="51" y="604"/>
			<point x="56" y="599"/>
			<point x="67" y="599" type="curve" smooth="yes"/>
			<point x="125" y="599" type="line"/>
			<point x="125" y="499" type="line"/>
			<point x="56" y="499" type="line"/>
			<point x="52" y="488"/>
			<point x="51" y="483"/>
			<point x="51" y="476" type="curve" smooth="yes"/>
			<point x="51" y="471"/>
			<point x="52" y="464"/>
			<point x="54" y="457" type="curve"/>
			<point x="125" y="457" type="line"/>
			<point x="125" y="44" type="line"/>
			<point x="58" y="36" type="line"/>
			<point x="54" y="31"/>
			<point x="51" y="23"/>
			<point x="51" y="16" type="curve" smooth="yes"/>
			<point x="51" y="12"/>
			<point x="53" y="3"/>
			<point x="55" y="0" type="curve"/>
			<point x="248" y="0" type="line"/>
			<point x="250" y="8" type="line" smooth="yes"/>
			<point x="253" y="18"/>
			<point x="255" y="28"/>
			<point x="255" y="32" type="curve" smooth="yes"/>
			<point x="255" y="41"/>
			<point x="250" y="46"/>
			<point x="239" y="46" type="curve" smooth="yes"/>
			<point x="181" y="46" type="line"/>
			<point x="181" y="309" type="line"/>
			<point x="543" y="309" type="line"/>
			<point x="543" y="44" type="line"/>
			<point x="476" y="36" type="line"/>
			<point x="472" y="31"/>
			<point x="469" y="23"/>
			<point x="469" y="16" type="curve" smooth="yes"/>
			<point x="469" y="12"/>
			<point x="471" y="3"/>
			<point x="473" y="0" type="curve"/>
			<point x="666" y="0" type="line"/>
			<point x="668" y="8" type="line" smooth="yes"/>
			<point x="671" y="18"/>
			<point x="673" y="28"/>
			<point x="673" y="32" type="curve" smooth="yes"/>
			<point x="673" y="41"/>
			<point x="668" y="46"/>
			<point x="657" y="46" type="curve" smooth="yes"/>
			<point x="599" y="46" type="line"/>
			<point x="599" y="457" type="line"/>
			<point x="668" y="457" type="line"/>
			<point x="672" y="468"/>
			<point x="673" y="473"/>
			<point x="673" y="480" type="curve" smooth="yes"/>
			<point x="673" y="485"/>
			<point x="672" y="492"/>
			<point x="670" y="499" type="curve"/>
			<point x="599" y="499" type="line"/>
		</contour>
		<contour>
			<point x="181" y="353" type="line"/>
			<point x="181" y="457" type="line"/>
			<point x="543" y="457" type="line"/>
			<point x="543" y="353" type="line"/>
		</contour>
	</outline>
</glyph>
<glyph name="OE" format="1">
	<unicode hex="0152"/>
	<advance width="916"/>
	<outline>
		<contour>
			<point x="840" y="0" type="line"/>
			<point x="849" y="7"/>
			<point x="858" y="17"/>
			<point x="864" y="26" type="curve"/>
			<point x="866" y="158" type="line"/>
			<point x="863" y="160"/>
			<point x="854" y="162"/>
			<point x="850" y="162" type="curve" smooth="yes"/>
			<point x="843" y="162"/>
			<point x="835" y="159"/>
			<point x="830" y="155" type="curve"/>
			<point x="805" y="46" type="line"/>
			<point x="501" y="46" type="line"/>
			<point x="501" y="307" type="line"/>
			<point x="700" y="307" type="line"/>
			<point x="713" y="239" type="line"/>
			<point x="718" y="235"/>
			<point x="726" y="232"/>
			<point x="733" y="232" type="curve" smooth="yes"/>
			<point x="737" y="232"/>
			<point x="746" y="234"/>
			<point x="749" y="236" type="curve"/>
			<point x="749" y="418" type="line"/>
			<point x="743" y="421" type="line" smooth="yes"/>
			<point x="736" y="424"/>
			<point x="731" y="426"/>
			<point x="727" y="426" type="curve" smooth="yes"/>
			<point x="718" y="426"/>
			<point x="712" y="420"/>
			<point x="710" y="408" type="curve" smooth="yes"/>
			<point x="700" y="352" type="line"/>
			<point x="501" y="352" type="line"/>
			<point x="501" y="599" type="line"/>
			<point x="795" y="599" type="line"/>
			<point x="820" y="490" type="line"/>
			<point x="825" y="486"/>
			<point x="833" y="483"/>
			<point x="840" y="483" type="curve" smooth="yes"/>
			<point x="844" y="483"/>
			<point x="853" y="485"/>
			<point x="856" y="487" type="curve"/>
			<point x="854" y="619" type="line"/>
			<point x="848" y="628"/>
			<point x="839" y="638"/>
			<point x="830" y="645" type="curve"/>
			<point x="347" y="645" type="line" smooth="yes"/>
			<point x="167" y="645"/>
			<point x="50" y="522"/>
			<point x="50" y="323" type="curve" smooth="yes"/>
			<point x="50" y="123"/>
			<point x="167" y="0"/>
			<point x="347" y="0" type="curve" smooth="yes"/>
		</contour>
		<contour>
			<point x="109" y="323" type="curve" smooth="yes"/>
			<point x="109" y="489"/>
			<point x="198" y="599"/>
			<point x="347" y="599" type="curve" smooth="yes"/>
			<point x="445" y="599" type="line"/>
			<point x="445" y="46" type="line"/>
			<point x="347" y="46" type="line" smooth="yes"/>
			<point x="198" y="46"/>
			<point x="109" y="156"/>
		</contour>
	</outline>
</glyph>
<glyph name="oe" format="1">
	<unicode hex="0153"/>
	<advance width="900"/>
	<outline>
		<contour>
			<point x="677" y="-10" type="curve" smooth="yes"/>
			<point x="736" y="-10"/>
			<point x="798" y="7"/>
			<point x="851" y="37" type="curve"/>
			<point x="849" y="50"/>
			<point x="844" y="63"/>
			<point x="834" y="74" type="curve"/>
			<point x="799" y="55"/>
			<point x="738" y="38"/>
			<point x="686" y="38" type="curve" smooth="yes"/>
			<point x="573" y="38"/>
			<point x="500" y="121"/>
			<point x="500" y="250" type="curve" smooth="yes"/>
			<point x="500" y="261" type="line"/>
			<point x="836" y="261" type="line"/>
			<point x="843" y="269"/>
			<point x="850" y="280"/>
			<point x="855" y="291" type="curve"/>
			<point x="855" y="436"/>
			<point x="793" y="510"/>
			<point x="671" y="510" type="curve" smooth="yes"/>
			<point x="582" y="510"/>
			<point x="515" y="461"/>
			<point x="478" y="379" type="curve"/>
			<point x="444" y="461"/>
			<point x="367" y="510"/>
			<point x="274" y="510" type="curve" smooth="yes"/>
			<point x="135" y="510"/>
			<point x="43" y="406"/>
			<point x="43" y="250" type="curve" smooth="yes"/>
			<point x="43" y="94"/>
			<point x="135" y="-10"/>
			<point x="274" y="-10" type="curve" smooth="yes"/>
			<point x="365" y="-10"/>
			<point x="432" y="36"/>
			<point x="471" y="124" type="curve"/>
			<point x="503" y="42"/>
			<point x="583" y="-10"/>
		</contour>
		<contour>
			<point x="100" y="250" type="curve" smooth="yes"/>
			<point x="100" y="379"/>
			<point x="169" y="466"/>
			<point x="274" y="466" type="curve" smooth="yes"/>
			<point x="379" y="466"/>
			<point x="448" y="379"/>
			<point x="448" y="250" type="curve" smooth="yes"/>
			<point x="448" y="121"/>
			<point x="379" y="34"/>
			<point x="274" y="34" type="curve" smooth="yes"/>
			<point x="169" y="34"/>
			<point x="100" y="121"/>
		</contour>
		<contour>
			<point x="671" y="466" type="curve" smooth="yes"/>
			<point x="757" y="466"/>
			<point x="802" y="410"/>
			<point x="802" y="304" type="curve"/>
			<point x="504" y="304" type="line"/>
			<point x="520" y="404"/>
			<point x="583" y="466"/>
		</contour>
	</outline>
</glyph>
<glyph name="Uogonek" format="1">
	<unicode hex="0172"/>
	<advance width="698"/>
	<outline>
		<contour>
			<point x="398" y="-93" type="curve" smooth="yes"/>
			<point x="398" y="-61"/>
			<point x="414" y="-37"/>
			<point x="458" y="1" type="curve" smooth="yes"/>
			<point x="556" y="84"/>
			<point x="583" y="132"/>
			<point x="583" y="221" type="curve" smooth="yes"/>
			<point x="583" y="601" type="line"/>
			<point x="650" y="609" type="line"/>
			<point x="654" y="614"/>
			<point x="657" y="622"/>
			<point x="657" y="629" type="curve" smooth="yes"/>
			<point x="657" y="633"/>
			<point x="655" y="642"/>
			<point x="653" y="645" type="curve"/>
			<point x="463" y="645" type="line"/>
			<point x="461" y="637" type="line" smooth="yes"/>
			<point x="458" y="627"/>
			<point x="456" y="617"/>
			<point x="456" y="613" type="curve" smooth="yes"/>
			<point x="456" y="604"/>
			<point x="461" y="599"/>
			<point x="472" y="599" type="curve" smooth="yes"/>
			<point x="530" y="599" type="line"/>
			<point x="530" y="221" type="line" smooth="yes"/>
			<point x="530" y="115"/>
			<point x="465" y="37"/>
			<point x="349" y="37" type="curve" smooth="yes"/>
			<point x="233" y="37"/>
			<point x="171" y="115"/>
			<point x="171" y="221" type="curve" smooth="yes"/>
			<point x="171" y="601" type="line"/>
			<point x="238" y="609" type="line"/>
			<point x="242" y="614"/>
			<point x="245" y="622"/>
			<point x="245" y="629" type="curve" smooth="yes"/>
			<point x="245" y="633"/>
			<point x="243" y="642"/>
			<point x="241" y="645" type="curve"/>
			<point x="48" y="645" type="line"/>
			<point x="46" y="637" type="line" smooth="yes"/>
			<point x="43" y="627"/>
			<point x="41" y="617"/>
			<point x="41" y="613" type="curve" smooth="yes"/>
			<point x="41" y="604"/>
			<point x="46" y="599"/>
			<point x="57" y="599" type="curve" smooth="yes"/>
			<point x="115" y="599" type="line"/>
			<point x="115" y="221" type="line" smooth="yes"/>
			<point x="115" y="69"/>
			<point x="218" y="-10"/>
			<point x="349" y="-10" type="curve" smooth="yes"/>
			<point x="365" y="-10"/>
			<point x="381" y="-9"/>
			<point x="396" y="-6" type="curve"/>
			<point x="362" y="-39"/>
			<point x="343" y="-74"/>
			<point x="343" y="-107" type="curve" smooth="yes"/>
			<point x="343" y="-151"/>
			<point x="371" y="-179"/>
			<point x="416" y="-179" type="curve" smooth="yes"/>
			<point x="440" y="-179"/>
			<point x="468" y="-173"/>
			<point x="481" y="-164" type="curve"/>
			<point x="481" y="-152"/>
			<point x="478" y="-142"/>
			<point x="472" y="-129" type="curve"/>
			<point x="461" y="-131"/>
			<point x="451" y="-132"/>
			<point x="441" y="-132" type="curve" smooth="yes"/>
			<point x="411" y="-132"/>
			<point x="398" y="-121"/>
		</contour>
	</outline>
</glyph>
<glyph name="longs" format="1">
	<unicode hex="017F"/>
	<advance width="314"/>
	<outline>
		<contour>
			<point x="267" y="0" type="line"/>
			<point x="269" y="8" type="line" smooth="yes"/>
			<point x="272" y="19"/>
			<point x="273" y="26"/>
			<point x="273" y="29" type="curve" smooth="yes"/>
			<point x="273" y="38"/>
			<point x="268" y="43"/>
			<point x="257" y="43" type="curve" smooth="yes"/>
			<point x="159" y="43" type="line"/>
			<point x="159" y="520" type="line" smooth="yes"/>
			<point x="159" y="594"/>
			<point x="199" y="633"/>
			<point x="275" y="633" type="curve" smooth="yes"/>
			<point x="299" y="633"/>
			<point x="331" y="629"/>
			<point x="355" y="624" type="curve"/>
			<point x="362" y="636"/>
			<point x="365" y="648"/>
			<point x="366" y="662" type="curve"/>
			<point x="337" y="673"/>
			<point x="298" y="680"/>
			<point x="264" y="680" type="curve" smooth="yes"/>
			<point x="166" y="680"/>
			<point x="105" y="618"/>
			<point x="105" y="520" type="curve" smooth="yes"/>
			<point x="105" y="41" type="line"/>
			<point x="37" y="33" type="line"/>
			<point x="33" y="26"/>
			<point x="31" y="20"/>
			<point x="31" y="14" type="curve" smooth="yes"/>
			<point x="31" y="10"/>
			<point x="32" y="5"/>
			<point x="34" y="0" type="curve"/>
		</contour>
	</outline>
</glyph>
<glyph name="florin" format="1">
	<unicode hex="0192"/>
	<advance width="362"/>
	<outline>
		<contour>
			<point x="169" y="456" type="line"/>
			<point x="317" y="456" type="line"/>
			<point x="319" y="465" type="line" smooth="yes"/>
			<point x="322" y="476"/>
			<point x="323" y="483"/>
			<point x="323" y="486" type="curve" smooth="yes"/>
			<point x="323" y="495"/>
			<point x="318" y="500"/>
			<point x="307" y="500" type="curve" smooth="yes"/>
			<point x="169" y="500" type="line"/>
			<point x="169" y="520" type="line" smooth="yes"/>
			<point x="169" y="594"/>
			<point x="209" y="633"/>
			<point x="285" y="633" type="curve" smooth="yes"/>
			<point x="309" y="633"/>
			<point x="341" y="629"/>
			<point x="365" y="624" type="curve"/>
			<point x="372" y="636"/>
			<point x="375" y="648"/>
			<point x="376" y="662" type="curve"/>
			<point x="347" y="673"/>
			<point x="308" y="680"/>
			<point x="274" y="680" type="curve" smooth="yes"/>
			<point x="176" y="680"/>
			<point x="115" y="618"/>
			<point x="115" y="520" type="curve" smooth="yes"/>
			<point x="115" y="499" type="line"/>
			<point x="42" y="490" type="line"/>
			<point x="38" y="483"/>
			<point x="36" y="476"/>
			<point x="36" y="470" type="curve" smooth="yes"/>
			<point x="36" y="466"/>
			<point x="37" y="461"/>
			<point x="39" y="456" type="curve"/>
			<point x="115" y="456" type="line"/>
			<point x="115" y="-35" type="line" smooth="yes"/>
			<point x="115" y="-122"/>
			<point x="95" y="-148"/>
			<point x="30" y="-148" type="curve" smooth="yes"/>
			<point x="8" y="-148"/>
			<point x="-12" y="-145"/>
			<point x="-31" y="-139" type="curve"/>
			<point x="-38" y="-151"/>
			<point x="-41" y="-163"/>
			<point x="-42" y="-177" type="curve"/>
			<point x="-22" y="-187"/>
			<point x="6" y="-195"/>
			<point x="42" y="-195" type="curve" smooth="yes"/>
			<point x="129" y="-195"/>
			<point x="169" y="-145"/>
			<point x="169" y="-35" type="curve" smooth="yes"/>
		</contour>
	</outline>
</glyph>
<glyph name="gravecomb" format="1">
	<unicode hex="0300"/>
	<outline>
		<contour>
			<point x="47" y="556" type="line"/>
			<point x="59" y="564"/>
			<point x="67" y="571"/>
			<point x="74" y="581" type="curve"/>
			<point x="-13" y="683" type="line"/>
			<point x="-64" y="735" type="line"/>
			<point x="-81" y="721"/>
			<point x="-90" y="713"/>
			<point x="-103" y="697" type="curve"/>
			<point x="-52" y="644" type="line"/>
		</contour>
		<contour>
			<point name="_top.LC" x="0" y="530" type="move"/>
		</contour>
	</outline>
</glyph>
<glyph name="acutecomb" format="1">
	<unicode hex="0301"/>
	<outline>
		<contour>
			<point x="52" y="644" type="line"/>
			<point x="103" y="697" type="line"/>
			<point x="90" y="713"/>
			<point x="81" y="721"/>
			<point x="64" y="735" type="curve"/>
			<point x="13" y="683" type="line"/>
			<point x="-74" y="581" type="line"/>
			<point x="-67" y="571"/>
			<point x="-59" y="564"/>
			<point x="-47" y="556" type="curve"/>
		</contour>
		<contour>
			<point name="_top.LC" x="0" y="530" type="move"/>
		</contour>
	</outline>
</glyph>
<glyph name="circumflexcomb" format="1">
	<unicode hex="0302"/>
	<outline>
		<contour>
			<point x="115" y="556" type="line"/>
			<point x="128" y="566"/>
			<point x="135" y="574"/>
			<point x="140" y="583" type="curve"/>
			<point x="22" y="714" type="line"/>
			<point x="16" y="715"/>
			<point x="8" y="716"/>
			<point x="1" y="716" type="curve" smooth="yes"/>
			<point x="-6" y="716"/>
			<point x="-14" y="715"/>
			<point x="-20" y="714" type="curve"/>
			<point x="-140" y="581" type="line"/>
			<point x="-135" y="572"/>
			<point x="-130" y="566"/>
			<point x="-117" y="556" type="curve"/>
			<point x="0" y="660" type="line"/>
		</contour>
		<contour>
			<point name="_top.LC" x="0" y="530" type="move"/>
		</contour>
	</outline>
</glyph>
<glyph name="macroncomb" format="1">
	<unicode hex="0304"/>
	<outline>
		<contour>
			<point x="129" y="610" type="line"/>
			<point x="132" y="619"/>
			<point x="134" y="627"/>
			<point x="134" y="633" type="curve" smooth="yes"/>
			<point x="134" y="639"/>
			<point x="133" y="646"/>
			<point x="131" y="654" type="curve"/>
			<point x="-129" y="654" type="line"/>
			<point x="-132" y="645"/>
			<point x="-134" y="637"/>
			<point x="-134" y="631" type="curve" smooth="yes"/>
			<point x="-134" y="625"/>
			<point x="-133" y="618"/>
			<point x="-131" y="610" type="curve"/>
		</contour>
		<contour>
			<point name="_top.LC" x="0" y="530" type="move"/>
		</contour>
	</outline>
</glyph>
<glyph name="brevecomb" format="1">
	<unicode hex="0306"/>
	<outline>
		<contour>
			<point x="141" y="662" type="curve"/>
			<point x="136" y="672"/>
			<point x="124" y="684"/>
			<point x="111" y="692" type="curve"/>
			<point x="69" y="646"/>
			<point x="42" y="631"/>
			<point x="0" y="631" type="curve" smooth="yes"/>
			<point x="-42" y="631"/>
			<point x="-69" y="646"/>
			<point x="-111" y="692" type="curve"/>
			<point x="-124" y="684"/>
			<point x="-136" y="672"/>
			<point x="-141" y="662" type="curve"/>
			<point x="-102" y="610"/>
			<point x="-57" y="585"/>
			<point x="0" y="585" type="curve" smooth="yes"/>
			<point x="57" y="585"/>
			<point x="102" y="610"/>
		</contour>
		<contour>
			<point name="_top.LC" x="0" y="530" type="move"/>
		</contour>
	</outline>
</glyph>
<glyph name="dieresiscomb" format="1">
	<unicode hex="0308"/>
	<outline>
		<contour>
			<point x="-91" y="592" type="curve" smooth="yes"/>
			<point x="-66" y="592"/>
			<point x="-48" y="608"/>
			<point x="-48" y="632" type="curve" smooth="yes"/>
			<point x="-48" y="656"/>
			<point x="-66" y="672"/>
			<point x="-91" y="672" type="curve" smooth="yes"/>
			<point x="-116" y="672"/>
			<point x="-134" y="656"/>
			<point x="-134" y="632" type="curve" smooth="yes"/>
			<point x="-134" y="608"/>
			<point x="-116" y="592"/>
		</contour>
		<contour>
			<point x="91" y="592" type="curve" smooth="yes"/>
			<point x="116" y="592"/>
			<point x="134" y="608"/>
			<point x="134" y="632" type="curve" smooth="yes"/>
			<point x="134" y="656"/>
			<point x="116" y="672"/>
			<point x="91" y="672" type="curve" smooth="yes"/>
			<point x="66" y="672"/>
			<point x="48" y="656"/>
			<point x="48" y="632" type="curve" smooth="yes"/>
			<point x="48" y="608"/>
			<point x="66" y="592"/>
		</contour>
		<contour>
			<point name="_top.LC" x="0" y="530" type="move"/>
		</contour>
	</outline>
</glyph>
<glyph name="hungarumlautcomb" format="1">
	<unicode hex="030B"/>
	<outline>
		<contour>
			<point x="-4" y="644" type="line"/>
			<point x="47" y="697" type="line"/>
			<point x="34" y="713"/>
			<point x="25" y="721"/>
			<point x="8" y="735" type="curve"/>
			<point x="-43" y="683" type="line"/>
			<point x="-130" y="581" type="line"/>
			<point x="-123" y="571"/>
			<point x="-115" y="564"/>
			<point x="-103" y="556" type="curve"/>
		</contour>
		<contour>
			<point x="161" y="644" type="line"/>
			<point x="212" y="697" type="line"/>
			<point x="199" y="713"/>
			<point x="190" y="721"/>
			<point x="173" y="735" type="curve"/>
			<point x="122" y="683" type="line"/>
			<point x="35" y="581" type="line"/>
			<point x="42" y="571"/>
			<point x="50" y="564"/>
			<point x="62" y="556" type="curve"/>
		</contour>
		<contour>
			<point name="_top.LC" x="0" y="530" type="move"/>
		</contour>
	</outline>
</glyph>
<glyph name="commaturnedabovecomb" format="1">
	<unicode hex="0312"/>
	<outline>
		<contour>
			<point x="7" y="672" type="line"/>
			<point x="11" y="703"/>
			<point x="22" y="736"/>
			<point x="38" y="768" type="curve"/>
			<point x="30" y="775"/>
			<point x="19" y="779"/>
			<point x="5" y="779" type="curve"/>
			<point x="-24" y="741"/>
			<point x="-48" y="679"/>
			<point x="-48" y="644" type="curve" smooth="yes"/>
			<point x="-48" y="612"/>
			<point x="-29" y="590"/>
			<point x="0" y="590" type="curve" smooth="yes"/>
			<point x="27" y="590"/>
			<point x="45" y="608"/>
			<point x="45" y="633" type="curve" smooth="yes"/>
			<point x="45" y="639"/>
			<point x="43" y="647"/>
			<point x="41" y="651" type="curve"/>
		</contour>
		<contour>
			<point name="_top.LC" x="0" y="530" type="move"/>
		</contour>
	</outline>
</glyph>
<glyph name="commaaboverightcomb" format="1">
	<unicode hex="0315"/>
	<outline>
		<contour>
			<point x="47" y="494" type="line"/>
			<point x="52" y="493"/>
			<point x="58" y="492"/>
			<point x="67" y="492" type="curve" smooth="yes"/>
			<point x="72" y="492"/>
			<point x="81" y="493"/>
			<point x="84" y="494" type="curve"/>
			<point x="103" y="670" type="line"/>
			<point x="94" y="671"/>
			<point x="82" y="672"/>
			<point x="75" y="672" type="curve" smooth="yes"/>
			<point x="68" y="672"/>
			<point x="56" y="671"/>
			<point x="47" y="670" type="curve"/>
		</contour>
		<contour>
			<point name="_top_right" x="0" y="510" type="move"/>
		</contour>
	</outline>
</glyph>
<glyph name="commabelowcomb" format="1">
	<unicode hex="0326"/>
	<outline>
		<contour>
			<point x="-6" y="-160" type="line"/>
			<point x="-10" y="-191"/>
			<point x="-22" y="-226"/>
			<point x="-38" y="-258" type="curve"/>
			<point x="-30" y="-265"/>
			<point x="-19" y="-269"/>
			<point x="-5" y="-269" type="curve"/>
			<point x="24" y="-231"/>
			<point x="48" y="-169"/>
			<point x="48" y="-134" type="curve" smooth="yes"/>
			<point x="48" y="-102"/>
			<point x="29" y="-80"/>
			<point x="0" y="-80" type="curve" smooth="yes"/>
			<point x="-27" y="-80"/>
			<point x="-44" y="-98"/>
			<point x="-44" y="-121" type="curve" smooth="yes"/>
			<point x="-44" y="-127"/>
			<point x="-42" y="-135"/>
			<point x="-40" y="-139" type="curve"/>
		</contour>
		<contour>
			<point name="_bottom.LC" x="0" y="-20" type="move"/>
		</contour>
	</outline>
</glyph>
<glyph name="cedillacomb" format="1">
	<unicode hex="0327"/>
	<outline>
		<contour>
			<point x="-56" y="-75" type="line"/>
			<point x="-54" y="-87"/>
			<point x="-52" y="-92"/>
			<point x="-46" y="-102" type="curve"/>
			<point x="-5" y="-102"/>
			<point x="19" y="-119"/>
			<point x="19" y="-148" type="curve" smooth="yes"/>
			<point x="19" y="-175"/>
			<point x="-2" y="-190"/>
			<point x="-40" y="-190" type="curve" smooth="yes"/>
			<point x="-57" y="-190"/>
			<point x="-72" y="-187"/>
			<point x="-88" y="-180" type="curve"/>
			<point x="-95" y="-192"/>
			<point x="-97" y="-200"/>
			<point x="-97" y="-213" type="curve"/>
			<point x="-76" y="-224"/>
			<point x="-57" y="-228"/>
			<point x="-33" y="-228" type="curve" smooth="yes"/>
			<point x="30" y="-228"/>
			<point x="71" y="-195"/>
			<point x="71" y="-145" type="curve" smooth="yes"/>
			<point x="71" y="-102"/>
			<point x="43" y="-73"/>
			<point x="-4" y="-66" type="curve"/>
			<point x="19" y="10" type="line"/>
			<point x="-18" y="10" type="line"/>
		</contour>
		<contour>
			<point name="_bottom.LC" x="0" y="-20" type="move"/>
		</contour>
	</outline>
</glyph>
<glyph name="ogonekcomb" format="1">
	<unicode hex="0328"/>
	<outline>
		<contour>
			<point x="-18" y="14" type="line"/>
			<point x="-78" y="-19"/>
			<point x="-113" y="-64"/>
			<point x="-113" y="-107" type="curve" smooth="yes"/>
			<point x="-113" y="-150"/>
			<point x="-85" y="-178"/>
			<point x="-41" y="-178" type="curve" smooth="yes"/>
			<point x="-19" y="-178"/>
			<point x="7" y="-172"/>
			<point x="23" y="-163" type="curve"/>
			<point x="23" y="-150"/>
			<point x="21" y="-142"/>
			<point x="14" y="-130" type="curve"/>
			<point x="3" y="-132"/>
			<point x="-7" y="-133"/>
			<point x="-16" y="-133" type="curve" smooth="yes"/>
			<point x="-47" y="-133"/>
			<point x="-60" y="-121"/>
			<point x="-60" y="-95" type="curve" smooth="yes"/>
			<point x="-60" y="-62"/>
			<point x="-36" y="-29"/>
			<point x="18" y="14" type="curve"/>
		</contour>
		<contour>
			<point name="_ogonek.LC" x="0" y="-20" type="move"/>
		</contour>
	</outline>
</glyph>
<glyph name="pi" format="1">
	<unicode hex="03C0"/>
	<advance width="575"/>
	<outline>
		<contour>
			<point x="547" y="456" type="line"/>
			<point x="551" y="471" type="line" smooth="yes"/>
			<point x="554" y="482"/>
			<point x="555" y="489"/>
			<point x="555" y="492" type="curve" smooth="yes"/>
			<point x="555" y="501"/>
			<point x="550" y="506"/>
			<point x="539" y="506" type="curve"/>
			<point x="474" y="500" type="line"/>
			<point x="178" y="500" type="line" smooth="yes"/>
			<point x="79" y="500"/>
			<point x="36" y="479"/>
			<point x="20" y="407" type="curve"/>
			<point x="28" y="403"/>
			<point x="43" y="396"/>
			<point x="56" y="395" type="curve"/>
			<point x="78" y="443"/>
			<point x="98" y="455"/>
			<point x="158" y="456" type="curve"/>
			<point x="158" y="102" type="line"/>
			<point x="151" y="17" type="line"/>
			<point x="158" y="9"/>
			<point x="168" y="1"/>
			<point x="179" y="-5" type="curve"/>
			<point x="212" y="0" type="line"/>
			<point x="212" y="456" type="line"/>
			<point x="407" y="456" type="line"/>
			<point x="407" y="20" type="line"/>
			<point x="415" y="9"/>
			<point x="426" y="1"/>
			<point x="441" y="-5" type="curve"/>
			<point x="539" y="14" type="line"/>
			<point x="543" y="21"/>
			<point x="545" y="27"/>
			<point x="545" y="33" type="curve" smooth="yes"/>
			<point x="545" y="37"/>
			<point x="544" y="42"/>
			<point x="542" y="47" type="curve"/>
			<point x="461" y="47" type="line"/>
			<point x="455" y="295" type="line"/>
			<point x="461" y="456" type="line"/>
		</contour>
	</outline>
</glyph>
<glyph name="Germandbls" format="1">
	<unicode hex="1E9E"/>
	<advance width="651"/>
	<outline>
		<contour>
			<point x="298" y="44" type="line"/>
			<point x="302" y="35"/>
			<point x="309" y="23"/>
			<point x="317" y="14" type="curve"/>
			<point x="346" y="-1"/>
			<point x="390" y="-10"/>
			<point x="434" y="-10" type="curve" smooth="yes"/>
			<point x="555" y="-10"/>
			<point x="636" y="60"/>
			<point x="636" y="166" type="curve" smooth="yes"/>
			<point x="636" y="246"/>
			<point x="580" y="312"/>
			<point x="465" y="366" type="curve" smooth="yes"/>
			<point x="432" y="381" type="line"/>
			<point x="532" y="563" type="line"/>
			<point x="532" y="574"/>
			<point x="530" y="588"/>
			<point x="526" y="598" type="curve"/>
			<point x="469" y="634"/>
			<point x="400" y="655"/>
			<point x="334" y="655" type="curve" smooth="yes"/>
			<point x="201" y="655"/>
			<point x="110" y="564"/>
			<point x="110" y="433" type="curve" smooth="yes"/>
			<point x="110" y="44" type="line"/>
			<point x="43" y="36" type="line"/>
			<point x="39" y="31"/>
			<point x="36" y="23"/>
			<point x="36" y="16" type="curve" smooth="yes"/>
			<point x="36" y="12"/>
			<point x="38" y="3"/>
			<point x="40" y="0" type="curve"/>
			<point x="166" y="0" type="line"/>
			<point x="166" y="435" type="line" smooth="yes"/>
			<point x="166" y="539"/>
			<point x="233" y="608"/>
			<point x="334" y="608" type="curve" smooth="yes"/>
			<point x="386" y="608"/>
			<point x="434" y="596"/>
			<point x="480" y="572" type="curve"/>
			<point x="373" y="380" type="line"/>
			<point x="374" y="369"/>
			<point x="377" y="356"/>
			<point x="380" y="349" type="curve"/>
			<point x="442" y="321" type="line" smooth="yes"/>
			<point x="535" y="279"/>
			<point x="578" y="230"/>
			<point x="578" y="166" type="curve" smooth="yes"/>
			<point x="578" y="90"/>
			<point x="518" y="37"/>
			<point x="434" y="37" type="curve" smooth="yes"/>
			<point x="401" y="37"/>
			<point x="384" y="39"/>
			<point x="359" y="46" type="curve"/>
			<point x="332" y="166" type="line"/>
			<point x="327" y="170"/>
			<point x="319" y="173"/>
			<point x="312" y="173" type="curve" smooth="yes"/>
			<point x="308" y="173"/>
			<point x="299" y="171"/>
			<point x="296" y="169" type="curve"/>
		</contour>
	</outline>
</glyph>
<glyph name="endash" format="1">
	<unicode hex="2013"/>
	<advance width="500"/>
	<outline>
		<contour>
			<point x="500" y="226" type="line"/>
			<point x="500" y="274" type="line"/>
			<point x="0" y="274" type="line"/>
			<point x="0" y="226" type="line"/>
		</contour>
	</outline>
</glyph>
<glyph name="emdash" format="1">
	<unicode hex="2014"/>
	<advance width="1000"/>
	<outline>
		<contour>
			<point x="1000" y="226" type="line"/>
			<point x="1000" y="274" type="line"/>
			<point x="0" y="274" type="line"/>
			<point x="0" y="226" type="line"/>
		</contour>
	</outline>
</glyph>
<glyph name="minute" format="1">
	<unicode hex="2032"/>
	<advance width="203"/>
	<outline>
		<contour>
			<point x="148" y="568" type="line"/>
			<point x="168" y="639" type="line"/>
			<point x="148" y="647"/>
			<point x="135" y="651"/>
			<point x="114" y="655" type="curve"/>
			<point x="92" y="586" type="line"/>
			<point x="60" y="449" type="line"/>
			<point x="71" y="444"/>
			<point x="82" y="440"/>
			<point x="98" y="438" type="curve"/>
		</contour>
	</outline>
</glyph>
<glyph name="guilsinglleft" format="1">
	<unicode hex="2039"/>
	<advance width="359"/>
	<outline>
		<contour>
			<point x="273" y="440" type="line"/>
			<point x="265" y="451"/>
			<point x="255" y="459"/>
			<point x="242" y="466" type="curve"/>
			<point x="63" y="276" type="line"/>
			<point x="61" y="265"/>
			<point x="60" y="258"/>
			<point x="60" y="250" type="curve" smooth="yes"/>
			<point x="60" y="242"/>
			<point x="61" y="235"/>
			<point x="63" y="224" type="curve"/>
			<point x="242" y="34" type="line"/>
			<point x="255" y="41"/>
			<point x="266" y="50"/>
			<point x="274" y="61" type="curve"/>
			<point x="111" y="252" type="line"/>
		</contour>
	</outline>
</glyph>
<glyph name="guilsinglright" format="1">
	<unicode hex="203A"/>
	<advance width="384"/>
	<outline>
		<contour>
			<point x="111" y="60" type="line"/>
			<point x="119" y="49"/>
			<point x="129" y="41"/>
			<point x="142" y="34" type="curve"/>
			<point x="321" y="224" type="line"/>
			<point x="323" y="235"/>
			<point x="324" y="242"/>
			<point x="324" y="250" type="curve" smooth="yes"/>
			<point x="324" y="258"/>
			<point x="323" y="265"/>
			<point x="321" y="276" type="curve"/>
			<point x="142" y="466" type="line"/>
			<point x="129" y="459"/>
			<point x="118" y="450"/>
			<point x="110" y="439" type="curve"/>
			<point x="273" y="248" type="line"/>
		</contour>
	</outline>
</glyph>
<glyph name="fraction" format="1">
	<unicode hex="2044"/>
	<outline>
		<contour>
			<point x="-197" y="14" type="line"/>
			<point x="-187" y="3"/>
			<point x="-170" y="-5"/>
			<point x="-155" y="-10" type="curve"/>
			<point x="197" y="631" type="line"/>
			<point x="187" y="642"/>
			<point x="170" y="650"/>
			<point x="155" y="655" type="curve"/>
		</contour>
	</outline>
</glyph>
<glyph name="zeroinferior" format="1">
	<unicode hex="2080"/>
	<advance width="348"/>
	<outline>
		<contour>
			<point x="270" y="72" type="curve" smooth="yes"/>
			<point x="270" y="-18"/>
			<point x="232" y="-70"/>
			<point x="174" y="-70" type="curve" smooth="yes"/>
			<point x="116" y="-70"/>
			<point x="78" y="-18"/>
			<point x="78" y="72" type="curve" smooth="yes"/>
			<point x="78" y="162"/>
			<point x="116" y="214"/>
			<point x="174" y="214" type="curve" smooth="yes"/>
			<point x="232" y="214"/>
			<point x="270" y="162"/>
		</contour>
		<contour>
			<point x="25" y="72" type="curve" smooth="yes"/>
			<point x="25" y="-37"/>
			<point x="86" y="-110"/>
			<point x="174" y="-110" type="curve" smooth="yes"/>
			<point x="262" y="-110"/>
			<point x="323" y="-37"/>
			<point x="323" y="72" type="curve" smooth="yes"/>
			<point x="323" y="181"/>
			<point x="262" y="254"/>
			<point x="174" y="254" type="curve" smooth="yes"/>
			<point x="86" y="254"/>
			<point x="25" y="181"/>
		</contour>
	</outline>
</glyph>
<glyph name="oneinferior" format="1">
	<unicode hex="2081"/>
	<advance width="348"/>
	<outline>
		<contour>
			<point x="207" y="241" type="line"/>
			<point x="202" y="245"/>
			<point x="189" y="250"/>
			<point x="178" y="252" type="curve"/>
			<point x="57" y="174" type="line"/>
			<point x="59" y="164"/>
			<point x="66" y="151"/>
			<point x="72" y="144" type="curve"/>
			<point x="157" y="192" type="line"/>
			<point x="157" y="-64" type="line"/>
			<point x="71" y="-71" type="line"/>
			<point x="68" y="-76"/>
			<point x="66" y="-82"/>
			<point x="66" y="-87" type="curve" smooth="yes"/>
			<point x="66" y="-93"/>
			<point x="68" y="-98"/>
			<point x="69" y="-100" type="curve"/>
			<point x="274" y="-100" type="line"/>
			<point x="276" y="-94" type="line" smooth="yes"/>
			<point x="279" y="-84"/>
			<point x="280" y="-79"/>
			<point x="280" y="-76" type="curve" smooth="yes"/>
			<point x="280" y="-68"/>
			<point x="276" y="-64"/>
			<point x="265" y="-64" type="curve" smooth="yes"/>
			<point x="207" y="-64" type="line"/>
		</contour>
	</outline>
</glyph>
<glyph name="twoinferior" format="1">
	<unicode hex="2082"/>
	<advance width="348"/>
	<outline>
		<contour>
			<point x="296" y="-2" type="line"/>
			<point x="292" y="0"/>
			<point x="286" y="2"/>
			<point x="281" y="2" type="curve" smooth="yes"/>
			<point x="275" y="2"/>
			<point x="271" y="0"/>
			<point x="267" y="-3" type="curve"/>
			<point x="253" y="-60" type="line"/>
			<point x="86" y="-60" type="line"/>
			<point x="90" y="-27"/>
			<point x="112" y="-3"/>
			<point x="172" y="38" type="curve" smooth="yes"/>
			<point x="244" y="88"/>
			<point x="266" y="117"/>
			<point x="266" y="161" type="curve" smooth="yes"/>
			<point x="266" y="216"/>
			<point x="222" y="254"/>
			<point x="159" y="254" type="curve" smooth="yes"/>
			<point x="115" y="254"/>
			<point x="71" y="231"/>
			<point x="48" y="196" type="curve"/>
			<point x="52" y="187"/>
			<point x="63" y="176"/>
			<point x="74" y="170" type="curve"/>
			<point x="100" y="199"/>
			<point x="128" y="214"/>
			<point x="159" y="214" type="curve" smooth="yes"/>
			<point x="195" y="214"/>
			<point x="219" y="193"/>
			<point x="219" y="161" type="curve" smooth="yes"/>
			<point x="219" y="130"/>
			<point x="201" y="109"/>
			<point x="140" y="66" type="curve" smooth="yes"/>
			<point x="67" y="15"/>
			<point x="40" y="-20"/>
			<point x="40" y="-68" type="curve" smooth="yes"/>
			<point x="40" y="-74" type="line"/>
			<point x="43" y="-81"/>
			<point x="52" y="-93"/>
			<point x="59" y="-100" type="curve"/>
			<point x="274" y="-100" type="line"/>
			<point x="282" y="-93"/>
			<point x="292" y="-81"/>
			<point x="294" y="-73" type="curve"/>
		</contour>
	</outline>
</glyph>
<glyph name="threeinferior" format="1">
	<unicode hex="2083"/>
	<advance width="348"/>
	<outline>
		<contour>
			<point x="40" y="-77" type="curve"/>
			<point x="69" y="-98"/>
			<point x="111" y="-110"/>
			<point x="153" y="-110" type="curve" smooth="yes"/>
			<point x="236" y="-110"/>
			<point x="289" y="-64"/>
			<point x="289" y="4" type="curve" smooth="yes"/>
			<point x="289" y="60"/>
			<point x="253" y="105"/>
			<point x="186" y="108" type="curve"/>
			<point x="280" y="217" type="line"/>
			<point x="277" y="224"/>
			<point x="268" y="237"/>
			<point x="260" y="244" type="curve"/>
			<point x="71" y="244" type="line"/>
			<point x="63" y="237"/>
			<point x="53" y="225"/>
			<point x="51" y="217" type="curve"/>
			<point x="49" y="140" type="line"/>
			<point x="53" y="138"/>
			<point x="59" y="136"/>
			<point x="64" y="136" type="curve" smooth="yes"/>
			<point x="70" y="136"/>
			<point x="76" y="138"/>
			<point x="80" y="141" type="curve"/>
			<point x="97" y="206" type="line"/>
			<point x="221" y="206" type="line"/>
			<point x="128" y="95" type="line"/>
			<point x="132" y="86"/>
			<point x="136" y="80"/>
			<point x="146" y="69" type="curve"/>
			<point x="153" y="71"/>
			<point x="163" y="72"/>
			<point x="172" y="72" type="curve" smooth="yes"/>
			<point x="216" y="72"/>
			<point x="242" y="44"/>
			<point x="242" y="5" type="curve" smooth="yes"/>
			<point x="242" y="-41"/>
			<point x="207" y="-70"/>
			<point x="152" y="-70" type="curve" smooth="yes"/>
			<point x="123" y="-70"/>
			<point x="88" y="-61"/>
			<point x="57" y="-43" type="curve"/>
			<point x="48" y="-53"/>
			<point x="42" y="-65"/>
		</contour>
	</outline>
</glyph>
<glyph name="fourinferior" format="1">
	<unicode hex="2084"/>
	<advance width="348"/>
	<outline>
		<contour>
			<point x="249" y="241" type="line"/>
			<point x="244" y="245"/>
			<point x="231" y="250"/>
			<point x="220" y="252" type="curve"/>
			<point x="31" y="19" type="line"/>
			<point x="32" y="13"/>
			<point x="40" y="1"/>
			<point x="48" y="-7" type="curve"/>
			<point x="207" y="-7" type="line"/>
			<point x="207" y="-65" type="line"/>
			<point x="139" y="-71" type="line"/>
			<point x="136" y="-76"/>
			<point x="134" y="-82"/>
			<point x="134" y="-87" type="curve" smooth="yes"/>
			<point x="134" y="-93"/>
			<point x="136" y="-98"/>
			<point x="137" y="-100" type="curve"/>
			<point x="298" y="-100" type="line"/>
			<point x="300" y="-94" type="line" smooth="yes"/>
			<point x="303" y="-84"/>
			<point x="304" y="-79"/>
			<point x="304" y="-76" type="curve" smooth="yes"/>
			<point x="304" y="-68"/>
			<point x="300" y="-64"/>
			<point x="289" y="-64" type="curve" smooth="yes"/>
			<point x="249" y="-64" type="line"/>
			<point x="249" y="-7" type="line"/>
			<point x="309" y="-7" type="line"/>
			<point x="311" y="-1" type="line" smooth="yes"/>
			<point x="314" y="9"/>
			<point x="315" y="14"/>
			<point x="315" y="17" type="curve" smooth="yes"/>
			<point x="315" y="25"/>
			<point x="311" y="29"/>
			<point x="300" y="29" type="curve" smooth="yes"/>
			<point x="249" y="29" type="line"/>
		</contour>
		<contour>
			<point x="85" y="29" type="line"/>
			<point x="207" y="178" type="line"/>
			<point x="207" y="29" type="line"/>
		</contour>
	</outline>
</glyph>
<glyph name="fiveinferior" format="1">
	<unicode hex="2085"/>
	<advance width="348"/>
	<outline>
		<contour>
			<point x="42" y="-77" type="curve"/>
			<point x="71" y="-98"/>
			<point x="112" y="-110"/>
			<point x="153" y="-110" type="curve" smooth="yes"/>
			<point x="236" y="-110"/>
			<point x="291" y="-63"/>
			<point x="291" y="8" type="curve" smooth="yes"/>
			<point x="291" y="76"/>
			<point x="240" y="122"/>
			<point x="166" y="122" type="curve" smooth="yes"/>
			<point x="148" y="122"/>
			<point x="131" y="119"/>
			<point x="114" y="114" type="curve"/>
			<point x="122" y="203" type="line"/>
			<point x="141" y="198"/>
			<point x="163" y="196"/>
			<point x="187" y="196" type="curve" smooth="yes"/>
			<point x="225" y="196"/>
			<point x="260" y="203"/>
			<point x="283" y="215" type="curve"/>
			<point x="282" y="230"/>
			<point x="278" y="242"/>
			<point x="272" y="249" type="curve"/>
			<point x="249" y="240"/>
			<point x="224" y="236"/>
			<point x="196" y="236" type="curve" smooth="yes"/>
			<point x="166" y="236"/>
			<point x="135" y="241"/>
			<point x="106" y="252" type="curve"/>
			<point x="95" y="243"/>
			<point x="85" y="231"/>
			<point x="83" y="225" type="curve"/>
			<point x="72" y="84" type="line"/>
			<point x="77" y="80"/>
			<point x="87" y="75"/>
			<point x="97" y="72" type="curve"/>
			<point x="112" y="78"/>
			<point x="135" y="82"/>
			<point x="156" y="82" type="curve" smooth="yes"/>
			<point x="210" y="82"/>
			<point x="244" y="53"/>
			<point x="244" y="8" type="curve" smooth="yes"/>
			<point x="244" y="-38"/>
			<point x="207" y="-70"/>
			<point x="152" y="-70" type="curve" smooth="yes"/>
			<point x="123" y="-70"/>
			<point x="90" y="-61"/>
			<point x="59" y="-43" type="curve"/>
			<point x="50" y="-53"/>
			<point x="44" y="-65"/>
		</contour>
	</outline>
</glyph>
<glyph name="sixinferior" format="1">
	<unicode hex="2086"/>
	<advance width="348"/>
	<outline>
		<contour>
			<point x="245" y="221" type="curve"/>
			<point x="242" y="233"/>
			<point x="235" y="247"/>
			<point x="228" y="254" type="curve"/>
			<point x="113" y="203"/>
			<point x="48" y="122"/>
			<point x="48" y="28" type="curve" smooth="yes"/>
			<point x="48" y="-58"/>
			<point x="97" y="-110"/>
			<point x="178" y="-110" type="curve" smooth="yes"/>
			<point x="252" y="-110"/>
			<point x="306" y="-59"/>
			<point x="306" y="10" type="curve" smooth="yes"/>
			<point x="306" y="78"/>
			<point x="255" y="130"/>
			<point x="188" y="130" type="curve" smooth="yes"/>
			<point x="145" y="130"/>
			<point x="106" y="105"/>
			<point x="89" y="67" type="curve"/>
			<point x="104" y="127"/>
			<point x="159" y="179"/>
		</contour>
		<contour>
			<point x="178" y="-70" type="curve" smooth="yes"/>
			<point x="131" y="-70"/>
			<point x="98" y="-37"/>
			<point x="98" y="10" type="curve" smooth="yes"/>
			<point x="98" y="57"/>
			<point x="131" y="90"/>
			<point x="178" y="90" type="curve" smooth="yes"/>
			<point x="225" y="90"/>
			<point x="258" y="57"/>
			<point x="258" y="10" type="curve" smooth="yes"/>
			<point x="258" y="-37"/>
			<point x="225" y="-70"/>
		</contour>
	</outline>
</glyph>
<glyph name="seveninferior" format="1">
	<unicode hex="2087"/>
	<advance width="348"/>
	<outline>
		<contour>
			<point x="152" y="-105" type="curve"/>
			<point x="311" y="217" type="line"/>
			<point x="308" y="224"/>
			<point x="299" y="237"/>
			<point x="291" y="244" type="curve"/>
			<point x="77" y="244" type="line"/>
			<point x="69" y="237"/>
			<point x="59" y="225"/>
			<point x="57" y="217" type="curve"/>
			<point x="55" y="146" type="line"/>
			<point x="59" y="144"/>
			<point x="65" y="142"/>
			<point x="69" y="142" type="curve" smooth="yes"/>
			<point x="76" y="142"/>
			<point x="80" y="144"/>
			<point x="84" y="147" type="curve"/>
			<point x="99" y="205" type="line"/>
			<point x="256" y="205" type="line"/>
			<point x="112" y="-85" type="line"/>
			<point x="120" y="-97"/>
			<point x="138" y="-103"/>
		</contour>
	</outline>
</glyph>
